<svg width="35" height="32" viewBox="0 0 35 32" fill="none" xmlns="http://www.w3.org/2000/svg">
<path d="M0.856331 6.9306L0.85632 6.93178L0.855997 23.7845C0.855998 27.8463 4.16003 31.15 8.22147 31.15C12.2829 31.15 15.5866 27.8463 15.5866 23.7845C15.5866 23.0449 15.4751 22.3312 15.2711 21.6574C16.6282 20.7661 18.3783 20.7651 19.7364 21.6539C19.5318 22.3287 19.4197 23.0435 19.4197 23.7845C19.4197 27.8463 22.7234 31.15 26.7849 31.15C30.8463 31.15 34.15 27.8463 34.15 23.7845L34.15 6.98636L34.15 6.9852L34.15 6.9852C34.1301 4.42194 32.5485 2.15877 30.1279 1.16171C30.1279 1.16171 30.1279 1.1617 30.1279 1.1617L29.4639 0.888002C29.4637 0.887914 29.4635 0.887826 29.4633 0.887738C29.2139 0.782826 28.9291 0.904847 28.8273 1.15186C28.7252 1.39979 28.8432 1.68499 29.0921 1.78699L29.092 1.78692L29.1491 1.64824L29.0923 1.78707L0.856331 6.9306ZM0.856331 6.9306C0.876236 4.42116 2.45853 2.15845 4.87848 1.1617L5.542 0.888166C5.5423 0.888042 5.54259 0.887918 5.54288 0.887794C5.79099 0.782786 6.0769 0.904139 6.179 1.15183L6.17901 1.15187C6.28113 1.39981 6.16315 1.68502 5.91415 1.78701C5.9141 1.78703 5.91405 1.78705 5.91399 1.78707L5.24923 2.06113C3.18581 2.91188 1.84697 4.82739 1.82935 6.98662L1.82935 20.1436C3.09809 17.9232 5.48453 16.4197 8.22147 16.4197C11.1952 16.4197 13.7609 18.1914 14.9228 20.733C16.5146 19.7819 18.4925 19.7808 20.0852 20.7298C21.2478 18.1899 23.8124 16.4197 26.7849 16.4197C29.5218 16.4197 31.908 17.9231 33.1767 20.1435L33.1767 6.93765C33.1595 4.82835 31.8214 2.91223 29.7571 2.06112M0.856331 6.9306L29.7571 2.06112M29.7571 2.06112L29.8143 1.92245L29.7571 2.06113L29.7571 2.06112ZM8.22147 17.3931C4.69689 17.3931 1.82935 20.2606 1.82935 23.7845C1.82935 27.3091 4.6969 30.1767 8.22147 30.1767C11.7457 30.1767 14.6133 27.3091 14.6133 23.7845C14.6133 20.2606 11.7457 17.3931 8.22147 17.3931ZM26.7849 17.3931C23.2606 17.3931 20.3931 20.2606 20.3931 23.7845C20.3931 27.3091 23.2606 30.1767 26.7849 30.1767C30.3091 30.1767 33.1767 27.3091 33.1767 23.7845C33.1767 20.2606 30.3091 17.3931 26.7849 17.3931Z" fill="black" stroke="black" stroke-width="0.3"/>
</svg>
