<svg width="35" height="32" viewBox="0 0 35 32" fill="none" xmlns="http://www.w3.org/2000/svg">
<path d="M26.7859 30.9998C22.8073 30.9998 19.5708 27.7633 19.5708 23.7843C19.5708 23.0198 19.6925 22.2837 19.9138 21.5917C18.4621 20.5855 16.5464 20.5866 15.0959 21.5953C15.3165 22.2863 15.4376 23.0212 15.4376 23.7843C15.4376 27.7633 12.2011 30.9998 8.2225 30.9998C4.2439 30.9998 1.00703 27.7633 1.00703 23.7843L1.00736 6.93159C1.02675 4.48611 2.56907 2.27537 4.93664 1.3002L5.60177 1.026C5.77175 0.953666 5.97033 1.03652 6.04135 1.2088C6.11204 1.38043 6.03017 1.5777 5.85822 1.64805L5.19309 1.92226C3.07672 2.79485 1.69813 4.76294 1.68038 6.98617L1.68038 20.7602C2.82717 18.2903 5.32473 16.5695 8.2225 16.5695C11.1956 16.5695 13.7531 18.3776 14.8565 20.9512C16.4721 19.909 18.537 19.9079 20.1536 20.9478C21.2578 18.376 23.8141 16.5695 26.7859 16.5695C29.6837 16.5695 32.181 18.2902 33.3277 20.7601V6.93685C33.3103 4.76294 31.9317 2.79485 29.8153 1.92226L29.1502 1.64805C28.9782 1.57769 28.8964 1.38042 28.967 1.2088C29.0377 1.03717 29.2353 0.953663 29.4066 1.026L30.0718 1.3002C32.4393 2.27537 33.9816 4.48611 34.001 6.98617V23.7843C34.001 27.7633 30.7645 30.9998 26.7859 30.9998ZM8.2225 17.2429C4.61509 17.2429 1.68038 20.1776 1.68038 23.7843C1.68038 27.3917 4.61509 30.3265 8.2225 30.3265C11.8296 30.3265 14.7643 27.3917 14.7643 23.7843C14.7643 20.1776 11.8296 17.2429 8.2225 17.2429ZM26.7859 17.2429C23.1788 17.2429 20.2441 20.1776 20.2441 23.7843C20.2441 27.3917 23.1788 30.3265 26.7859 30.3265C30.393 30.3265 33.3277 27.3917 33.3277 23.7843C33.3277 20.1776 30.393 17.2429 26.7859 17.2429Z" fill="black"/>
<path fill-rule="evenodd" clip-rule="evenodd" d="M1.00736 6.93159L1.00703 23.7843C1.00703 27.7633 4.2439 30.9998 8.2225 30.9998C12.2011 30.9998 15.4376 27.7633 15.4376 23.7843C15.4376 23.0212 15.3165 22.2863 15.0959 21.5953C16.5464 20.5866 18.4621 20.5855 19.9138 21.5917C19.6925 22.2837 19.5708 23.0198 19.5708 23.7843C19.5708 27.7633 22.8073 30.9998 26.7859 30.9998C30.7645 30.9998 34.001 27.7633 34.001 23.7843V6.98617C33.9816 4.48611 32.4393 2.27537 30.0718 1.3002L29.4066 1.026C29.2353 0.953663 29.0377 1.03717 28.967 1.2088C28.8964 1.38042 28.9782 1.57769 29.1502 1.64805L29.8153 1.92226C31.9317 2.79485 33.3103 4.76294 33.3277 6.93685V20.7601C33.2361 20.5629 33.136 20.3705 33.0277 20.1833C31.7797 18.0264 29.4523 16.5695 26.7859 16.5695C23.9215 16.5695 21.4431 18.2478 20.279 20.6719C20.2353 20.7628 20.1935 20.8548 20.1536 20.9478C20.0683 20.8929 19.9818 20.841 19.8941 20.7919C18.408 19.9599 16.6011 19.961 15.1158 20.795C15.0282 20.8442 14.9417 20.8962 14.8565 20.9512C14.8166 20.8582 14.7749 20.7662 14.7312 20.6753C13.5677 18.2493 11.0882 16.5695 8.2225 16.5695C5.55607 16.5695 3.2285 18.0265 1.98038 20.1835C1.87209 20.3706 1.77193 20.563 1.68038 20.7602L1.68038 6.98617C1.69813 4.76294 3.07672 2.79485 5.19309 1.92226L5.85822 1.64805C6.03017 1.5777 6.11204 1.38043 6.04135 1.2088C5.97033 1.03652 5.77175 0.953666 5.60177 1.026L4.93664 1.3002C2.56907 2.27537 1.02675 4.48611 1.00736 6.93159ZM4.82239 1.02281C2.35004 2.04114 0.727778 4.35584 0.707365 6.92922L0.707346 6.93159L0.707031 23.7843C0.707032 27.929 4.07822 31.2998 8.2225 31.2998C12.3668 31.2998 15.7376 27.929 15.7376 23.7843C15.7376 23.0694 15.6355 22.3783 15.4479 21.7231C16.7098 20.944 18.2987 20.9429 19.5616 21.7197C19.3733 22.3759 19.2708 23.0681 19.2708 23.7843C19.2708 27.9289 22.6416 31.2998 26.7859 31.2998C30.9302 31.2998 34.301 27.9289 34.301 23.7843V6.98384C34.2807 4.35735 32.6598 2.04173 30.186 1.02281L29.522 0.749051C29.1945 0.611646 28.8224 0.772174 28.6897 1.09455C28.5561 1.41875 28.7102 1.79184 29.0361 1.92551C29.0362 1.92558 29.0359 1.92544 29.0361 1.92551L29.701 2.19961C29.701 2.19961 29.7009 2.19961 29.701 2.19961C31.7131 3.02923 33.0108 4.89339 33.0277 6.93807L33.0277 19.6162C31.6803 17.6019 29.3888 16.2695 26.7859 16.2695C23.8108 16.2695 21.2367 18.0072 20.0199 20.5185C18.4537 19.6511 16.5556 19.6521 14.9902 20.5215C13.7739 18.0086 11.1988 16.2695 8.2225 16.2695C5.61954 16.2695 3.32791 17.602 1.98038 19.6164L1.98038 6.98716C1.99769 4.89175 3.29682 3.0286 5.30743 2.19962L5.97183 1.92571C5.97202 1.92563 5.97163 1.92579 5.97183 1.92571M4.82239 1.02281L5.4843 0.749953ZM1.98038 23.7843C1.98038 20.3433 4.78076 17.5429 8.2225 17.5429C11.6639 17.5429 14.4643 20.3433 14.4643 23.7843C14.4643 27.2261 11.6639 30.0265 8.2225 30.0265C4.78078 30.0265 1.98038 27.2261 1.98038 23.7843ZM20.5441 23.7843C20.5441 20.3433 23.3445 17.5429 26.7859 17.5429C30.2273 17.5429 33.0277 20.3433 33.0277 23.7843C33.0277 27.2261 30.2273 30.0265 26.7859 30.0265C23.3445 30.0265 20.5441 27.2261 20.5441 23.7843ZM1.68038 23.7843C1.68038 20.1776 4.61509 17.2429 8.2225 17.2429C11.8296 17.2429 14.7643 20.1776 14.7643 23.7843C14.7643 27.3917 11.8296 30.3265 8.2225 30.3265C4.61509 30.3265 1.68038 27.3917 1.68038 23.7843ZM20.2441 23.7843C20.2441 20.1776 23.1788 17.2429 26.7859 17.2429C30.393 17.2429 33.3277 20.1776 33.3277 23.7843C33.3277 27.3917 30.393 30.3265 26.7859 30.3265C23.1788 30.3265 20.2441 27.3917 20.2441 23.7843Z" fill="black"/>
</svg>
