<svg width="20" height="20" viewBox="0 0 20 20" fill="none" xmlns="http://www.w3.org/2000/svg">
<path d="M3.60067 16.3993C5.30993 18.1086 7.58277 19.05 10 19.05C12.4172 19.05 14.6901 18.1086 16.3993 16.3993C18.1086 14.6901 19.05 12.4172 19.05 10C19.05 7.58277 18.1086 5.30993 16.3993 3.60067C14.6901 1.89141 12.4172 0.95 10 0.95C7.58277 0.95 5.30993 1.89141 3.60067 3.60067C1.89141 5.30993 0.95 7.58277 0.95 10C0.95 12.4172 1.89141 14.69 3.60067 16.3993ZM1.77 10C1.77 5.46202 5.46202 1.77 10 1.77C14.538 1.77 18.23 5.46202 18.23 10C18.23 14.538 14.538 18.23 10 18.23C5.46202 18.23 1.77 14.538 1.77 10Z" fill="black" stroke="black" stroke-width="0.1"/>
<path d="M12.5929 13.1698L12.5929 13.1698C12.673 13.2498 12.7779 13.2899 12.8828 13.2899C12.9877 13.2899 13.0927 13.2498 13.1727 13.1698L13.1727 13.1698C13.3328 13.0097 13.3328 12.7501 13.1727 12.59L10.4128 9.83006V4.23988C10.4128 4.01344 10.2292 3.82988 10.0028 3.82988C9.77638 3.82988 9.59282 4.01344 9.59282 4.23988V9.99988C9.59282 10.1086 9.63604 10.2129 9.7129 10.2898L9.71291 10.2898L12.5929 13.1698Z" fill="black" stroke="black" stroke-width="0.1"/>
</svg>
