<svg width="50" height="50" viewBox="0 0 50 50" fill="none" xmlns="http://www.w3.org/2000/svg">
<circle cx="25" cy="25" r="24.5" stroke="#ED4242"/>
<path d="M38.4815 21.5378V34.1555H13.3446V21.5378C13.3446 21.2767 13.1334 21.0655 12.8723 21.0655C12.6115 21.0655 12.4 21.2766 12.4 21.5378V34.6278C12.4 34.8889 12.6111 35.1001 12.8723 35.1001H38.9541C39.2149 35.1001 39.4264 34.889 39.4264 34.6278V21.5378V21.5377C39.426 21.2766 39.2146 21.0655 38.9538 21.0655C38.6927 21.0655 38.4815 21.2767 38.4815 21.5378Z" fill="#ED4242" stroke="#ED4242" stroke-width="0.2"/>
<path d="M26.4138 27.943V14.4292C26.4138 14.3149 26.3474 14.2218 26.2608 14.1615C26.1738 14.1009 26.0591 14.0667 25.9371 14.0667C25.8152 14.0667 25.7005 14.1009 25.6135 14.1615C25.5269 14.2218 25.4603 14.3148 25.4603 14.4292V27.9429L23.5203 26.0466L23.5203 26.0465C23.4404 25.9684 23.3289 25.9253 23.2179 25.9123C23.1063 25.8992 22.9853 25.9153 22.8809 25.9669L22.8808 25.967C22.7764 26.0187 22.6995 26.1016 22.675 26.2034C22.6497 26.3081 22.6847 26.4136 22.767 26.494L25.5603 29.2245C25.6537 29.3161 25.7954 29.3634 25.9368 29.3634C26.0785 29.3634 26.22 29.3161 26.3137 29.2247L26.3138 29.2246L29.1075 26.494C29.1898 26.4136 29.2247 26.3081 29.1995 26.2034C29.175 26.1016 29.098 26.0187 28.9937 25.967C28.8898 25.9153 28.7689 25.8991 28.6572 25.9121C28.5462 25.925 28.4343 25.968 28.3541 26.0466L26.4138 27.943ZM26.4138 27.943L28.354 26.0466L26.4138 27.943Z" fill="#ED4242" stroke="#ED4242" stroke-width="0.2"/>
</svg>
