<svg width="40" height="40" viewBox="0 0 40 40" fill="none" xmlns="http://www.w3.org/2000/svg">
<mask id="path-1-inside-1" fill="white">
<path d="M16.9957 39.7731C12.5648 39.0998 8.48836 36.9578 5.42042 33.6907C2.35248 30.4236 0.470805 26.2207 0.0772565 21.7562C-0.316292 17.2917 0.801091 12.8245 3.25016 9.07101C5.69923 5.31755 9.33804 2.49546 13.5829 1.05745C17.8277 -0.380565 22.4325 -0.351152 26.6586 1.14097C30.8847 2.63309 34.4872 5.50143 36.8881 9.28586C39.289 13.0703 40.3492 17.5515 39.8987 22.0106C39.4481 26.4696 37.5129 30.6482 34.4035 33.8758L30.5262 30.1406C32.7986 27.7818 34.2129 24.7281 34.5422 21.4693C34.8714 18.2106 34.0966 14.9357 32.342 12.17C30.5874 9.4043 27.9546 7.30809 24.8662 6.21763C21.7777 5.12717 18.4124 5.10568 15.3103 6.15659C12.2081 7.20751 9.54885 9.26992 7.75905 12.013C5.96925 14.756 5.15265 18.0208 5.44026 21.2835C5.72787 24.5461 7.10301 27.6177 9.3451 30.0053C11.5872 32.393 14.5663 33.9583 17.8044 34.4504L16.9957 39.7731Z"/>
</mask>
<path d="M16.9957 39.7731C12.5648 39.0998 8.48836 36.9578 5.42042 33.6907C2.35248 30.4236 0.470805 26.2207 0.0772565 21.7562C-0.316292 17.2917 0.801091 12.8245 3.25016 9.07101C5.69923 5.31755 9.33804 2.49546 13.5829 1.05745C17.8277 -0.380565 22.4325 -0.351152 26.6586 1.14097C30.8847 2.63309 34.4872 5.50143 36.8881 9.28586C39.289 13.0703 40.3492 17.5515 39.8987 22.0106C39.4481 26.4696 37.5129 30.6482 34.4035 33.8758L30.5262 30.1406C32.7986 27.7818 34.2129 24.7281 34.5422 21.4693C34.8714 18.2106 34.0966 14.9357 32.342 12.17C30.5874 9.4043 27.9546 7.30809 24.8662 6.21763C21.7777 5.12717 18.4124 5.10568 15.3103 6.15659C12.2081 7.20751 9.54885 9.26992 7.75905 12.013C5.96925 14.756 5.15265 18.0208 5.44026 21.2835C5.72787 24.5461 7.10301 27.6177 9.3451 30.0053C11.5872 32.393 14.5663 33.9583 17.8044 34.4504L16.9957 39.7731Z" stroke="#ED4242" stroke-width="2" mask="url(#path-1-inside-1)"/>
</svg>
