<svg width="50" height="51" viewBox="0 0 50 51" fill="none" xmlns="http://www.w3.org/2000/svg">
<path d="M36.1422 50.053C36.0011 50.053 35.8667 49.9963 35.7666 49.8974C35.6677 49.7973 35.611 49.6629 35.611 49.5218L35.6098 45.146C35.6098 44.8529 35.848 44.6148 36.1398 44.6148L40.7158 44.6136L25.0006 28.8971L9.2847 44.6136L13.8619 44.6148C14.1543 44.6148 14.3925 44.8529 14.3925 45.146L14.3913 49.5218C14.3913 49.8148 14.1537 50.053 13.8607 50.053L0.530554 50.0506C0.237543 50.0506 0 49.8124 0 49.5194L0.00241144 36.1929C0.00241144 36.0518 0.058481 35.9173 0.15796 35.8172C0.257439 35.7184 0.39249 35.6617 0.532966 35.6617L4.90944 35.6629C5.20245 35.6629 5.43999 35.901 5.43999 36.1941L5.43939 40.7701L21.1559 25.0524L5.43939 9.33655V13.9132C5.43939 14.2062 5.20184 14.4437 4.90883 14.4437H0.532363C0.391886 14.4437 0.256836 14.3877 0.157357 14.2882C0.0578785 14.1887 0.00180829 14.0537 0.00180829 13.9126V0.584816C0.00180829 0.291805 0.239955 0.0542613 0.532363 0.0542613H13.8607C14.0012 0.0542613 14.1363 0.110331 14.2357 0.20981C14.3352 0.309289 14.3913 0.444339 14.3913 0.584816V4.96129C14.3913 5.2543 14.1531 5.49184 13.8607 5.49184H9.28349L25 21.2077L40.7333 5.47255L36.1531 5.49184C35.86 5.49124 35.6207 5.25671 35.6195 4.9637L35.602 0.58783C35.6008 0.447353 35.6563 0.311701 35.7551 0.211619C35.8552 0.111537 35.9897 0.0554668 36.1307 0.0548639L49.2921 0C49.5815 0 49.8221 0.23272 49.8257 0.523922L49.9999 13.8782C50.0023 14.0187 49.9481 14.1543 49.8492 14.255C49.7515 14.3557 49.6171 14.4136 49.4772 14.4154L45.1013 14.4727C44.8083 14.4739 44.5666 14.2418 44.5629 13.9488L44.5039 9.39202L28.8453 25.0524L44.5605 40.7689L44.5629 36.1929C44.5629 35.8998 44.8011 35.6617 45.0929 35.6617H45.0941L49.47 35.6641C49.6098 35.6641 49.7455 35.7196 49.8456 35.8197C49.9445 35.9185 49.9999 36.0542 49.9999 36.1941L49.9951 49.517C49.9951 49.81 49.7582 50.047 49.4651 50.047L36.1422 50.053ZM1.06051 48.9895L13.3302 48.9919L13.3308 45.6759L8.00414 45.6747C7.7901 45.6747 7.59597 45.5463 7.51398 45.3473C7.43138 45.1496 7.4766 44.9211 7.62853 44.7691L24.6244 27.7715C24.7244 27.6726 24.8589 27.616 25 27.616C25.1398 27.616 25.2755 27.6726 25.3744 27.7715L42.3708 44.7679C42.5227 44.9199 42.5685 45.1484 42.4859 45.3461C42.4033 45.5451 42.2104 45.6735 41.9958 45.6747L36.6697 45.6759L36.671 48.9907L48.9328 48.987L48.9376 36.7252L45.6228 36.724L45.6204 42.0488C45.6204 42.2629 45.4908 42.4576 45.2931 42.539C45.0953 42.6216 44.8668 42.5758 44.7149 42.4251L27.7197 25.428C27.5123 25.2206 27.5123 24.8842 27.7197 24.6768L44.6419 7.75273C44.7939 7.602 45.0199 7.55618 45.2177 7.63636C45.4155 7.71655 45.5451 7.90767 45.5487 8.1211L45.6168 13.4049L48.9316 13.3615L48.7712 1.06352L36.6649 1.11356L36.6788 4.42892L42.0169 4.40662C42.0181 4.40662 42.0181 4.40662 42.0193 4.40662C42.2333 4.40662 42.4269 4.53503 42.5095 4.73339C42.5921 4.93174 42.5474 5.16024 42.3955 5.31218L25.3756 22.3333C25.2767 22.4328 25.141 22.4889 25.0012 22.4889C24.8601 22.4889 24.7256 22.4328 24.6256 22.3333L7.62853 5.33629C7.4766 5.18496 7.43138 4.95646 7.51337 4.75811C7.59597 4.55975 7.7889 4.43073 8.00353 4.43073H13.3308V1.11537H1.06292V13.3826H4.37828V8.05538C4.37828 7.84135 4.5079 7.64722 4.70566 7.56522C4.90401 7.48323 5.13251 7.52845 5.28384 7.68038L22.2815 24.6768C22.4877 24.8842 22.4877 25.2206 22.2815 25.428L5.28324 42.4269C5.1313 42.5788 4.9028 42.6234 4.70445 42.542C4.5067 42.4594 4.37707 42.2665 4.37707 42.0513L4.37828 36.724H1.06292L1.06051 48.9895Z" fill="white"/>
</svg>
