<svg width="18" height="18" viewBox="0 0 18 18" fill="none" xmlns="http://www.w3.org/2000/svg">
<path d="M8.90036 3.92798C6.25639 3.92798 4.10474 5.98608 4.10474 8.5151C4.10474 11.0441 6.25639 13.1011 8.90036 13.1011C11.5443 13.1011 13.6948 11.0441 13.6948 8.5151C13.6948 5.98608 11.5443 3.92798 8.90036 3.92798ZM8.90036 11.7941C7.00969 11.7941 5.47231 10.3225 5.47231 8.5151C5.47231 6.70663 7.00969 5.23609 8.90036 5.23609C10.7899 5.23609 12.3284 6.70663 12.3284 8.5151C12.3273 10.3225 10.7899 11.7941 8.90036 11.7941Z" fill="white"/>
<path d="M14.2186 4.37126C14.5679 4.37126 14.8511 4.10039 14.8511 3.76626C14.8511 3.43212 14.5679 3.16125 14.2186 3.16125C13.8692 3.16125 13.5861 3.43212 13.5861 3.76626C13.5861 4.10039 13.8692 4.37126 14.2186 4.37126Z" fill="white"/>
<path d="M13.6757 0H4.12437C1.84622 0 0 1.76704 0 3.94614V13.0822C0 15.2613 1.84736 17.0284 4.12437 17.0284H13.6757C15.9539 17.0284 17.8012 15.2613 17.8012 13.0822V3.94723C17.8012 1.76704 15.9539 0 13.6757 0ZM16.4337 13.0822C16.4337 14.5364 15.196 15.7203 13.6757 15.7203H4.12437C2.60409 15.7203 1.36757 14.5364 1.36757 13.0822V3.94723C1.36757 2.49305 2.60409 1.3092 4.12437 1.3092H13.6757C15.196 1.3092 16.4337 2.49196 16.4337 3.94723V13.0822Z" fill="white"/>
</svg>
