<svg width="21" height="19" viewBox="0 0 21 19" fill="none" xmlns="http://www.w3.org/2000/svg">
<path d="M10.9294 4.38232C7.97926 4.38232 5.57848 6.67872 5.57848 9.50056C5.57848 12.3224 7.97926 14.6176 10.9294 14.6176C13.8795 14.6176 16.279 12.3224 16.279 9.50056C16.279 6.67872 13.8795 4.38232 10.9294 4.38232ZM10.9294 13.1592C8.81978 13.1592 7.1044 11.5172 7.1044 9.50056C7.1044 7.4827 8.81978 5.8419 10.9294 5.8419C13.0377 5.8419 14.7543 7.4827 14.7543 9.50056C14.7531 11.5172 13.0377 13.1592 10.9294 13.1592Z" fill="black"/>
<path d="M16.8627 4.87745C17.2525 4.87745 17.5684 4.57522 17.5684 4.2024C17.5684 3.82958 17.2525 3.52734 16.8627 3.52734C16.4729 3.52734 16.157 3.82958 16.157 4.2024C16.157 4.57522 16.4729 4.87745 16.8627 4.87745Z" fill="black"/>
<path d="M16.2573 0H5.60004C3.05811 0 0.998123 1.97164 0.998123 4.40305V14.597C0.998123 17.0284 3.05938 19 5.60004 19H16.2573C18.7992 19 20.8605 17.0284 20.8605 14.597V4.40426C20.8605 1.97164 18.7992 0 16.2573 0ZM19.3346 14.597C19.3346 16.2195 17.9536 17.5404 16.2573 17.5404H5.60004C3.90373 17.5404 2.52404 16.2195 2.52404 14.597V4.40426C2.52404 2.7817 3.90373 1.46079 5.60004 1.46079H16.2573C17.9536 1.46079 19.3346 2.78049 19.3346 4.40426V14.597Z" fill="black"/>
</svg>
