<svg width="18" height="18" viewBox="0 0 18 18" fill="none" xmlns="http://www.w3.org/2000/svg">
<path d="M4.22788 18.001C5.36215 17.9636 6.43632 17.482 7.21884 16.6601L10.6264 13.2525C10.6963 13.1826 10.7636 13.1112 10.8283 13.0385C10.6437 13.0618 10.4579 13.0746 10.2719 13.0767C9.69493 13.0823 9.12143 12.9869 8.57737 12.7947L5.96542 15.4066C5.51175 15.9023 4.88006 16.1979 4.20882 16.2285C3.8916 16.2239 3.57862 16.1549 3.28887 16.0257C2.99912 15.8965 2.73864 15.7098 2.52323 15.4769C2.29032 15.2615 2.10359 15.001 1.97437 14.7112C1.84516 14.4215 1.77615 14.1085 1.77154 13.7913C1.8022 13.1201 2.09776 12.4883 2.59342 12.0347L6.00099 8.62709C6.45468 8.13143 7.08638 7.83587 7.75763 7.80521C8.07485 7.80982 8.38782 7.87882 8.67757 8.00803C8.96731 8.13725 9.22779 8.32398 9.44318 8.5569C9.57816 8.69123 9.69965 8.83848 9.80589 8.99652C9.93854 9.05772 10.083 9.08915 10.2291 9.08861C10.6086 9.05348 10.9606 8.8757 11.2141 8.59115L11.4731 8.33222C11.2644 7.9542 11.0029 7.60781 10.6966 7.30346C10.3138 6.90426 9.85473 6.58606 9.34657 6.36777C8.83842 6.14947 8.29157 6.03553 7.73852 6.03271C6.60426 6.07013 5.5301 6.55171 4.74756 7.37366L1.34 10.7812C0.518036 11.5638 0.0364445 12.6379 -0.000976562 13.7722C0.00185098 14.3253 0.115799 14.8721 0.334099 15.3803C0.552399 15.8884 0.870599 16.3475 1.2698 16.7303C1.65257 17.1295 2.11167 17.4477 2.61983 17.666C3.12798 17.8842 3.67483 17.9982 4.22788 18.001Z" fill="black"/>
<path d="M18.0002 4.22882C17.9973 3.67577 17.8834 3.12893 17.6651 2.62078C17.4468 2.11262 17.1286 1.65352 16.7294 1.27075C16.3466 0.871544 15.8875 0.553341 15.3794 0.335045C14.8712 0.116748 14.3244 0.00281015 13.7713 0C12.637 0.0374119 11.5629 0.518992 10.7803 1.34094L7.37279 4.7485C7.30286 4.81844 7.23557 4.88979 7.17091 4.96254C7.35549 4.93922 7.54124 4.92645 7.72727 4.92429C8.30426 4.91868 8.87777 5.01414 9.42184 5.20632L12.0338 2.59437C12.4875 2.09871 13.1192 1.80315 13.7904 1.77249C14.1076 1.77709 14.4206 1.84609 14.7104 1.97531C15.0001 2.10452 15.2606 2.29126 15.476 2.52418C15.7089 2.73958 15.8956 3.00006 16.0248 3.2898C16.154 3.57954 16.223 3.89251 16.2276 4.20973C16.197 4.88098 15.9014 5.51268 15.4058 5.96637L11.9982 9.37393C11.5445 9.86958 10.9128 10.1651 10.2416 10.1958C9.92439 10.1912 9.61141 10.1222 9.32166 9.99299C9.03191 9.86378 8.77142 9.67705 8.55601 9.44413C8.42101 9.3098 8.29952 9.16254 8.19326 9.00449C8.06067 8.94331 7.9163 8.91189 7.77027 8.91243C7.39073 8.94751 7.03863 9.12528 6.78506 9.40987L6.52612 9.66881C6.73483 10.0468 6.99627 10.3932 7.30259 10.6976C7.68537 11.0968 8.14447 11.4149 8.65262 11.6332C9.16078 11.8515 9.70762 11.9655 10.2607 11.9683C11.3949 11.9309 12.4691 11.4493 13.2516 10.6274L16.6592 7.21979C17.4812 6.43725 17.9627 5.36309 18.0002 4.22882Z" fill="black"/>
</svg>
