<svg width="27" height="26" viewBox="0 0 27 26" fill="none" xmlns="http://www.w3.org/2000/svg">
<path d="M25.5142 13.735C25.3603 13.735 25.2148 13.8109 25.1097 13.916C25.0047 14.021 24.9287 14.1665 24.9287 14.3204V23.9289H2.07086V1.55669H11.8008C11.9547 1.55669 12.1002 1.48076 12.2052 1.3757C12.3103 1.27065 12.3862 1.12514 12.3862 0.971264C12.3862 0.817385 12.3103 0.671876 12.2052 0.566824C12.1002 0.461772 11.9547 0.38584 11.8008 0.38584H1.48543C1.33155 0.38584 1.18604 0.461772 1.08099 0.566824C0.975934 0.671875 0.9 0.817385 0.9 0.971264V24.5143C0.9 24.6682 0.975934 24.8137 1.08099 24.9188C1.18604 25.0238 1.33155 25.0998 1.48543 25.0998H25.5142C25.668 25.0998 25.8135 25.0238 25.9186 24.9188C26.0237 24.8137 26.0996 24.6682 26.0996 24.5143V14.3204C26.0996 14.1665 26.0237 14.021 25.9186 13.916C25.8135 13.8109 25.668 13.735 25.5142 13.735Z" fill="#ED4242" stroke="#ED4242" stroke-width="0.2"/>
<path d="M25.5141 0.144141H17.2618C17.1079 0.144141 16.9624 0.220073 16.8573 0.325125C16.7523 0.430176 16.6763 0.575685 16.6763 0.729565C16.6763 0.883445 16.7523 1.02895 16.8573 1.13401C16.9624 1.23906 17.1079 1.31499 17.2618 1.31499H23.9392L10.1523 15.2216C10.1523 15.2216 10.1523 15.2217 10.1522 15.2217C10.02 15.3539 9.94102 15.4992 9.94102 15.6564C9.94102 15.8136 10.0201 15.9589 10.1523 16.0911C10.303 16.2418 10.4606 16.2418 10.5829 16.2418H10.5871H10.5914C10.7136 16.2418 10.8712 16.2418 11.0219 16.0911L24.9286 2.18455V8.86042C24.9286 9.0143 25.0046 9.15981 25.1096 9.26486C25.2147 9.36991 25.3602 9.44584 25.5141 9.44584C25.6679 9.44584 25.8134 9.36991 25.9185 9.26486C26.0236 9.15981 26.0995 9.0143 26.0995 8.86042V0.729565C26.0995 0.523482 26.0296 0.371683 25.9118 0.273505C25.7972 0.178 25.6503 0.144141 25.5141 0.144141Z" fill="#ED4242" stroke="#ED4242" stroke-width="0.2"/>
</svg>
