<svg viewBox="0 0 315 28" fill="none" xmlns="http://www.w3.org/2000/svg">
<rect x="229.868" width="27.8466" height="4.99811" fill="#ED4242"/>
<rect x="138.17" y="10.7947" width="27.8466" height="4.99811" fill="#ED4242"/>
<rect x="177.031" y="0.0385742" width="20.7064" height="4.99811" fill="#ED4242"/>
<rect x="182.029" y="7.17871" width="19.2784" height="4.99811" transform="rotate(90 182.029 7.17871)" fill="black"/>
<rect x="245.576" y="7.14014" width="19.2784" height="4.99811" transform="rotate(90 245.576 7.14014)" fill="black"/>
<rect x="205.592" y="0.0385742" width="27.1326" height="4.99811" transform="rotate(90 205.592 0.0385742)" fill="black"/>
<rect x="264.141" width="27.1326" height="4.99811" transform="rotate(90 264.141 0)" fill="black"/>
<rect x="227.726" width="27.1326" height="4.99811" transform="rotate(90 227.726 0)" fill="black"/>
<rect x="286.275" width="27.1326" height="4.99811" transform="rotate(90 286.275 0)" fill="black"/>
<path d="M221.3 0.0385742L212.018 27.1712L207.019 27.1712L216.302 0.038574L221.3 0.0385742Z" fill="#ED4242"/>
<path d="M279.849 3.12106e-08L270.567 27.1326L265.569 27.1326L274.851 -2.18474e-07L279.849 3.12106e-08Z" fill="#ED4242"/>
<path d="M308.348 1.96222C306.485 0.772815 304.339 0.0992054 302.13 0.0101425C299.921 -0.0789203 297.727 0.419752 295.774 1.45526C293.821 2.49077 292.177 4.02604 291.011 5.90436C289.844 7.78268 289.198 9.9368 289.136 12.1468L293.843 12.2781C293.881 10.9009 294.284 9.5585 295.011 8.38798C295.738 7.21745 296.762 6.26072 297.979 5.61541C299.197 4.97011 300.563 4.65935 301.94 4.71485C303.317 4.77035 304.654 5.19013 305.815 5.93133L308.348 1.96222Z" fill="#ED4242"/>
<path d="M308.348 25.1704C306.445 26.3853 304.247 27.0616 301.99 27.1273C299.732 27.193 297.499 26.6456 295.528 25.5435C293.557 24.4413 291.921 22.8255 290.795 20.8679C289.669 18.9103 289.095 16.6841 289.133 14.426L293.885 14.5064C293.861 15.9055 294.217 17.285 294.915 18.498C295.613 19.711 296.626 20.7122 297.848 21.3952C299.069 22.0781 300.453 22.4173 301.852 22.3766C303.25 22.3359 304.612 21.9168 305.792 21.164L308.348 25.1704Z" fill="black"/>
<rect width="27.8466" height="4.99811" fill="#ED4242"/>
<rect x="79.9697" width="27.8466" height="4.99811" fill="#ED4242"/>
<rect x="114.956" width="26.4186" height="4.99811" transform="rotate(90 114.956 0)" fill="black"/>
<rect x="37.8428" width="14.9943" height="4.99811" fill="#ED4242"/>
<rect x="37.8428" y="10.7102" width="14.9943" height="4.99811" fill="#ED4242"/>
<rect x="37.8428" y="22.1343" width="14.9943" height="4.99811" fill="#ED4242"/>
<rect x="15.7085" y="7.14014" width="19.2784" height="4.99811" transform="rotate(90 15.7085 7.14014)" fill="black"/>
<rect x="96.3921" y="7.14014" width="19.2784" height="4.99811" transform="rotate(90 96.3921 7.14014)" fill="black"/>
<rect x="35.7007" width="27.1326" height="4.99811" transform="rotate(90 35.7007 0)" fill="black"/>
<path d="M69.9731 3.12106e-08L60.6909 27.1326L55.6928 27.1326L64.975 -2.18474e-07L69.9731 3.12106e-08Z" fill="black"/>
<path d="M117.456 0C118.815 1.45359e-08 120.162 0.240091 121.418 0.706566C122.674 1.17304 123.815 1.85676 124.777 2.71869C125.738 3.58063 126.501 4.60389 127.021 5.73006C127.541 6.85623 127.809 8.06325 127.809 9.2822L124.237 9.2822C124.237 8.48374 124.062 7.69311 123.721 6.95543C123.38 6.21775 122.881 5.54748 122.251 4.98289C121.621 4.4183 120.874 3.97043 120.051 3.66488C119.228 3.35932 118.346 3.20206 117.456 3.20206V0Z" fill="#ED4242"/>
<path d="M117.456 19.9924C118.815 19.9924 120.162 19.7523 121.418 19.2859C122.674 18.8194 123.815 18.1357 124.777 17.2737C125.738 16.4118 126.501 15.3885 127.021 14.2624C127.541 13.1362 127.809 11.9292 127.809 10.7102L124.237 10.7102C124.237 11.5087 124.062 12.2993 123.721 13.037C123.38 13.7747 122.881 14.4449 122.251 15.0095C121.621 15.5741 120.874 16.022 120.051 16.3276C119.228 16.6331 118.346 16.7904 117.456 16.7904V19.9924Z" fill="#ED4242"/>
<path d="M68.5454 9.6391L74.4955 27.1325H79.2556L70.9255 2.85596L68.5454 9.6391Z" fill="#ED4242"/>
<path d="M68.5454 9.99611L74.0989 27.1325H78.5416L70.7668 3.56997L68.5454 9.99611Z" fill="#ED4242"/>
<rect x="64.9756" y="15.7083" width="4.99811" height="2.85606" fill="#ED4242"/>
</svg>
