<svg viewBox="0 0 320 28" fill="none" xmlns="http://www.w3.org/2000/svg">
<rect x="234.17" width="28.3677" height="5.07206" fill="#ED4242"/>
<rect x="140.756" y="10.9543" width="28.3677" height="5.07206" fill="#ED4242"/>
<rect x="180.343" y="0.0390625" width="21.094" height="5.07206" fill="#ED4242"/>
<rect x="185.436" y="7.28491" width="19.5637" height="5.09165" transform="rotate(90 185.436 7.28491)" fill="white"/>
<rect x="250.172" y="7.24561" width="19.5637" height="5.09165" transform="rotate(90 250.172 7.24561)" fill="white"/>
<rect x="209.439" y="0.0390625" width="27.534" height="5.09164" transform="rotate(90 209.439 0.0390625)" fill="white"/>
<rect x="269.084" width="27.534" height="5.09164" transform="rotate(90 269.084 0)" fill="white"/>
<rect x="231.988" width="27.534" height="5.09164" transform="rotate(90 231.988 0)" fill="white"/>
<rect x="291.633" width="27.534" height="5.09164" transform="rotate(90 291.633 0)" fill="white"/>
<path d="M225.441 0.0390625L215.985 27.5731L210.894 27.5731L220.35 0.0390623L225.441 0.0390625Z" fill="#ED4242"/>
<path d="M285.087 3.16724e-08L275.631 27.534L270.54 27.534L279.996 -2.21707e-07L285.087 3.16724e-08Z" fill="#ED4242"/>
<path d="M314.119 1.99125C312.22 0.784249 310.034 0.100673 307.784 0.0102926C305.533 -0.080088 303.299 0.425963 301.309 1.47679C299.319 2.52762 297.645 4.08561 296.457 5.99172C295.269 7.89783 294.61 10.0838 294.547 12.3266L299.342 12.4598C299.381 11.0622 299.791 9.69993 300.532 8.51208C301.272 7.32424 302.316 6.35335 303.556 5.6985C304.796 5.04364 306.188 4.72829 307.59 4.78461C308.993 4.84093 310.355 5.26692 311.538 6.01909L314.119 1.99125Z" fill="#ED4242"/>
<path d="M314.119 25.5432C312.179 26.7761 309.941 27.4624 307.641 27.5291C305.341 27.5957 303.067 27.0403 301.059 25.9218C299.051 24.8033 297.384 23.1636 296.237 21.177C295.09 19.1905 294.505 16.9313 294.544 14.6398L299.385 14.7214C299.36 16.1413 299.723 17.5411 300.434 18.7721C301.145 20.0031 302.177 21.0191 303.422 21.7121C304.666 22.4052 306.075 22.7494 307.5 22.7081C308.925 22.6668 310.312 22.2415 311.514 21.4775L314.119 25.5432Z" fill="white"/>
<rect width="28.3677" height="5.07206" fill="#ED4242"/>
<rect x="81.4663" width="28.3677" height="5.07206" fill="#ED4242"/>
<rect x="117.108" width="26.8095" height="5.09164" transform="rotate(90 117.108 0)" fill="white"/>
<rect x="38.5518" width="15.2749" height="5.07206" fill="#ED4242"/>
<rect x="38.5518" y="10.8687" width="15.2749" height="5.07206" fill="#ED4242"/>
<rect x="38.5518" y="22.4619" width="15.2749" height="5.07206" fill="#ED4242"/>
<rect x="16.0024" y="7.24561" width="19.5637" height="5.09165" transform="rotate(90 16.0024 7.24561)" fill="white"/>
<rect x="98.1963" y="7.24561" width="19.5637" height="5.09165" transform="rotate(90 98.1963 7.24561)" fill="white"/>
<rect x="36.3691" width="27.534" height="5.09164" transform="rotate(90 36.3691 0)" fill="white"/>
<path d="M71.2827 3.16724e-08L61.8268 27.534L56.7352 27.534L66.1911 -2.21707e-07L71.2827 3.16724e-08Z" fill="white"/>
<path d="M119.653 0C121.038 1.4751e-08 122.41 0.243644 123.69 0.71702C124.969 1.1904 126.132 1.88423 127.111 2.75892C128.091 3.6336 128.868 4.67201 129.398 5.81484C129.928 6.95767 130.2 8.18255 130.2 9.41954L126.562 9.41954C126.562 8.60927 126.383 7.80693 126.036 7.05834C125.689 6.30975 125.18 5.62956 124.539 5.05661C123.897 4.48367 123.135 4.02918 122.297 3.7191C121.459 3.40903 120.561 3.24943 119.653 3.24943L119.653 0Z" fill="#ED4242"/>
<path d="M119.653 20.2881C121.038 20.2881 122.41 20.0444 123.69 19.5711C124.969 19.0977 126.132 18.4039 127.111 17.5292C128.091 16.6545 128.868 15.6161 129.398 14.4732C129.928 13.3304 130.2 12.1055 130.2 10.8685L126.562 10.8685C126.562 11.6788 126.383 12.4812 126.036 13.2297C125.689 13.9783 125.18 14.6585 124.539 15.2315C123.897 15.8044 123.135 16.2589 122.297 16.569C121.459 16.8791 120.561 17.0387 119.653 17.0387L119.653 20.2881Z" fill="#ED4242"/>
<path d="M69.8281 9.78146L75.8896 27.5337H80.7388L72.2527 2.89795L69.8281 9.78146Z" fill="#ED4242"/>
<path d="M69.8281 10.1437L75.4855 27.5337H80.0114L72.0911 3.62253L69.8281 10.1437Z" fill="#ED4242"/>
<rect x="66.1919" y="15.9404" width="5.09165" height="2.89832" fill="#ED4242"/>
</svg>
