<svg width="16" height="23" viewBox="0 0 16 23" fill="none" xmlns="http://www.w3.org/2000/svg">
<path d="M7.62977 21L7.21687 21.282L7.62977 21.8866L8.04268 21.282L7.62977 21ZM7.62977 21C8.04268 21.282 8.04273 21.2819 8.0428 21.2818L8.04308 21.2814L8.04408 21.2799L8.04787 21.2744L8.06249 21.2528L8.11877 21.1697C8.1679 21.0968 8.23972 20.9898 8.331 20.8526C8.51355 20.5781 8.77398 20.1823 9.08636 19.6961C9.71084 18.7242 10.5442 17.3889 11.3783 15.9372C12.2114 14.4871 13.0502 12.9125 13.6821 11.4637C14.305 10.0355 14.7598 8.65841 14.7598 7.62998C14.7598 3.69224 11.5675 0.5 7.62977 0.5C3.69201 0.5 0.5 3.69226 0.5 7.62998C0.5 8.65841 0.95472 10.0355 1.5776 11.4637C2.20951 12.9125 3.04823 14.4871 3.88135 15.9372C4.7154 17.3889 5.54876 18.7242 6.17321 19.6961C6.48558 20.1823 6.74601 20.578 6.92855 20.8526C7.01983 20.9898 7.09165 21.0968 7.14078 21.1696L7.19705 21.2528L7.21167 21.2743L7.21546 21.2799L7.21647 21.2814L7.21674 21.2818C7.21682 21.2819 7.21687 21.282 7.62977 21ZM7.63019 10.5245C5.92414 10.5245 4.53541 9.13544 4.53541 7.42973C4.53541 5.72364 5.9241 4.33495 7.63019 4.33495C9.33605 4.33495 10.7248 5.72362 10.7248 7.42973C10.7248 9.13544 9.33582 10.5245 7.63019 10.5245Z" stroke="black"/>
</svg>
