<svg width="50" height="50" viewBox="0 0 50 50" fill="none" xmlns="http://www.w3.org/2000/svg">
<circle cx="25" cy="25" r="24.5" stroke="#ED4242"/>
<path d="M35.4287 25.9024C35.3106 25.9024 35.1972 25.9632 35.1145 26.0492C35.0318 26.1354 34.9742 26.2524 34.9742 26.3732V34.7406H15.8591V15.2702H24.0008C24.1189 15.2702 24.2323 15.2093 24.315 15.1233C24.3977 15.0372 24.4553 14.9201 24.4553 14.7993C24.4553 14.6785 24.3977 14.5614 24.315 14.4753C24.2323 14.3893 24.1189 14.3284 24.0008 14.3284H15.4046C15.2865 14.3284 15.1731 14.3893 15.0905 14.4753C15.0077 14.5614 14.9501 14.6785 14.9501 14.7993V35.2115C14.9501 35.3323 15.0077 35.4494 15.0905 35.5355C15.1731 35.6215 15.2865 35.6824 15.4046 35.6824H35.4287C35.5468 35.6824 35.6602 35.6215 35.7429 35.5355C35.8256 35.4494 35.8832 35.3323 35.8832 35.2115V26.3732C35.8832 26.2524 35.8256 26.1354 35.7429 26.0492C35.6602 25.9632 35.5468 25.9024 35.4287 25.9024Z" fill="#ED4242" stroke="#ED4242" stroke-width="0.1"/>
<path d="M35.4302 14.1167H28.5532C28.4351 14.1167 28.3217 14.1776 28.2391 14.2636C28.1563 14.3497 28.0987 14.4668 28.0987 14.5876C28.0987 14.7084 28.1563 14.8255 28.2391 14.9116C28.3217 14.9976 28.4351 15.0585 28.5532 15.0585H34.201L22.6515 27.1791C22.6515 27.1791 22.6515 27.1791 22.6515 27.1791C22.5449 27.29 22.4859 27.407 22.4859 27.5294C22.4859 27.6518 22.545 27.7688 22.6515 27.8797C22.7085 27.939 22.7672 27.97 22.8267 27.9855C22.8835 28.0003 22.9395 28.0003 22.9885 28.0003H22.991H22.9934C23.0425 28.0003 23.0985 28.0003 23.1553 27.9855C23.2147 27.97 23.2734 27.939 23.3304 27.8797L34.9757 15.764V21.6372C34.9757 21.758 35.0333 21.8751 35.116 21.9612C35.1987 22.0472 35.3121 22.1081 35.4302 22.1081C35.5483 22.1081 35.6617 22.0472 35.7443 21.9612C35.8271 21.8751 35.8847 21.758 35.8847 21.6372V14.5876C35.8847 14.4184 35.83 14.2982 35.741 14.221C35.6534 14.145 35.5392 14.1167 35.4302 14.1167Z" fill="#ED4242" stroke="#ED4242" stroke-width="0.1"/>
</svg>
