<svg width="11" height="18" viewBox="0 0 11 18" fill="none" xmlns="http://www.w3.org/2000/svg">
<path fill-rule="evenodd" clip-rule="evenodd" d="M10.4303 9.456C10.1793 8.951 9.48334 8.53 8.55734 9.26C7.30534 10.246 5.29534 10.246 5.29534 10.246C5.29534 10.246 3.28434 10.246 2.03334 9.26C1.10734 8.531 0.410344 8.951 0.158344 9.456C-0.279656 10.337 0.216344 10.763 1.33334 11.48C2.28934 12.092 3.60134 12.322 4.44834 12.408L3.74034 13.116C2.74534 14.111 1.78234 15.074 1.11634 15.741C0.717344 16.139 0.717344 16.786 1.11634 17.185L1.23634 17.306C1.43434 17.505 1.69434 17.605 1.95734 17.605H1.96034C2.22134 17.605 2.48134 17.504 2.68134 17.306L5.30734 14.68C6.30334 15.676 7.26434 16.638 7.93134 17.306C8.33034 17.704 8.97734 17.704 9.37634 17.306L9.49734 17.185C9.89634 16.786 9.89534 16.139 9.49734 15.741L6.87134 13.115L6.16234 12.406C7.01034 12.318 8.30834 12.089 9.25534 11.48C10.3743 10.763 10.8683 10.337 10.4303 9.456ZM5.29534 2.265C6.50534 2.265 7.48734 3.246 7.48734 4.457C7.48734 5.667 6.50534 6.649 5.29534 6.649C4.08434 6.649 3.10334 5.668 3.10334 4.457C3.10234 3.246 4.08434 2.265 5.29534 2.265ZM5.29534 8.911C7.75634 8.911 9.74934 6.917 9.74934 4.456C9.74934 1.996 7.75634 0 5.29534 0C2.83434 0 0.839344 1.997 0.839344 4.457C0.839344 6.917 2.83434 8.911 5.29534 8.911Z" fill="black"/>
</svg>
