<svg viewBox="0 0 70 80" fill="none" xmlns="http://www.w3.org/2000/svg">
<path d="M17.5 32H17V32.5H17.5V32ZM21 32V32.5H21.5V32H21ZM21 27.58V27.08H20.5V27.58H21ZM17.5 17.7V17.2H17V17.7H17.5ZM21 24.58H20.5V25.08H21V24.58ZM21 20.7V20.2H20.5V20.7H21ZM17.5 32.5H21V31.5H17.5V32.5ZM21.5 32V27.58H20.5V32H21.5ZM21 28.08H23.44V27.08H21V28.08ZM23.44 28.08C24.961 28.08 26.2614 27.5078 27.1788 26.5203C28.0933 25.5359 28.6 24.1691 28.6 22.62H27.6C27.6 23.9509 27.1667 25.0641 26.4462 25.8397C25.7286 26.6122 24.699 27.08 23.44 27.08V28.08ZM28.6 22.62C28.6 21.0706 28.093 19.7126 27.1769 18.7376C26.2582 17.76 24.958 17.2 23.44 17.2V18.2C24.702 18.2 25.7318 18.66 26.4481 19.4224C27.167 20.1874 27.6 21.2894 27.6 22.62H28.6ZM23.44 17.2H17.5V18.2H23.44V17.2ZM17 17.7V32H18V17.7H17ZM21.5 24.58V20.7H20.5V24.58H21.5ZM21 21.2H22.78V20.2H21V21.2ZM22.78 21.2C23.241 21.2 23.5339 21.3503 23.7185 21.5616C23.9117 21.7826 24.04 22.1325 24.04 22.62H25.04C25.04 21.9675 24.8683 21.3574 24.4715 20.9034C24.0661 20.4397 23.479 20.2 22.78 20.2V21.2ZM24.04 22.62C24.04 23.1078 23.9116 23.4681 23.7104 23.6992C23.5183 23.9199 23.2107 24.08 22.72 24.08V25.08C23.4493 25.08 24.0517 24.8301 24.4646 24.3558C24.8684 23.8919 25.04 23.2722 25.04 22.62H24.04ZM22.72 24.08H21V25.08H22.72V24.08ZM30.0781 32H29.5781V32.5H30.0781V32ZM30.0781 17.7V17.2H29.5781V17.7H30.0781ZM33.5781 29H33.0781V29.5H33.5781V29ZM33.5781 20.7V20.2H33.0781V20.7H33.5781ZM30.0781 32.5H35.1581V31.5H30.0781V32.5ZM35.1581 32.5C37.5067 32.5 39.4865 31.7992 40.8821 30.458C42.2803 29.1143 43.0381 27.1795 43.0381 24.82H42.0381C42.0381 26.9605 41.356 28.6157 40.1892 29.737C39.0198 30.8608 37.3096 31.5 35.1581 31.5V32.5ZM43.0381 24.82C43.0381 22.4602 42.28 20.539 40.8799 19.2099C39.4833 17.884 37.5037 17.2 35.1581 17.2V18.2C37.3126 18.2 39.023 18.826 40.1914 19.9351C41.3562 21.0409 42.0381 22.6798 42.0381 24.82H43.0381ZM35.1581 17.2H30.0781V18.2H35.1581V17.2ZM29.5781 17.7V32H30.5781V17.7H29.5781ZM34.0781 29V20.7H33.0781V29H34.0781ZM33.5781 21.2H35.0181V20.2H33.5781V21.2ZM35.0181 21.2C36.0997 21.2 36.9333 21.5189 37.497 22.091C38.0611 22.6634 38.4181 23.5532 38.4181 24.82H39.4181C39.4181 23.3668 39.0051 22.1966 38.2092 21.389C37.413 20.5811 36.2965 20.2 35.0181 20.2V21.2ZM38.4181 24.82C38.4181 26.1031 38.0726 27.0087 37.5144 27.5917C36.9591 28.1719 36.1286 28.5 35.0181 28.5V29.5C36.3276 29.5 37.4472 29.1081 38.2368 28.2833C39.0237 27.4613 39.4181 26.2769 39.4181 24.82H38.4181ZM35.0181 28.5H33.5781V29.5H35.0181V28.5ZM44.8242 32H44.3242V32.5H44.8242V32ZM48.3242 32V32.5H48.8242V32H48.3242ZM48.3242 26.7V26.2H47.8242V26.7H48.3242ZM52.6842 26.7V27.2H53.1842V26.7H52.6842ZM52.6842 23.7H53.1842V23.2H52.6842V23.7ZM48.3242 23.7H47.8242V24.2H48.3242V23.7ZM48.3242 20.7V20.2H47.8242V20.7H48.3242ZM53.5842 20.7V21.2H54.0842V20.7H53.5842ZM53.5842 17.7H54.0842V17.2H53.5842V17.7ZM44.8242 17.7V17.2H44.3242V17.7H44.8242ZM44.8242 32.5H48.3242V31.5H44.8242V32.5ZM48.8242 32V26.7H47.8242V32H48.8242ZM48.3242 27.2H52.6842V26.2H48.3242V27.2ZM53.1842 26.7V23.7H52.1842V26.7H53.1842ZM52.6842 23.2H48.3242V24.2H52.6842V23.2ZM48.8242 23.7V20.7H47.8242V23.7H48.8242ZM48.3242 21.2H53.5842V20.2H48.3242V21.2ZM54.0842 20.7V17.7H53.0842V20.7H54.0842ZM53.5842 17.2H44.8242V18.2H53.5842V17.2ZM44.3242 17.7V32H45.3242V17.7H44.3242Z" fill="black"/>
<path d="M0 80H70V0H0V80ZM1.09375 1.25H68.9062V78.75H1.09375V1.25Z" fill="black"/>
<path d="M52.2266 60.8555H17.7734V62.1055H52.2266V60.8555Z" fill="black"/>
<path d="M52.2266 46.5352H17.7734V47.7852H52.2266V46.5352Z" fill="black"/>
</svg>
