<svg width="29" height="44" viewBox="0 0 29 44" fill="none" xmlns="http://www.w3.org/2000/svg">
<path d="M14.3912 10.543C12.5087 10.543 10.9766 12.0747 10.9766 13.9571C10.9766 15.8396 12.5083 17.3709 14.3912 17.3709C16.2732 17.3709 17.8044 15.84 17.8044 13.9571C17.8044 12.0751 16.2732 10.543 14.3912 10.543Z" fill="#ED4242"/>
<path d="M14.3913 0C6.44304 0 0 6.44349 0 14.3918C0 22.3401 14.3913 43.4142 14.3913 43.4142C14.3913 43.4142 28.7831 22.3401 28.7831 14.3918C28.7831 6.44349 22.3396 0 14.3913 0ZM14.3922 21.7603C10.0894 21.7603 6.58899 18.259 6.58899 13.9571C6.58899 9.65424 10.0894 6.15385 14.3922 6.15385C18.6946 6.15385 22.195 9.65424 22.195 13.9571C22.195 18.259 18.6942 21.7603 14.3922 21.7603Z" fill="#ED4242"/>
</svg>
