<svg width="100" height="89" viewBox="0 0 100 89" fill="none" xmlns="http://www.w3.org/2000/svg">
<path d="M66.6654 0C48.2536 0 33.332 15.0183 33.332 33.5431C33.332 50.1252 45.2998 63.8888 61.0154 66.5894H61.1592V66.618C61.1646 66.618 61.1699 66.6233 61.1699 66.6233V66.6287C61.1646 66.643 61.1628 66.6626 61.1592 66.6752V88.8889C78.8712 79.6971 99.4428 60.5592 99.9987 35.7504L99.9117 35.8201C99.9596 35.0676 99.9987 34.3081 99.9987 33.5449C99.9987 15.0183 85.0736 0 66.6654 0Z" fill="#ED4242"/>
<path d="M66.0087 36.9179L66.1296 36.821C65.0323 60.4986 45.542 78.9004 28.3272 88.0613V66.7474L28.3379 66.7188V66.6287V66.6233V66.4172L28.3272 66.4064V66.0894H27.8272H27.7261C12.269 63.4125 0.5 49.8648 0.5 33.5431C0.5 15.2914 15.2007 0.5 33.3333 0.5C51.4624 0.5 66.1667 15.2914 66.1667 33.5449C66.1667 34.292 66.1284 35.039 66.0806 35.7883L66.0087 36.9179Z" stroke="#ED4242"/>
</svg>
