<svg width="181" height="180" viewBox="0 0 181 180" fill="none" xmlns="http://www.w3.org/2000/svg">
<circle r="45" transform="matrix(4.37114e-08 -1 -1 -4.37114e-08 135.691 44.9996)" fill="#ED4242"/>
<circle r="45" transform="matrix(4.37114e-08 1 1 -4.37114e-08 135.691 135)" fill="white"/>
<mask id="mask0" mask-type="alpha" maskUnits="userSpaceOnUse" x="90" y="90" width="91" height="90">
<circle r="45" transform="matrix(4.37114e-08 1 1 -4.37114e-08 135.691 135)" fill="white"/>
</mask>
<g mask="url(#mask0)">
<rect width="45" height="105.231" transform="matrix(4.37114e-08 1 1 -4.37114e-08 83.7686 135)" fill="black"/>
</g>
<mask id="mask1" mask-type="alpha" maskUnits="userSpaceOnUse" x="-1" y="90" width="91" height="90">
<circle r="45" transform="matrix(4.37114e-08 -1 -1 -4.37114e-08 44.9991 135)" fill="white"/>
</mask>
<g mask="url(#mask1)">
<line y1="-0.5" x2="89.9999" y2="-0.5" transform="matrix(4.37114e-08 -1 -1 -4.37114e-08 33.9222 180)" stroke="#ED4242"/>
<line y1="-0.5" x2="89.9999" y2="-0.5" transform="matrix(4.37114e-08 -1 -1 -4.37114e-08 30.4607 180)" stroke="#ED4242"/>
<line y1="-0.5" x2="89.9999" y2="-0.5" transform="matrix(4.37114e-08 -1 -1 -4.37114e-08 40.8453 180)" stroke="#ED4242"/>
<line y1="-0.5" x2="89.9999" y2="-0.5" transform="matrix(4.37114e-08 -1 -1 -4.37114e-08 37.3838 180)" stroke="#ED4242"/>
<line y1="-0.5" x2="89.9999" y2="-0.5" transform="matrix(4.37114e-08 -1 -1 -4.37114e-08 26.9991 180)" stroke="#ED4242"/>
<line y1="-0.5" x2="89.9999" y2="-0.5" transform="matrix(4.37114e-08 -1 -1 -4.37114e-08 23.5377 180)" stroke="#ED4242"/>
<line y1="-0.5" x2="89.9999" y2="-0.5" transform="matrix(4.37114e-08 -1 -1 -4.37114e-08 20.0762 180)" stroke="#ED4242"/>
<line y1="-0.5" x2="89.9999" y2="-0.5" transform="matrix(4.37114e-08 -1 -1 -4.37114e-08 16.6146 180)" stroke="#ED4242"/>
<line y1="-0.5" x2="89.9999" y2="-0.5" transform="matrix(4.37114e-08 -1 -1 -4.37114e-08 13.1531 180)" stroke="#ED4242"/>
<line y1="-0.5" x2="89.9999" y2="-0.5" transform="matrix(4.37114e-08 -1 -1 -4.37114e-08 9.69153 180)" stroke="#ED4242"/>
<line y1="-0.5" x2="89.9999" y2="-0.5" transform="matrix(4.37114e-08 -1 -1 -4.37114e-08 6.22998 180)" stroke="#ED4242"/>
<line y1="-0.5" x2="89.9999" y2="-0.5" transform="matrix(4.37114e-08 -1 -1 -4.37114e-08 2.76843 180)" stroke="#ED4242"/>
<line y1="-0.5" x2="89.9999" y2="-0.5" transform="matrix(4.37114e-08 -1 -1 -4.37114e-08 -0.693115 180)" stroke="#ED4242"/>
<line y1="-0.5" x2="89.9999" y2="-0.5" transform="matrix(4.37114e-08 -1 -1 -4.37114e-08 82.3838 180)" stroke="#ED4242"/>
<line y1="-0.5" x2="89.9999" y2="-0.5" transform="matrix(4.37114e-08 -1 -1 -4.37114e-08 78.9222 180)" stroke="#ED4242"/>
<line y1="-0.5" x2="89.9999" y2="-0.5" transform="matrix(4.37114e-08 -1 -1 -4.37114e-08 89.3068 180)" stroke="#ED4242"/>
<line y1="-0.5" x2="89.9999" y2="-0.5" transform="matrix(4.37114e-08 -1 -1 -4.37114e-08 85.8453 180)" stroke="#ED4242"/>
<line y1="-0.5" x2="89.9999" y2="-0.5" transform="matrix(4.37114e-08 -1 -1 -4.37114e-08 75.4607 180)" stroke="#ED4242"/>
<line y1="-0.5" x2="89.9999" y2="-0.5" transform="matrix(4.37114e-08 -1 -1 -4.37114e-08 71.9991 180)" stroke="#ED4242"/>
<line y1="-0.5" x2="89.9999" y2="-0.5" transform="matrix(4.37114e-08 -1 -1 -4.37114e-08 68.5376 180)" stroke="#ED4242"/>
<line y1="-0.5" x2="89.9999" y2="-0.5" transform="matrix(4.37114e-08 -1 -1 -4.37114e-08 65.076 180)" stroke="#ED4242"/>
<line y1="-0.5" x2="89.9999" y2="-0.5" transform="matrix(4.37114e-08 -1 -1 -4.37114e-08 61.6145 180)" stroke="#ED4242"/>
<line y1="-0.5" x2="89.9999" y2="-0.5" transform="matrix(4.37114e-08 -1 -1 -4.37114e-08 58.1531 180)" stroke="#ED4242"/>
<line y1="-0.5" x2="89.9999" y2="-0.5" transform="matrix(4.37114e-08 -1 -1 -4.37114e-08 54.6915 180)" stroke="#ED4242"/>
<line y1="-0.5" x2="89.9999" y2="-0.5" transform="matrix(4.37114e-08 -1 -1 -4.37114e-08 51.23 180)" stroke="#ED4242"/>
<line y1="-0.5" x2="89.9999" y2="-0.5" transform="matrix(4.37114e-08 -1 -1 -4.37114e-08 47.7684 180)" stroke="#ED4242"/>
<line y1="-0.5" x2="89.9999" y2="-0.5" transform="matrix(4.37114e-08 -1 -1 -4.37114e-08 44.3069 180)" stroke="#ED4242"/>
</g>
</svg>
