<svg width="260" height="260" viewBox="0 0 260 260" fill="none" xmlns="http://www.w3.org/2000/svg">
<circle cx="195" cy="195" r="65" fill="#ED4242"/>
<circle cx="65.0004" cy="195" r="65" transform="rotate(90 65.0004 195)" fill="white"/>
<mask id="mask0" mask-type="alpha" maskUnits="userSpaceOnUse" x="0" y="130" width="131" height="130">
<circle cx="65.0004" cy="195" r="65" transform="rotate(90 65.0004 195)" fill="white"/>
</mask>
<g mask="url(#mask0)">
<rect x="140" y="195" width="65" height="152" transform="rotate(90 140 195)" fill="black"/>
</g>
<mask id="mask1" mask-type="alpha" maskUnits="userSpaceOnUse" x="0" y="0" width="130" height="130">
<circle cx="65" cy="65" r="65" fill="white"/>
</mask>
<g mask="url(#mask1)">
<line y1="80.5" x2="130" y2="80.5" stroke="#ED4242"/>
<line y1="85.5" x2="130" y2="85.5" stroke="#ED4242"/>
<line y1="70.5" x2="130" y2="70.5" stroke="#ED4242"/>
<line y1="75.5" x2="130" y2="75.5" stroke="#ED4242"/>
<line y1="90.5" x2="130" y2="90.5" stroke="#ED4242"/>
<line y1="95.5" x2="130" y2="95.5" stroke="#ED4242"/>
<line y1="100.5" x2="130" y2="100.5" stroke="#ED4242"/>
<line y1="105.5" x2="130" y2="105.5" stroke="#ED4242"/>
<line y1="110.5" x2="130" y2="110.5" stroke="#ED4242"/>
<line y1="115.5" x2="130" y2="115.5" stroke="#ED4242"/>
<line y1="120.5" x2="130" y2="120.5" stroke="#ED4242"/>
<line y1="125.5" x2="130" y2="125.5" stroke="#ED4242"/>
<line y1="10.5" x2="130" y2="10.5" stroke="#ED4242"/>
<line y1="15.5" x2="130" y2="15.5" stroke="#ED4242"/>
<line y1="0.5" x2="130" y2="0.5" stroke="#ED4242"/>
<line y1="5.5" x2="130" y2="5.5" stroke="#ED4242"/>
<line y1="20.5" x2="130" y2="20.5" stroke="#ED4242"/>
<line y1="25.5" x2="130" y2="25.5" stroke="#ED4242"/>
<line y1="30.5" x2="130" y2="30.5" stroke="#ED4242"/>
<line y1="35.5" x2="130" y2="35.5" stroke="#ED4242"/>
<line y1="40.5" x2="130" y2="40.5" stroke="#ED4242"/>
<line y1="45.5" x2="130" y2="45.5" stroke="#ED4242"/>
<line y1="50.5" x2="130" y2="50.5" stroke="#ED4242"/>
<line y1="55.5" x2="130" y2="55.5" stroke="#ED4242"/>
<line y1="60.5" x2="130" y2="60.5" stroke="#ED4242"/>
<line y1="65.5" x2="130" y2="65.5" stroke="#ED4242"/>
</g>
</svg>
