<svg width="34" height="23" viewBox="0 0 34 23" fill="none" xmlns="http://www.w3.org/2000/svg">
<path d="M33.261 15.661L32.8784 15.5653C31.061 15.2306 29.7219 13.6045 29.7219 11.7393C29.7219 9.87404 31.061 8.24795 32.8784 7.91317L33.261 7.81752L33.261 0.739258L0.739262 0.739256L0.739261 7.43491L1.1697 7.43491C3.32187 7.67404 4.8523 9.63491 4.61317 11.7871C4.42187 13.6045 2.98709 15.0393 1.1697 15.2306L0.739261 15.2306L0.739261 22.7393L33.261 22.7393L33.261 15.661ZM1.69578 21.7827L1.69578 16.1393C3.99144 15.7088 5.66535 13.7001 5.66535 11.3566C5.71318 9.01317 4.03926 6.95665 1.69578 6.57404L1.69578 1.69578L21.7827 1.69578L21.7827 21.7827L1.69578 21.7827ZM22.7393 21.7827L22.7393 1.69578L32.3045 1.69578L32.3045 7.0523C29.7219 7.81752 28.2393 10.4958 28.9567 13.0784C29.4349 14.7045 30.6784 15.948 32.3045 16.4262L32.3045 21.7827L22.7393 21.7827Z" fill="white"/>
<path d="M15.0866 8.86986L15.0866 14.609C15.0866 14.8959 15.2779 15.0873 15.5649 15.0873C15.8518 15.0873 16.0431 14.8959 16.0431 14.609L16.0431 8.86986C16.0431 8.58291 15.8518 8.3916 15.5649 8.3916C15.2779 8.3916 15.0866 8.58291 15.0866 8.86986Z" fill="white"/>
<path d="M10.3047 7.4348L10.3047 15.5652C10.3047 15.8522 10.496 16.0435 10.7829 16.0435C11.0699 16.0435 11.2612 15.8522 11.2612 15.5652L11.2612 7.4348C11.2612 7.14785 11.0699 6.95654 10.7829 6.95654C10.496 6.95654 10.3047 7.14785 10.3047 7.4348Z" fill="white"/>
</svg>
