<svg width="22" height="33" viewBox="0 0 22 33" fill="none" xmlns="http://www.w3.org/2000/svg">
<path d="M14.9217 0L14.8261 0.382609C14.4913 2.2 12.8652 3.53913 11 3.53913C9.13478 3.53913 7.5087 2.2 7.17391 0.382609L7.07826 0L0 0L0 32.5217H6.69565V32.0913C6.93478 29.9391 8.89565 28.4087 11.0478 28.6478C12.8652 28.8391 14.3 30.2739 14.4913 32.0913V32.5217H22L22 0L14.9217 0ZM21.0435 31.5652H15.4C14.9696 29.2696 12.9609 27.5957 10.6174 27.5957C8.27391 27.5478 6.21739 29.2217 5.83478 31.5652H0.956522L0.956522 11.4783L21.0435 11.4783V31.5652ZM21.0435 10.5217L0.956522 10.5217L0.956522 0.956522L6.31304 0.956522C7.07826 3.53913 9.75652 5.02174 12.3391 4.30435C13.9652 3.82609 15.2087 2.58261 15.687 0.956522L21.0435 0.956522V10.5217Z" fill="black"/>
<path d="M8.13043 18.1743H13.8696C14.1565 18.1743 14.3478 17.983 14.3478 17.696C14.3478 17.4091 14.1565 17.2178 13.8696 17.2178H8.13043C7.84348 17.2178 7.65217 17.4091 7.65217 17.696C7.65217 17.983 7.84348 18.1743 8.13043 18.1743Z" fill="black"/>
<path d="M6.69565 22.9563H14.8261C15.113 22.9563 15.3043 22.765 15.3043 22.478C15.3043 22.1911 15.113 21.9998 14.8261 21.9998H6.69565C6.40869 21.9998 6.21739 22.1911 6.21739 22.478C6.21739 22.765 6.40869 22.9563 6.69565 22.9563Z" fill="black"/>
</svg>
