<svg width="22" height="33" viewBox="0 0 22 33" fill="none" xmlns="http://www.w3.org/2000/svg">
<path d="M14.9217 0L14.8261 0.382609C14.4913 2.2 12.8652 3.53913 11 3.53913C9.13478 3.53913 7.5087 2.2 7.17391 0.382609L7.07826 0L0 0L0 32.5217H6.69565V32.0913C6.93478 29.9391 8.89565 28.4087 11.0478 28.6478C12.8652 28.8391 14.3 30.2739 14.4913 32.0913V32.5217H22L22 0L14.9217 0ZM21.0435 31.5652H15.4C14.9696 29.2696 12.9609 27.5957 10.6174 27.5957C8.27391 27.5478 6.21739 29.2217 5.83478 31.5652H0.956522L0.956522 11.4783L21.0435 11.4783V31.5652ZM21.0435 10.5217L0.956522 10.5217L0.956522 0.956522L6.31304 0.956522C7.07826 3.53913 9.75652 5.02174 12.3391 4.30435C13.9652 3.82609 15.2087 2.58261 15.687 0.956522L21.0435 0.956522V10.5217Z" fill="#F54338"/>
<path d="M8.13042 18.1743H13.8696C14.1565 18.1743 14.3478 17.983 14.3478 17.696C14.3478 17.4091 14.1565 17.2178 13.8696 17.2178H8.13042C7.84347 17.2178 7.65216 17.4091 7.65216 17.696C7.65216 17.983 7.84347 18.1743 8.13042 18.1743Z" fill="#F54338"/>
<path d="M6.69567 22.9565H14.8261C15.1131 22.9565 15.3044 22.7652 15.3044 22.4783C15.3044 22.1913 15.1131 22 14.8261 22H6.69567C6.40871 22 6.21741 22.1913 6.21741 22.4783C6.21741 22.7652 6.40871 22.9565 6.69567 22.9565Z" fill="#F54338"/>
</svg>
