<svg width="20" height="17" viewBox="0 0 20 17" fill="none" xmlns="http://www.w3.org/2000/svg">
<path d="M19.82 1.906C19.09 2.23 18.309 2.45 17.483 2.547C18.328 2.044 18.968 1.245 19.275 0.297C18.488 0.762 17.617 1.101 16.688 1.284C15.952 0.493 14.895 0 13.722 0C11.475 0 9.656 1.822 9.656 4.067C9.656 4.384 9.692 4.694 9.762 4.993C6.383 4.823 3.385 3.205 1.381 0.743C1.029 1.345 0.831 2.043 0.831 2.789C0.831 4.198 1.548 5.444 2.64 6.175C1.973 6.152 1.346 5.97 0.798 5.665C0.794 5.682 0.794 5.701 0.794 5.717C0.794 7.687 2.197 9.33 4.058 9.703C3.715 9.797 3.357 9.849 2.986 9.849C2.725 9.849 2.47 9.823 2.222 9.773C2.737 11.389 4.24 12.563 6.019 12.598C4.626 13.687 2.875 14.338 0.97 14.338C0.641 14.338 0.317 14.317 0 14.28C1.799 15.434 3.935 16.108 6.233 16.108C13.709 16.108 17.803 9.91 17.803 4.537C17.803 4.362 17.803 4.184 17.79 4.012C18.584 3.44 19.275 2.723 19.82 1.906Z" fill="black"/>
</svg>
