<svg width="24" height="15" viewBox="0 0 24 15" fill="none" xmlns="http://www.w3.org/2000/svg">
<path d="M24 7.5C24 7.27196 23.8725 7.09459 23.7705 6.89189C21.118 2.50845 16.8332 0 12.0638 0C7.4474 0 2.98406 2.73649 0.204038 7.01858C0.102019 7.17061 0 7.32263 0 7.5C0 7.67736 0.0765143 7.82939 0.204038 7.98142C2.98406 12.2889 7.4729 15 12.0638 15C16.4506 15 20.9394 12.3902 23.745 8.13344C23.898 7.93074 24 7.72804 24 7.5ZM12.0638 13.5557C7.95749 13.5557 4.00425 11.2247 1.45377 7.5C4.00425 3.64865 8.08502 1.31757 12.0638 1.31757C16.2976 1.31757 20.0213 3.5473 22.5462 7.5C19.9958 11.2247 16.0425 13.5557 12.0638 13.5557ZM12.0638 3.16723C9.69182 3.16723 7.70244 5.14358 7.70244 7.5C7.70244 10.0084 9.69182 11.8328 12.0638 11.8328C14.4357 11.8328 16.4251 9.98311 16.4251 7.5C16.4251 5.14358 14.4357 3.16723 12.0638 3.16723ZM12.0638 10.5405C10.3294 10.5405 9.02869 9.09628 9.02869 7.52534C9.02869 5.95439 10.3549 4.51013 12.0638 4.51013C13.6451 4.51013 15.0988 5.8277 15.0988 7.52534C15.0988 9.22297 13.7981 10.5405 12.0638 10.5405Z" fill="black"/>
</svg>
