<svg width="19" height="11" viewBox="0 0 19 11" fill="none" xmlns="http://www.w3.org/2000/svg">
<path d="M18.4073 9.53537C18.3845 9.48632 18.3648 9.44707 18.3441 9.41546C18.0225 8.83771 17.4088 8.12806 16.504 7.28651L16.4844 7.26579L16.4746 7.25707L16.4648 7.24726H16.4561C16.044 6.85483 15.7835 6.59212 15.6745 6.45694C15.475 6.20077 15.4292 5.93915 15.5393 5.67644C15.6156 5.47695 15.9056 5.05726 16.407 4.41411C16.6708 4.074 16.8801 3.80147 17.0338 3.59545C18.1446 2.11837 18.6265 1.17325 18.4782 0.762289L18.4215 0.666361C18.3834 0.608586 18.2831 0.555172 18.1228 0.507207C17.9626 0.459243 17.7566 0.450522 17.5069 0.483225L14.7315 0.502847C14.6868 0.487585 14.6214 0.487586 14.5397 0.507207C14.4557 0.526829 14.4143 0.53664 14.4143 0.53664L14.3653 0.560622L14.3271 0.590054C14.2955 0.608586 14.2595 0.642379 14.2214 0.690343C14.1832 0.738307 14.1505 0.794992 14.1255 0.859308C13.8235 1.63655 13.479 2.35928 13.0942 3.02642C12.8555 3.42539 12.6375 3.77095 12.438 4.06201C12.2385 4.35524 12.0717 4.56999 11.9365 4.70843C11.8025 4.84578 11.6804 4.95806 11.5714 5.03982C11.4613 5.12376 11.3784 5.15864 11.3206 5.14665C11.264 5.13357 11.2084 5.12049 11.1582 5.10741C11.0677 5.04963 10.9958 4.97115 10.9413 4.87195C10.8857 4.77275 10.8497 4.64739 10.8301 4.49586C10.8105 4.34434 10.7996 4.21462 10.7963 4.10561C10.7941 3.9966 10.7952 3.84181 10.8018 3.64341C10.8072 3.44392 10.8116 3.30875 10.8116 3.23898C10.8116 2.9948 10.8159 2.72991 10.8257 2.44431C10.8355 2.1587 10.8443 1.93196 10.8497 1.76518C10.8552 1.59839 10.8595 1.4218 10.8595 1.23539C10.8595 1.05007 10.8475 0.904002 10.8257 0.797172C10.8039 0.691433 10.769 0.588964 10.7244 0.488676C10.6786 0.389477 10.6121 0.31208 10.5249 0.257576C10.4387 0.203071 10.3319 0.159467 10.2033 0.126764C9.86209 0.0493671 9.42932 0.00794371 8.90281 0.00140315C7.70697 -0.011678 6.93954 0.0668087 6.59943 0.232503C6.46535 0.304449 6.34217 0.400378 6.23316 0.522469C6.1187 0.664181 6.10235 0.741578 6.1852 0.753569C6.57109 0.811344 6.84362 0.949786 7.00495 1.1678L7.06273 1.28335C7.10742 1.3662 7.1532 1.51445 7.19681 1.72593C7.24259 1.9385 7.27093 2.17287 7.28401 2.43013C7.31563 2.89888 7.31563 3.30003 7.28401 3.63469C7.2524 3.96826 7.22188 4.22879 7.19245 4.41411C7.1641 4.60051 7.1205 4.75204 7.06273 4.86759C7.00495 4.98314 6.96571 5.05399 6.94718 5.08015C6.92755 5.10523 6.9112 5.12158 6.89921 5.12812C6.81527 5.16082 6.72807 5.17608 6.63868 5.17608C6.54929 5.17608 6.44028 5.13139 6.31165 5.04091C6.18302 4.95043 6.04894 4.82725 5.91158 4.67028C5.77314 4.51331 5.61726 4.29311 5.44393 4.00968C5.26952 3.72735 5.09074 3.39378 4.90434 3.00788L4.74954 2.72882C4.65361 2.54895 4.52171 2.28733 4.35493 1.94286C4.18814 1.59948 4.03989 1.267 3.91126 0.945425C3.86112 0.811344 3.78372 0.708875 3.68016 0.638019L3.63329 0.608586C3.59949 0.583514 3.54826 0.556261 3.47849 0.526829C3.40764 0.498486 3.3346 0.476685 3.25611 0.464694L0.616994 0.483225C0.34665 0.483225 0.163514 0.544271 0.0675859 0.665271L0.0283425 0.724136C0.00981088 0.756839 0 0.808073 0 0.878929C0 0.949785 0.0196218 1.03699 0.0577751 1.13946C0.443669 2.04533 0.862265 2.9185 1.31465 3.76005C1.76813 4.6016 2.16057 5.27964 2.49414 5.79308C2.8288 6.3076 3.16891 6.7916 3.51556 7.24726C3.8633 7.70292 4.09222 7.99616 4.2045 8.12479C4.31787 8.25451 4.40616 8.34935 4.47048 8.41475L4.7103 8.64476C4.86509 8.80065 5.09183 8.98487 5.39052 9.19962C5.68921 9.41437 6.02059 9.62694 6.38251 9.83515C6.74551 10.0434 7.16846 10.2145 7.65029 10.3464C8.13211 10.4783 8.60194 10.5317 9.0576 10.5045H10.1662C10.3919 10.487 10.5608 10.4151 10.6775 10.2941L10.7145 10.2472C10.7396 10.2069 10.7647 10.1491 10.7865 10.0684C10.8083 9.98776 10.8203 9.90055 10.8203 9.80245C10.8137 9.52774 10.8345 9.2792 10.8835 9.05682C10.9315 8.83553 10.986 8.66875 11.0459 8.55538C11.1081 8.4431 11.1757 8.34826 11.2541 8.27086C11.3294 8.19456 11.385 8.14768 11.4166 8.13024C11.4482 8.11498 11.4743 8.10517 11.4929 8.09754C11.6477 8.0463 11.8286 8.09645 12.0379 8.24797C12.2461 8.39949 12.4413 8.58481 12.6255 8.80719C12.8086 9.02848 13.0288 9.27811 13.2839 9.5539C13.5422 9.83079 13.7657 10.0346 13.9587 10.1709L14.1516 10.2854C14.2802 10.3617 14.447 10.4325 14.6531 10.4979C14.858 10.5622 15.039 10.5764 15.1916 10.5448L17.6584 10.5066C17.9037 10.5066 18.0923 10.4663 18.2275 10.3856C18.3626 10.305 18.4411 10.2178 18.4684 10.1218C18.4935 10.0259 18.4945 9.91691 18.4727 9.79373C18.452 9.66945 18.4291 9.58443 18.4073 9.53537Z" fill="white"/>
</svg>
