<svg width="23" height="18" viewBox="0 0 23 18" fill="none" xmlns="http://www.w3.org/2000/svg">
<path d="M21.8851 3.2809C21.7059 1.6751 20.5607 0.4487 18.9466 0.3423C11.9689 -0.1141 10.3225 -0.1141 3.34355 0.3423C1.73075 0.4487 0.58555 1.6737 0.40635 3.2809C-0.13545 8.1697 -0.13545 8.9929 0.40635 13.8817C0.58415 15.4889 1.73075 16.7139 3.34495 16.8203C10.3225 17.2767 11.969 17.2767 18.948 16.8203C20.5607 16.7153 21.7074 15.4889 21.8866 13.8817C22.427 8.9929 22.4269 8.1711 21.8851 3.2809ZM15.819 9.0041L9.78215 12.6427C9.62535 12.7351 9.40695 12.7379 9.24735 12.6483C9.08915 12.5587 8.96035 12.4019 8.96035 12.2185V4.9455C8.96035 4.7621 9.08915 4.6067 9.24735 4.5157C9.40695 4.4261 9.60715 4.4289 9.76395 4.5213L15.8077 8.1599C15.959 8.2509 16.0513 8.4049 16.0513 8.5827C16.0513 8.7605 15.9702 8.9131 15.819 9.0041Z" fill="white"/>
</svg>
