<svg width="23" height="18" viewBox="0 0 23 18" fill="none" xmlns="http://www.w3.org/2000/svg">
<path d="M21.9145 3.61147C21.7353 2.00567 20.5901 0.779266 18.9759 0.672866C11.9983 0.216466 10.3519 0.216466 3.37292 0.672866C1.76012 0.779266 0.614923 2.00427 0.435723 3.61147C-0.106077 8.50027 -0.106077 9.32347 0.435723 14.2123C0.613523 15.8195 1.76012 17.0445 3.37432 17.1509C10.3519 17.6073 11.9983 17.6073 18.9773 17.1509C20.5901 17.0459 21.7367 15.8195 21.9159 14.2123C22.4563 9.32347 22.4563 8.50167 21.9145 3.61147ZM15.8483 9.33467L9.81152 12.9733C9.65472 13.0657 9.43632 13.0685 9.27672 12.9789C9.11852 12.8893 8.98972 12.7325 8.98972 12.5491V5.27607C8.98972 5.09267 9.11852 4.93727 9.27672 4.84627C9.43632 4.75667 9.63652 4.75947 9.79332 4.85187L15.8371 8.49047C15.9883 8.58147 16.0807 8.73547 16.0807 8.91327C16.0807 9.09107 15.9995 9.24367 15.8483 9.33467Z" fill="black"/>
</svg>
