<svg width="100" height="100" viewBox="0 0 100 100" fill="none" xmlns="http://www.w3.org/2000/svg">
<rect x="100" y="100" width="100" height="100" transform="rotate(-180 100 100)" fill="#F5F5F5"/>
<path d="M33.8563 40.9306L33.8563 40.9318L33.856 57.7845C33.856 61.8463 37.16 65.15 41.2215 65.15C45.2829 65.15 48.5866 61.8463 48.5866 57.7845C48.5866 57.0449 48.4751 56.3312 48.2711 55.6574C49.6282 54.7661 51.3783 54.7651 52.7364 55.6539C52.5318 56.3287 52.4197 57.0435 52.4197 57.7845C52.4197 61.8463 55.7234 65.15 59.7849 65.15C63.8463 65.15 67.15 61.8463 67.15 57.7845L67.15 40.9864L67.15 40.9852L67.15 40.9852C67.1301 38.4219 65.5485 36.1588 63.1279 35.1617C63.1279 35.1617 63.1279 35.1617 63.1279 35.1617L62.4639 34.888C62.4637 34.8879 62.4635 34.8878 62.4633 34.8877C62.2139 34.7828 61.9291 34.9048 61.8273 35.1519C61.7252 35.3998 61.8432 35.685 62.0921 35.787L62.092 35.7869L62.1491 35.6482L62.0923 35.7871L33.8563 40.9306ZM33.8563 40.9306C33.8762 38.4212 35.4585 36.1584 37.8785 35.1617L38.542 34.8882C38.5423 34.888 38.5426 34.8879 38.5429 34.8878C38.791 34.7828 39.0769 34.9041 39.179 35.1518L39.179 35.1519C39.2811 35.3998 39.1632 35.685 38.9142 35.787C38.9141 35.787 38.914 35.7871 38.914 35.7871L38.2492 36.0611C36.1858 36.9119 34.847 38.8274 34.8293 40.9866L34.8293 54.1436C36.0981 51.9232 38.4845 50.4197 41.2215 50.4197C44.1952 50.4197 46.7609 52.1914 47.9228 54.733C49.5146 53.7819 51.4925 53.7808 53.0852 54.7298C54.2478 52.1899 56.8124 50.4197 59.7849 50.4197C62.5218 50.4197 64.908 51.9231 66.1767 54.1435L66.1767 40.9376C66.1595 38.8284 64.8214 36.9122 62.7571 36.0611M33.8563 40.9306L62.7571 36.0611M62.7571 36.0611L62.8143 35.9224L62.7571 36.0611L62.7571 36.0611ZM41.2215 51.3931C37.6969 51.3931 34.8293 54.2606 34.8293 57.7845C34.8293 61.3091 37.6969 64.1767 41.2215 64.1767C44.7457 64.1767 47.6133 61.3091 47.6133 57.7845C47.6133 54.2606 44.7457 51.3931 41.2215 51.3931ZM59.7849 51.3931C56.2606 51.3931 53.3931 54.2606 53.3931 57.7845C53.3931 61.3091 56.2606 64.1767 59.7849 64.1767C63.3091 64.1767 66.1767 61.3091 66.1767 57.7845C66.1767 54.2606 63.3091 51.3931 59.7849 51.3931Z" fill="black" stroke="black" stroke-width="0.3"/>
</svg>
