<svg width="22" height="33" fill="none" xmlns="http://www.w3.org/2000/svg"><path d="M14.922 0l-.096.383C14.491 2.2 12.866 3.539 11 3.539 9.135 3.54 7.509 2.2 7.174.383L7.078 0H0v32.522h6.696v-.43c.239-2.153 2.2-3.683 4.352-3.444a3.869 3.869 0 013.443 3.443v.43H22V0h-7.078zm6.122 31.565H15.4a4.87 4.87 0 00-4.783-3.97 4.744 4.744 0 00-4.782 3.97H.957V11.478h20.087v20.087zm0-21.043H.957V.957h5.356a4.911 4.911 0 006.026 3.347A4.908 4.908 0 0015.687.957h5.357v9.565z" fill="#000"/><path d="M8.13 18.174h5.74c.287 0 .478-.191.478-.478s-.191-.478-.478-.478H8.13c-.286 0-.478.191-.478.478s.192.478.479.478zm-1.435 4.782h8.13c.287 0 .479-.19.479-.478 0-.287-.192-.478-.479-.478h-8.13c-.287 0-.478.191-.478.478s.191.478.478.478z" fill="#000"/></svg>