<svg width="35" height="32" fill="none" xmlns="http://www.w3.org/2000/svg"><path d="M.856 6.93v16.854c0 4.062 3.304 7.366 7.365 7.366 4.062 0 7.366-3.304 7.366-7.365 0-.74-.112-1.454-.316-2.128a4.067 4.067 0 014.465-.003 7.33 7.33 0 00-.316 2.13c0 4.062 3.303 7.366 7.365 7.366 4.061 0 7.365-3.304 7.365-7.365V6.986h0c-.02-2.564-1.602-4.827-4.022-5.824 0 0 0 0 0 0l-.664-.274s0 0 0 0a.486.486 0 10-.372.899h0l.057-.139-.057.14L.856 6.93zm0 0c.02-2.509 1.603-4.772 4.022-5.768l.664-.274s0 0 0 0a.486.486 0 01.637.264h0a.486.486 0 01-.265.635l-.665.274c-2.063.85-3.402 2.766-3.42 4.926v13.157a7.361 7.361 0 016.392-3.724 7.374 7.374 0 016.702 4.313 5.032 5.032 0 015.162-.003 7.374 7.374 0 016.7-4.31 7.36 7.36 0 016.392 3.723V6.938c-.017-2.11-1.356-4.026-3.42-4.877m-28.9 4.87l28.9-4.87m0 0l.057-.139-.057.14h0zM8.221 17.393a6.4 6.4 0 00-6.392 6.392 6.4 6.4 0 006.392 6.392 6.4 6.4 0 006.392-6.392 6.4 6.4 0 00-6.392-6.392zm18.564 0a6.4 6.4 0 00-6.392 6.392 6.4 6.4 0 006.392 6.392 6.4 6.4 0 006.392-6.392 6.4 6.4 0 00-6.392-6.392z" fill="#000" stroke="#000" stroke-width=".3"/></svg>