<svg width="35" height="32" fill="none" xmlns="http://www.w3.org/2000/svg"><path d="M26.786 31c-3.979 0-7.215-3.237-7.215-7.216 0-.764.121-1.5.343-2.192a4.218 4.218 0 00-4.818.003c.22.691.342 1.426.342 2.19C15.438 27.762 12.2 31 8.222 31s-7.215-3.237-7.215-7.216V6.932c.02-2.446 1.562-4.657 3.93-5.632l.665-.274a.336.336 0 11.256.622l-.665.274c-2.116.873-3.495 2.84-3.513 5.064V20.76c1.147-2.47 3.645-4.19 6.543-4.19a7.225 7.225 0 016.633 4.381 4.883 4.883 0 015.298-.003 7.225 7.225 0 016.632-4.378c2.898 0 5.395 1.72 6.542 4.19V6.937c-.018-2.174-1.396-4.142-3.513-5.015l-.665-.274a.336.336 0 11.257-.622l.665.274c2.367.975 3.91 3.186 3.929 5.686v16.798c0 3.98-3.236 7.216-7.215 7.216zM8.222 17.243a6.55 6.55 0 00-6.542 6.541 6.55 6.55 0 006.543 6.543 6.55 6.55 0 006.541-6.543 6.55 6.55 0 00-6.541-6.541zm18.564 0a6.55 6.55 0 00-6.542 6.541 6.55 6.55 0 006.542 6.543 6.55 6.55 0 006.542-6.543 6.55 6.55 0 00-6.542-6.541z" fill="#000"/><path fill-rule="evenodd" clip-rule="evenodd" d="M1.007 6.932v16.852A7.223 7.223 0 008.223 31c3.978 0 7.215-3.237 7.215-7.216 0-.763-.122-1.498-.342-2.189a4.218 4.218 0 014.818-.003 7.185 7.185 0 00-.343 2.192c0 3.98 3.236 7.216 7.215 7.216C30.765 31 34 27.763 34 23.784V6.986c-.02-2.5-1.562-4.71-3.93-5.686l-.664-.274a.336.336 0 10-.257.622l.665.274c2.117.873 3.495 2.84 3.513 5.015V20.76a7.21 7.21 0 00-6.542-4.19 7.222 7.222 0 00-6.632 4.378 4.88 4.88 0 00-5.297.003 7.223 7.223 0 00-6.634-4.382A7.21 7.21 0 001.68 20.76V6.986c.018-2.223 1.397-4.191 3.513-5.064l.665-.274a.336.336 0 10-.256-.622l-.665.274c-2.368.975-3.91 3.186-3.93 5.632zm3.815-5.91C2.35 2.043.728 4.357.707 6.93v16.855c0 4.145 3.371 7.516 7.516 7.516 4.144 0 7.515-3.371 7.515-7.516 0-.715-.102-1.406-.29-2.06a3.917 3.917 0 014.114-.004 7.473 7.473 0 00-.291 2.064c0 4.145 3.37 7.516 7.515 7.516 4.144 0 7.515-3.371 7.515-7.516v-16.8c-.02-2.627-1.641-4.942-4.115-5.961L29.522.75a.636.636 0 10-.486 1.177l.665.274c2.012.83 3.31 2.693 3.327 4.738v12.678a7.502 7.502 0 00-6.242-3.346 7.522 7.522 0 00-6.766 4.248 5.18 5.18 0 00-5.03.003 7.523 7.523 0 00-6.768-4.252 7.502 7.502 0 00-6.242 3.347V6.987C1.998 4.892 3.297 3.03 5.307 2.2l.665-.274m-1.15-.903L5.484.75zM1.98 23.784a6.25 6.25 0 016.242-6.241 6.25 6.25 0 016.242 6.241 6.25 6.25 0 01-6.242 6.242 6.25 6.25 0 01-6.242-6.242zm18.564 0a6.25 6.25 0 016.242-6.241 6.25 6.25 0 016.242 6.241 6.25 6.25 0 01-6.242 6.242 6.25 6.25 0 01-6.242-6.242zm-18.864 0a6.55 6.55 0 016.543-6.541 6.55 6.55 0 016.541 6.541 6.55 6.55 0 01-6.541 6.543 6.55 6.55 0 01-6.543-6.543zm18.564 0a6.55 6.55 0 016.542-6.541 6.55 6.55 0 016.542 6.541 6.55 6.55 0 01-6.542 6.543 6.55 6.55 0 01-6.542-6.543z" fill="#000"/></svg>