<svg width="609" height="359" fill="none" xmlns="http://www.w3.org/2000/svg"><path d="M166.759 217.998h1.843v-1.843h-.921v-22.112a.92.92 0 00-.922-.921h-16.584a.92.92 0 00-.921.921v22.112h-.921v1.843h18.426zm-6.449-1.843h-3.685v-14.741h3.685v14.741zm1.843-14.741h3.685v14.741h-3.685v-14.741zm3.685-1.843h-14.741v-4.606h14.741v4.606zm-14.741 1.843h3.685v14.741h-3.685v-14.741zm81.077 16.584h1.843v-1.843h-.922v-22.112a.92.92 0 00-.921-.921H215.59a.919.919 0 00-.921.921v22.112h-.922v1.843h18.427zm-6.449-1.843h-3.686v-14.741h3.686v14.741zm1.842-14.741h3.686v14.741h-3.686v-14.741zm3.686-1.843h-14.742v-4.606h14.742v4.606zm-14.742 1.843h3.686v14.741h-3.686v-14.741zm-97.661 16.584h1.843v-1.843h-.921v-22.112a.925.925 0 00-.922-.921h-16.584a.92.92 0 00-.921.921v22.112h-.921v1.843h18.426zm-6.449-1.843h-3.685v-14.741h3.685v14.741zm1.843-14.741h3.685v14.741h-3.685v-14.741zm3.685-1.843h-14.741v-4.606h14.741v4.606zm-14.741 1.843h3.685v14.741h-3.685v-14.741zm-50.674 16.584h1.843v-1.843h-.921v-22.112a.921.921 0 00-.922-.921H35.93a.92.92 0 00-.92.921v22.112h-.922v1.843h18.426zm-6.449-1.843H42.38v-14.741h3.685v14.741zm1.843-14.741h3.685v14.741h-3.685v-14.741zm3.685-1.843H36.852v-4.606h14.741v4.606zm-14.741 1.843h3.685v14.741h-3.685v-14.741zm129.907 73.707h1.843v-1.843h-.921v-22.112a.923.923 0 00-.922-.921h-16.584a.924.924 0 00-.921.921v22.112h-.921v1.843h18.426zm-6.449-1.843h-3.685v-14.741h3.685v14.741zm1.843-14.741h3.685v14.741h-3.685v-14.741zm3.685-1.843h-14.741v-4.607h14.741v4.607zm-14.741 1.843h3.685v14.741h-3.685v-14.741zm81.077 15.662h1.843v-1.842h-.922v-22.112a.921.921 0 00-.921-.922H215.59a.919.919 0 00-.921.922v22.112h-.922v1.842h18.427zm-6.449-1.842h-3.686v-14.742h3.686v14.742zm1.842-14.742h3.686v14.742h-3.686v-14.742zm3.686-1.842h-14.742v-4.607h14.742v4.607zm-14.742 1.842h3.686v14.742h-3.686v-14.742zm-97.661 17.506h1.843v-1.843h-.921v-22.112a.924.924 0 00-.922-.921h-16.584a.924.924 0 00-.921.921v22.112h-.921v1.843h18.426zm-6.449-1.843h-3.685v-14.741h3.685v14.741zm1.843-14.741h3.685v14.741h-3.685v-14.741zm3.685-1.843h-14.741v-4.607h14.741v4.607zm-14.741 1.843h3.685v14.741h-3.685v-14.741zm-1.843 46.987v22.112h-.921v1.843h20.269v-1.843h-.921v-22.112a.925.925 0 00-.922-.921h-16.584a.92.92 0 00-.921.921zm1.843 7.371h3.685v14.741h-3.685v-14.741zm9.213 14.741h-3.685v-14.741h3.685v14.741zm1.843-14.741h3.685v14.741h-3.685v-14.741zm3.685-1.843h-14.741v-4.606h14.741v4.606zm-63.572 16.584h-.921v-22.112a.921.921 0 00-.922-.921H35.93a.92.92 0 00-.92.921v22.112h-.922v1.843h20.269v-1.843zm-2.764-16.584H36.852v-4.606h14.741v4.606zm-5.528 16.584H42.38v-14.741h3.685v14.741zm-9.213-14.741h3.685v14.741h-3.685v-14.741zm11.056 0h3.685v14.741h-3.685v-14.741zm187.03 14.741h-.921v-22.112a.92.92 0 00-.922-.921h-16.584a.92.92 0 00-.921.921v22.112h-.921v1.843h20.269v-1.843zm-2.764-16.584h-14.741v-4.606h14.741v4.606zm-5.528 16.584h-3.685v-14.741h3.685v14.741zm-9.213-14.741h3.685v14.741h-3.685v-14.741zm11.056 0h3.685v14.741h-3.685v-14.741zm182.423-7.371v22.112h-.921v1.843h20.269v-1.843h-.921v-22.112a.92.92 0 00-.921-.921h-16.584a.921.921 0 00-.922.921zm1.843 7.371h3.685v14.741h-3.685v-14.741zm9.213 14.741h-3.685v-14.741h3.685v14.741zm1.843-14.741h3.685v14.741h-3.685v-14.741zm3.685-1.843h-14.741v-4.606h14.741v4.606zm-56.201 16.584h-.921v-22.112a.92.92 0 00-.922-.921h-16.584a.92.92 0 00-.921.921v22.112h-.921v1.843h20.269v-1.843zm-2.764-16.584H353.79v-4.606h14.741v4.606zm-5.528 16.584h-3.685v-14.741h3.685v14.741zm-9.213-14.741h3.685v14.741h-3.685v-14.741zm11.056 0h3.685v14.741h-3.685v-14.741zM72.784 275.121h2.764a.925.925 0 00.921-.922v-23.033a.924.924 0 00-.921-.921h-2.764a.924.924 0 00-.922.921v23.033a.922.922 0 00.922.922zm.921-16.584h.921v14.741h-.921v-14.741zm.921-1.843h-.921v-4.607h.921v4.607zm93.055-124.38a.919.919 0 00-.922-.921h-16.584a.92.92 0 00-.921.921v22.112h-.921v1.843h20.269v-1.843h-.921v-22.112zm-1.843 5.528h-14.741v-4.606h14.741v4.606zm-5.528 16.584h-3.685v-14.741h3.685v14.741zm-9.213-14.741h3.685v14.741h-3.685v-14.741zm11.056 0h3.685v14.741h-3.685v-14.741zm70.942-7.371a.919.919 0 00-.921-.921H215.59a.919.919 0 00-.921.921v22.112h-.922v1.843h20.27v-1.843h-.922v-22.112zm-1.842 5.528h-14.742v-4.606h14.742v4.606zm-5.528 16.584h-3.686v-14.741h3.686v14.741zm-9.214-14.741h3.686v14.741h-3.686v-14.741zm11.056 0h3.686v14.741h-3.686v-14.741zm141.885 16.584h1.843v-1.843h-.921v-22.112a.919.919 0 00-.922-.921h-16.584a.92.92 0 00-.921.921v22.112h-.921v1.843h18.426zm-6.449-1.843h-3.685v-14.741h3.685v14.741zm1.843-14.741h3.685v14.741h-3.685v-14.741zm3.685-1.843H353.79v-4.606h14.741v4.606zm-14.741 1.843h3.685v14.741h-3.685v-14.741zm-300.354-7.371a.92.92 0 00-.922-.921H35.93a.92.92 0 00-.92.921v22.112h-.922v1.843h20.269v-1.843h-.921v-22.112zm-1.843 5.528H36.852v-4.606h14.741v4.606zm-5.528 16.584H42.38v-14.741h3.685v14.741zm-9.213-14.741h3.685v14.741h-3.685v-14.741zm11.056 0h3.685v14.741h-3.685v-14.741zm5.528-35.011h1.842v-1.842h-.921V80.72a.921.921 0 00-.921-.922H36.852a.922.922 0 00-.922.922v22.112h-.92v1.842h18.426zm-6.45-1.842h-3.685V88.09h3.685v14.742zM48.83 88.09h3.685v14.742H48.83V88.09zm3.685-1.842H37.773V81.64h14.741v4.607zM37.773 88.09h3.685v14.742h-3.685V88.09zm81.999 44.224a.923.923 0 00-.922-.921h-16.584a.92.92 0 00-.921.921v22.112h-.921v1.843h20.269v-1.843h-.921v-22.112zm-1.843 5.528h-14.741v-4.606h14.741v4.606zm-5.528 16.584h-3.685v-14.741h3.685v14.741zm-9.213-14.741h3.685v14.741h-3.685v-14.741zm11.056 0h3.685v14.741h-3.685v-14.741zm-38.696-8.292h-2.764a.92.92 0 00-.922.921v23.033a.922.922 0 00.922.922h2.764a.92.92 0 00.921-.922v-23.033a.92.92 0 00-.921-.921zm-.922 6.449h-.921v-4.606h.921v4.606zm-.921 1.843h.921v14.741h-.921v-14.741zm-.921-35.011h2.764a.92.92 0 00.921-.921V80.72a.921.921 0 00-.921-.922h-2.764a.922.922 0 00-.922.922v23.033a.92.92 0 00.922.921zm.921-16.584h.921v14.742h-.921V88.09zm.921-1.842h-.921V81.64h.921v4.607zM12.897 218.919h2.764a.92.92 0 00.921-.921v-23.033a.922.922 0 00-.92-.922h-2.765a.92.92 0 00-.921.922v23.033a.92.92 0 00.921.921zm.921-16.584h.922v14.742h-.922v-14.742zm.922-1.842h-.922v-4.607h.922v4.607zm58.044 18.426h2.764a.92.92 0 00.921-.921v-23.033a.922.922 0 00-.921-.922h-2.764a.92.92 0 00-.922.922v23.033a.92.92 0 00.922.921zm.921-16.584h.921v14.742h-.921v-14.742zm.921-1.842h-.921v-4.607h.921v4.607zm177.817 74.628h2.764a.925.925 0 00.922-.922v-23.033a.924.924 0 00-.922-.921h-2.764a.924.924 0 00-.921.921v23.033a.921.921 0 00.921.922zm.922-16.584h.921v14.741h-.921v-14.741zm.921-1.843h-.921v-4.607h.921v4.607zm.921-125.301h-2.764a.92.92 0 00-.921.921v23.033a.921.921 0 00.921.922h2.764a.921.921 0 00.922-.922v-23.033a.92.92 0 00-.922-.921zm-.921 6.449h-.921v-4.606h.921v4.606zm-.921 1.843h.921v14.741h-.921v-14.741zm-.922 79.234h2.764a.921.921 0 00.922-.921v-23.033a.925.925 0 00-.922-.922h-2.764a.92.92 0 00-.921.922v23.033a.919.919 0 00.921.921zm.922-16.584h.921v14.742h-.921v-14.742zm.921-1.842h-.921v-4.607h.921v4.607zm339.971 74.628h2.764a.925.925 0 00.922-.922v-23.033a.924.924 0 00-.922-.921h-2.764a.922.922 0 00-.921.921v23.033a.921.921 0 00.921.922zm.922-16.584h.921v14.741h-.921v-14.741zm.921-1.843h-.921v-4.607h.921v4.607zm.921-125.301h-2.764a.919.919 0 00-.921.921v23.033a.921.921 0 00.921.922h2.764a.921.921 0 00.922-.922v-23.033a.92.92 0 00-.922-.921zm-.921 6.449h-.921v-4.606h.921v4.606zm-.921 1.843h.921v14.741h-.921v-14.741zm-.922 78.313h2.764a.921.921 0 00.922-.921v-23.034a.925.925 0 00-.922-.921h-2.764a.919.919 0 00-.921.921v23.034a.92.92 0 00.921.921zm.922-16.584h.921v14.741h-.921v-14.741zm.921-1.843h-.921v-4.606h.921v4.606zm-343.657-95.818h2.764a.921.921 0 00.922-.921V79.798a.925.925 0 00-.922-.921h-2.764a.921.921 0 00-.921.921v23.034a.92.92 0 00.921.921zm.922-16.584h.921v14.741h-.921V87.169zm.921-1.843h-.921V80.72h.921v4.606zm-87.527 19.348h1.843v-1.842h-.921V80.72a.92.92 0 00-.922-.922h-16.584a.922.922 0 00-.921.922v22.112h-.921v1.842h18.426zm-6.449-1.842h-3.685V88.09h3.685v14.742zm1.843-14.742h3.685v14.742h-3.685V88.09zm3.685-1.842h-14.741V81.64h14.741v4.607zm-14.741 1.842h3.685v14.742h-3.685V88.09zm81.077 15.663h1.843v-1.843h-.922V79.798a.92.92 0 00-.921-.921H215.59a.92.92 0 00-.921.921v22.112h-.922v1.843h18.427zm-6.449-1.843h-3.686V87.169h3.686v14.741zm1.842-14.741h3.686v14.741h-3.686V87.169zm3.686-1.843h-14.742V80.72h14.742v4.606zm-14.742 1.843h3.686v14.741h-3.686V87.169zm152.02 16.584h1.843v-1.843h-.922V79.798a.92.92 0 00-.921-.921h-16.584a.92.92 0 00-.921.921v22.112h-.922v1.843h18.427zm-6.449-1.843h-3.686V87.169h3.686v14.741zm1.842-14.741h3.686v14.741h-3.686V87.169zm3.686-1.843h-14.742V80.72h14.742v4.606zm-14.742 1.843h3.686v14.741h-3.686V87.169zM118.85 104.674h1.843v-1.842h-.921V80.72a.925.925 0 00-.922-.922h-16.584a.922.922 0 00-.921.922v22.112h-.921v1.842h18.426zm-6.449-1.842h-3.685V88.09h3.685v14.742zm1.843-14.742h3.685v14.742h-3.685V88.09zm3.685-1.842h-14.741V81.64h14.741v4.607zm-14.741 1.842h3.685v14.742h-3.685V88.09zm89.369 15.663h2.764a.92.92 0 00.921-.921V79.798a.92.92 0 00-.921-.921h-2.764a.922.922 0 00-.922.921v23.034a.92.92 0 00.922.921zm.921-16.584h.921v14.741h-.921V87.169zm.921-1.843h-.921V80.72h.921v4.606zM12.897 275.121h2.764a.925.925 0 00.921-.922v-23.033a.924.924 0 00-.92-.921h-2.765a.924.924 0 00-.921.921v23.033a.922.922 0 00.921.922zm.921-16.584h.922v14.741h-.922v-14.741zm.922-1.843h-.922v-4.607h.922v4.607zm-1.843-100.425h2.764a.92.92 0 00.921-.922v-23.033a.92.92 0 00-.92-.921h-2.765a.92.92 0 00-.921.921v23.033a.922.922 0 00.921.922zm.921-16.584h.922v14.741h-.922v-14.741zm.922-1.843h-.922v-4.606h.922v4.606zm177.817 81.077h2.764a.92.92 0 00.921-.921v-23.033a.921.921 0 00-.921-.922h-2.764a.921.921 0 00-.922.922v23.033a.919.919 0 00.922.921zm.921-16.584h.921v14.742h-.921v-14.742zm.921-1.842h-.921v-4.607h.921v4.607zm-1.842 74.628h2.764a.925.925 0 00.921-.922v-23.033a.923.923 0 00-.921-.921h-2.764a.924.924 0 00-.922.921v23.033a.921.921 0 00.922.922zm.921-16.584h.921v14.741h-.921v-14.741zm.921-1.843h-.921v-4.607h.921v4.607zm.922-125.301h-2.764a.921.921 0 00-.922.921v23.033a.921.921 0 00.922.922h2.764a.92.92 0 00.921-.922v-23.033a.92.92 0 00-.921-.921zm-.922 6.449h-.921v-4.606h.921v4.606zm-.921 1.843h.921v14.741h-.921v-14.741zM15.661 79.798h-2.764a.922.922 0 00-.921.922v23.033a.92.92 0 00.921.921h2.764a.92.92 0 00.921-.921V80.72a.922.922 0 00-.92-.922zm-.921 6.45h-.922V81.64h.922v4.607zm-.922 1.842h.922v14.742h-.922V88.09zm414.6 129.908h1.842v-1.843h-.921v-22.112a.92.92 0 00-.921-.921h-16.584a.921.921 0 00-.922.921v22.112h-.921v1.843h18.427zm-6.45-1.843h-3.685v-14.741h3.685v14.741zm1.843-14.741h3.685v14.741h-3.685v-14.741zm3.685-1.843h-14.741v-4.606h14.741v4.606zm-14.741 1.843h3.685v14.741h-3.685v-14.741zm15.663 73.707h1.842v-1.843h-.921v-22.112a.923.923 0 00-.921-.921h-16.584a.924.924 0 00-.922.921v22.112h-.921v1.843h18.427zm-6.45-1.843h-3.685v-14.741h3.685v14.741zm1.843-14.741h3.685v14.741h-3.685v-14.741zm3.685-1.843h-14.741v-4.607h14.741v4.607zm-14.741 1.843h3.685v14.741h-3.685v-14.741zm16.584-126.223a.919.919 0 00-.921-.921h-16.584a.921.921 0 00-.922.921v22.112h-.921v1.843h20.269v-1.843h-.921v-22.112zm-1.843 5.528h-14.741v-4.606h14.741v4.606zm-5.528 16.584h-3.685v-14.741h3.685v14.741zm-9.213-14.741h3.685v14.741h-3.685v-14.741zm11.056 0h3.685v14.741h-3.685v-14.741zm4.607-35.011h1.842v-1.842h-.921V80.72a.92.92 0 00-.921-.922h-16.584a.922.922 0 00-.922.922v22.112h-.921v1.842h18.427zm-6.45-1.842h-3.685V88.09h3.685v14.742zm1.843-14.742h3.685v14.742h-3.685V88.09zm3.685-1.842h-14.741V81.64h14.741v4.607zm-14.741 1.842h3.685v14.742h-3.685V88.09zm59.886 16.584h1.843v-1.842h-.921V80.72a.92.92 0 00-.922-.922h-16.584a.922.922 0 00-.921.922v22.112h-.921v1.842h18.426zm-6.449-1.842h-3.685V88.09h3.685v14.742zm1.843-14.742h3.685v14.742h-3.685V88.09zm3.685-1.842h-14.741V81.64h14.741v4.607zm-14.741 1.842h3.685v14.742h-3.685V88.09zm41.46 217.434v22.112h-.922v1.843h20.27v-1.843h-.922v-22.112a.92.92 0 00-.921-.921H499.36a.919.919 0 00-.921.921zm1.842 7.371h3.686v14.741h-3.686v-14.741zm9.214 14.741h-3.686v-14.741h3.686v14.741zm1.842-14.741h3.686v14.741h-3.686v-14.741zm3.686-1.843h-14.742v-4.606h14.742v4.606zm0-93.054h1.842v-1.843h-.921v-22.112a.92.92 0 00-.921-.921h-16.584a.921.921 0 00-.922.921v22.112h-.921v1.843h18.427zm-6.45-1.843h-3.685v-14.741h3.685v14.741zm1.843-14.741h3.685v14.741h-3.685v-14.741zm3.685-1.843H499.36v-4.606h14.741v4.606zm-14.741 1.843h3.685v14.741h-3.685v-14.741zm15.663 73.707h1.842v-1.843h-.921v-22.112a.923.923 0 00-.921-.921h-16.584a.924.924 0 00-.922.921v22.112h-.921v1.843h18.427zm-6.45-1.843h-3.685v-14.741h3.685v14.741zm1.843-14.741h3.685v14.741h-3.685v-14.741zm3.685-1.843H499.36v-4.607h14.741v4.607zm-14.741 1.843h3.685v14.741h-3.685v-14.741zm15.663-102.268h1.842v-1.843h-.921v-22.112a.919.919 0 00-.921-.921h-16.584a.921.921 0 00-.922.921v22.112h-.921v1.843h18.427zm-6.45-1.843h-3.685v-14.741h3.685v14.741zm1.843-14.741h3.685v14.741h-3.685v-14.741zm3.685-1.843H499.36v-4.606h14.741v4.606zm-14.741 1.843h3.685v14.741h-3.685v-14.741zm-2.764-35.011h20.269v-1.842h-.921V80.72a.92.92 0 00-.921-.922h-16.584a.922.922 0 00-.922.922v22.112h-.921v1.842zm11.977-1.842h-3.685V88.09h3.685v14.742zm1.843-14.742h3.685v14.742h-3.685V88.09zm3.685-1.842H499.36V81.64h14.741v4.607zM499.36 88.09h3.685v14.742h-3.685V88.09zM369.452 217.998h1.843v-1.843h-.921v-22.112a.92.92 0 00-.922-.921h-16.584a.92.92 0 00-.921.921v22.112h-.921v1.843h18.426zm-6.449-1.843h-3.685v-14.741h3.685v14.741zm1.843-14.741h3.685v14.741h-3.685v-14.741zm3.685-1.843H353.79v-4.606h14.741v4.606zm-14.741 1.843h3.685v14.741h-3.685v-14.741zm15.662 72.785h1.843v-1.842h-.921v-22.112a.921.921 0 00-.922-.922h-16.584a.92.92 0 00-.921.922v22.112h-.921v1.842h18.426zm-6.449-1.842h-3.685v-14.742h3.685v14.742zm1.843-14.742h3.685v14.742h-3.685v-14.742zm3.685-1.842H353.79v-4.607h14.741v4.607zm-14.741 1.842h3.685v14.742h-3.685v-14.742zM52.514 275.121h1.843v-1.843h-.921v-22.112a.924.924 0 00-.922-.921H35.93a.924.924 0 00-.92.921v22.112h-.922v1.843h18.426zm-6.449-1.843H42.38v-14.741h3.685v14.741zm1.843-14.741h3.685v14.741h-3.685v-14.741zm3.685-1.843H36.852v-4.607h14.741v4.607zm-14.741 1.843h3.685v14.741h-3.685v-14.741zm537.136-40.539h1.843v-1.843h-.922v-22.112a.92.92 0 00-.921-.921h-16.584a.923.923 0 00-.921.921v22.112h-.922v1.843h18.427zm-6.449-1.843h-3.686v-14.741h3.686v14.741zm1.842-14.741h3.686v14.741h-3.686v-14.741zm3.686-1.843h-14.742v-4.606h14.742v4.606zm-14.742 1.843h3.686v14.741h-3.686v-14.741zm17.506 126.222h-.922v-22.112a.92.92 0 00-.921-.921h-16.584a.923.923 0 00-.921.921v22.112h-.922v1.843h20.27v-1.843zm-2.764-16.584h-14.742v-4.606h14.742v4.606zm-5.528 16.584h-3.686v-14.741h3.686v14.741zm-9.214-14.741h3.686v14.741h-3.686v-14.741zm11.056 0h3.686v14.741h-3.686v-14.741zm4.607-156.626h1.843v-1.843h-.922v-22.112a.919.919 0 00-.921-.921h-16.584a.923.923 0 00-.921.921v22.112h-.922v1.843h18.427zm-6.449-1.843h-3.686v-14.741h3.686v14.741zm1.842-14.741h3.686v14.741h-3.686v-14.741zm3.686-1.843h-14.742v-4.606h14.742v4.606zm-14.742 1.843h3.686v14.741h-3.686v-14.741zm16.584-35.011h1.843v-1.842h-.921V80.72a.925.925 0 00-.922-.922h-16.584a.922.922 0 00-.921.922v22.112h-.921v1.842h18.426zm-6.449-1.842h-3.685V88.09h3.685v14.742zm1.843-14.742h3.685v14.742h-3.685V88.09zm3.685-1.842h-14.741V81.64h14.741v4.607zm-14.741 1.842h3.685v14.742h-3.685V88.09zm37.774-9.213h-2.764a.92.92 0 00-.921.921v23.034a.92.92 0 00.921.921h2.764a.921.921 0 00.922-.921V79.798a.92.92 0 00-.922-.921zm-.921 6.45h-.921V80.72h.921v4.606zm-.921 1.842h.921v14.741h-.921V87.169zM573.988 275.12h1.843v-1.843h-.922v-22.112a.923.923 0 00-.921-.921h-16.584a.926.926 0 00-.652.269.926.926 0 00-.269.652v22.112h-.922v1.843h18.427zm-6.449-1.843h-3.686v-14.741h3.686v14.741zm1.842-14.741h3.686v14.741h-3.686v-14.741zm3.686-1.843h-14.742v-4.607h14.742v4.607zm-14.742 1.843h3.686v14.741h-3.686v-14.741zm-402.622 49.751h5.528v1.843h-5.528v-1.843z" fill="#000"/><path d="M126.564 297.045c-4.29-1.71-9.674-2.577-16.003-2.577-6.33 0-11.714.867-16.004 2.577a.922.922 0 00-.58.855v11.309a.92.92 0 00.92.921h1.844v25.797a.922.922 0 00.92.922h3.686a.921.921 0 00.922-.922v-2.764h16.584v2.764a.924.924 0 00.921.922h3.685a.921.921 0 00.921-.922V310.13h1.843a.921.921 0 00.921-.921V297.9a.926.926 0 00-.158-.517.927.927 0 00-.422-.338zm-1.262 11.243h-1.843a.923.923 0 00-.921.922v25.797h-1.843v-2.764a.919.919 0 00-.921-.921h-18.427a.92.92 0 00-.921.921v2.764h-1.843V309.21a.922.922 0 00-.921-.922h-1.843v-9.755c3.978-1.474 8.933-2.222 14.742-2.222 5.809 0 10.763.748 14.741 2.222v9.755zm310.829-11.243c-4.289-1.71-9.674-2.577-16.003-2.577-6.33 0-11.714.867-16.004 2.577a.92.92 0 00-.58.855v11.309a.919.919 0 00.921.921h1.843v25.797a.921.921 0 00.921.922h3.686a.92.92 0 00.921-.922v-2.764h16.584v2.764a.921.921 0 00.921.922h3.685a.921.921 0 00.922-.922V310.13h1.842a.921.921 0 00.922-.921V297.9a.917.917 0 00-.581-.855zm-1.262 11.243h-1.843a.925.925 0 00-.921.922v25.797h-1.843v-2.764a.922.922 0 00-.921-.921h-18.426a.921.921 0 00-.922.921v2.764h-1.842V309.21a.925.925 0 00-.922-.922h-1.842v-9.755c3.977-1.474 8.932-2.222 14.741-2.222 5.809 0 10.764.748 14.741 2.222v9.755zm88.789-11.243c-4.29-1.71-9.674-2.577-16.004-2.577-6.329 0-11.713.867-16.003 2.577a.917.917 0 00-.581.855v11.309a.919.919 0 00.922.921h1.842v25.797a.921.921 0 00.922.922h3.685a.919.919 0 00.921-.922v-2.764h16.584v2.764a.921.921 0 00.922.922h3.685a.919.919 0 00.921-.922V310.13h1.843a.919.919 0 00.921-.921V297.9a.919.919 0 00-.58-.855zm-1.262 11.243h-1.843a.924.924 0 00-.921.922v25.797h-1.843v-2.764a.919.919 0 00-.921-.921h-18.427a.919.919 0 00-.921.921v2.764h-1.843V309.21a.921.921 0 00-.921-.922h-1.843v-9.755c3.977-1.474 8.932-2.222 14.741-2.222 5.809 0 10.764.748 14.742 2.222v9.755zM286.535 103.753h1.842v-1.843h-.921V79.798a.92.92 0 00-.921-.921h-12.899a.92.92 0 00-.921.921v22.112h-.921v1.843h14.741zm-5.528-16.584h4.606v14.741h-4.606V87.169zm4.606-1.843h-11.056V80.72h11.056v4.606zm-11.056 1.843h4.607v14.741h-4.607V87.169zm11.978 69.1h1.842v-1.843h-.921v-22.112a.919.919 0 00-.921-.921h-12.899a.919.919 0 00-.921.921v22.112h-.921v1.843h14.741zm-5.528-16.584h4.606v14.741h-4.606v-14.741zm4.606-1.843h-11.056v-4.606h11.056v4.606zm-11.056 1.843h4.607v14.741h-4.607v-14.741zm37.775-35.932h1.843v-1.843h-.922V79.798a.924.924 0 00-.921-.921h-12.899a.921.921 0 00-.921.921v22.112h-.921v1.843h14.741zm-5.528-16.584h4.607v14.741h-4.607V87.169zm4.607-1.843h-11.056V80.72h11.056v4.606zm-11.056 1.843h4.606v14.741h-4.606V87.169z" fill="#000"/><path d="M290.218 126.786h-20.269a.921.921 0 00-.922.922v30.404a.92.92 0 00.922.921h20.269a.919.919 0 00.921-.921v-30.404a.92.92 0 00-.921-.922zm-.921 30.404H270.87v-28.561h18.427v28.561zm23.954-.921h1.843v-1.843h-.921v-22.112a.925.925 0 00-.922-.921h-12.898a.921.921 0 00-.922.921v22.112h-.921v1.843h14.741zm-5.528-16.584h4.607v14.741h-4.607v-14.741zm4.607-1.843h-11.056v-4.606h11.056v4.606zm-11.056 1.843h4.607v14.741h-4.607v-14.741z" fill="#000"/><path d="M316.939 126.786h-20.27a.92.92 0 00-.921.921v30.404a.921.921 0 00.921.922h20.27a.92.92 0 00.921-.922v-30.404a.92.92 0 00-.921-.921zm-.922 30.404h-18.426v-28.561h18.426v28.561zm-29.482 60.808h1.843v-1.843h-.922v-22.112a.92.92 0 00-.921-.921h-12.899a.92.92 0 00-.921.921v22.112h-.921v1.843h14.741zm-5.528-16.584h4.607v14.741h-4.607v-14.741zm4.607-1.843h-11.056v-4.606h11.056v4.606zm-11.056 1.843h4.606v14.741h-4.606v-14.741zm38.695 16.584h1.843v-1.843h-.921v-22.112a.92.92 0 00-.922-.921h-12.898a.921.921 0 00-.921.921v22.112h-.922v1.843h14.741zm-5.528-16.584h4.607v14.741h-4.607v-14.741zm4.607-1.843h-11.056v-4.606h11.056v4.606zm-11.056 1.843h4.607v14.741h-4.607v-14.741zm-14.741 72.785h1.843v-1.843h-.922v-22.112a.92.92 0 00-.921-.921h-12.899a.92.92 0 00-.921.921v22.112h-.921v1.843h14.741zm-5.528-16.584h4.607v14.741h-4.607v-14.741zm4.607-1.843h-11.056v-4.606h11.056v4.606zm-11.056 1.843h4.606v14.741h-4.606v-14.741zm38.695 16.584h1.843v-1.843h-.921v-22.112a.92.92 0 00-.922-.921h-12.898a.921.921 0 00-.921.921v22.112h-.922v1.843h14.741zm-5.528-16.584h4.607v14.741h-4.607v-14.741zm4.607-1.843h-11.056v-4.606h11.056v4.606zm-11.056 1.843h4.607v14.741h-4.607v-14.741zm-28.561 47.909v22.112h-.921v1.843h16.584v-1.843h-.922v-22.112a.92.92 0 00-.921-.921h-12.899a.92.92 0 00-.921.921zm1.843 7.371h4.606v14.741h-4.606v-14.741zm6.449 0h4.607v14.741h-4.607v-14.741zm4.607-1.843h-11.056v-4.606h11.056v4.606zm13.82-5.528v22.112h-.922v1.843h16.584v-1.843h-.921v-22.112a.92.92 0 00-.922-.921h-12.898a.921.921 0 00-.921.921zm1.842 7.371h4.607v14.741h-4.607v-14.741zm6.449 0h4.607v14.741h-4.607v-14.741zm4.607-1.843h-11.056v-4.606h11.056v4.606zm161.233-185.187h-20.269a.921.921 0 00-.921.921v15.663a.924.924 0 00.921.921h20.269a.923.923 0 00.921-.921v-15.663a.92.92 0 00-.921-.921zm-7.371 15.662h-5.528v-13.82h5.528v13.82zm-11.977-13.82h4.607v13.82h-4.607v-13.82zm18.427 13.82h-4.607v-13.82h4.607v13.82zm-11.056 12.899h-8.292a.921.921 0 00-.921.921v30.404a.924.924 0 00.921.922h8.292a.92.92 0 00.921-.922v-30.404a.92.92 0 00-.921-.921zm-.922 10.135h-6.449v-8.292h6.449v8.292zm-6.449 1.842h6.449v18.427h-6.449v-18.427zm19.348-22.112h-20.269a.921.921 0 00-.921.922v7.37a.924.924 0 00.921.922h20.269a.923.923 0 00.921-.922v-7.37a.92.92 0 00-.921-.922zm-.921 7.371h-18.427v-5.528h18.427v5.528zm.921 2.764h-8.292a.919.919 0 00-.921.921v30.404a.921.921 0 00.921.922h8.292a.923.923 0 00.921-.922v-30.404a.92.92 0 00-.921-.921zm-.921 10.135h-6.45v-8.292h6.45v8.292zm-6.45 1.842h6.45v18.427h-6.45v-18.427zM172.29 184.83a.923.923 0 00-.922-.921h-25.797a.922.922 0 00-.921.921v2.764a.919.919 0 00.921.921v31.326c0 1.924 1.37 2.661 2.371 3.198.974.524 1.314.764 1.314 1.408v1.843a.923.923 0 00.922.921h16.584a.92.92 0 00.921-.921v-1.843c0-.741.504-1.162 1.395-1.841 1.02-.778 2.29-1.746 2.29-3.687v-30.404a.921.921 0 00.922-.921v-2.764zm-25.798.921h23.955v.922h-23.955v-.922zm23.034 33.168c0 .979-.595 1.482-1.566 2.222-.945.72-2.12 1.617-2.12 3.306v.922h-14.741v-.922c0-1.803-1.321-2.513-2.285-3.031-1.016-.546-1.4-.824-1.4-1.575v-31.326h22.112v30.404zm67.257-35.01h-25.797a.924.924 0 00-.922.921v2.764a.919.919 0 00.922.921v31.326c0 1.924 1.37 2.661 2.37 3.198.974.524 1.315.764 1.315 1.408v1.843a.919.919 0 00.921.921h16.584a.921.921 0 00.922-.921v-1.843c0-.741.504-1.162 1.395-1.841 1.019-.778 2.29-1.746 2.29-3.687v-30.404a.919.919 0 00.921-.921v-2.764a.923.923 0 00-.921-.921zm-24.876 1.842h23.955v.922h-23.955v-.922zm23.033 33.168c0 .979-.595 1.482-1.565 2.222-.945.72-2.12 1.617-2.12 3.306v.922h-14.741v-.922c0-1.803-1.321-2.513-2.285-3.031-1.016-.546-1.401-.824-1.401-1.575v-31.326h22.112v30.404zm139.121-35.01h-25.797a.922.922 0 00-.921.921v2.764a.919.919 0 00.921.921v31.326c0 1.924 1.37 2.661 2.371 3.198.973.524 1.314.764 1.314 1.408v1.843a.919.919 0 00.922.921h16.584a.92.92 0 00.921-.921v-1.843c0-.741.504-1.162 1.395-1.841 1.02-.778 2.29-1.746 2.29-3.687v-30.404a.921.921 0 00.922-.921v-2.764a.923.923 0 00-.922-.921zm-24.876 1.842h23.955v.922h-23.955v-.922zm23.034 33.168c0 .979-.595 1.482-1.566 2.222-.944.72-2.12 1.617-2.12 3.306v.922h-14.741v-.922c0-1.803-1.321-2.513-2.285-3.031-1.016-.546-1.4-.824-1.4-1.575v-31.326h22.112v30.404zm-248.76-35.01H97.662a.924.924 0 00-.921.921v2.764a.92.92 0 00.92.921v31.326c0 1.924 1.371 2.661 2.372 3.198.973.524 1.314.764 1.314 1.408v1.843a.919.919 0 00.922.921h16.584a.92.92 0 00.921-.921v-1.843c0-.741.504-1.162 1.395-1.841 1.02-.778 2.29-1.746 2.29-3.687v-30.404a.921.921 0 00.922-.921v-2.764a.924.924 0 00-.922-.921zm-24.876 1.842h23.955v.922H98.583v-.922zm23.034 33.168c0 .979-.596 1.482-1.566 2.222-.945.72-2.12 1.617-2.12 3.306v.922H103.19v-.922c0-1.803-1.321-2.513-2.285-3.031-1.016-.546-1.4-.824-1.4-1.575v-31.326h22.112v30.404zm-90.29-30.404v31.326c0 1.924 1.37 2.661 2.37 3.198.973.524 1.314.764 1.314 1.408v1.843a.92.92 0 00.922.921h16.584a.92.92 0 00.921-.921v-1.843c0-.741.504-1.162 1.395-1.841 1.02-.778 2.29-1.746 2.29-3.687v-30.404a.92.92 0 00.922-.921v-2.764a.924.924 0 00-.922-.921H31.326a.924.924 0 00-.921.921v2.764a.92.92 0 00.921.921zm23.954 30.404c0 .979-.596 1.482-1.566 2.222-.944.72-2.12 1.617-2.12 3.306v.922h-14.74v-.922c0-1.803-1.322-2.513-2.286-3.031-1.016-.546-1.4-.824-1.4-1.575v-31.326H55.28v30.404zm-23.034-33.168h23.955v.922H32.247v-.922zm113.324-26.718h25.797a.921.921 0 00.922-.922v-30.404a.92.92 0 00-.922-.921h-25.797a.919.919 0 00-.921.921v30.404a.921.921 0 00.921.922zm.921-30.404h23.955v28.561h-23.955v-28.561zm286.535 55.28h-25.798a.924.924 0 00-.921.921v2.764a.919.919 0 00.921.921v31.326c0 1.924 1.37 2.661 2.371 3.198.974.524 1.315.764 1.315 1.408v1.843a.922.922 0 00.921.921h16.584a.919.919 0 00.921-.921v-1.843c0-.741.504-1.162 1.395-1.841 1.02-.778 2.291-1.746 2.291-3.687v-30.404a.92.92 0 00.921-.921v-2.764a.923.923 0 00-.921-.921zm-24.876 1.842h23.954v.922h-23.954v-.922zm23.033 33.168c0 .979-.595 1.482-1.565 2.222-.945.72-2.12 1.617-2.12 3.306v.922h-14.742v-.922c0-1.803-1.321-2.513-2.285-3.031-1.016-.546-1.4-.824-1.4-1.575v-31.326h22.112v30.404zm-23.955-59.886h25.798a.92.92 0 00.921-.922v-30.404a.92.92 0 00-.921-.921h-25.798a.92.92 0 00-.921.921v30.404a.921.921 0 00.921.922zm.922-30.404h23.954v28.561h-23.954v-28.561zm-197.165 30.404h25.797a.919.919 0 00.921-.922v-30.404a.92.92 0 00-.921-.921h-25.797a.921.921 0 00-.922.921v30.404a.921.921 0 00.922.922zm.921-30.404h23.955v28.561h-23.955v-28.561zm162.154-1.843h-25.797a.919.919 0 00-.921.921v30.404a.921.921 0 00.921.922h25.797a.921.921 0 00.922-.922v-30.404a.92.92 0 00-.922-.921zm-.921 30.404h-23.955v-28.561h23.955v28.561zm-341.814 1.843h25.797a.92.92 0 00.922-.922v-30.404a.921.921 0 00-.922-.921H31.326a.92.92 0 00-.921.921v30.404a.922.922 0 00.921.922zm.921-30.404h23.955v28.561H32.247v-28.561zm65.415 30.404h25.797a.921.921 0 00.922-.922v-30.404a.925.925 0 00-.922-.921H97.662a.92.92 0 00-.921.921v30.404a.922.922 0 00.92.922zm.921-30.404h23.955v28.561H98.583v-28.561zm-80.156-1.843h-8.291a.92.92 0 00-.922.921v30.404a.922.922 0 00.921.922h8.292a.92.92 0 00.922-.922v-30.404a.921.921 0 00-.922-.921zm-.92 30.404h-6.45v-28.561h6.45v28.561zm52.515 1.843h8.292a.92.92 0 00.921-.922v-30.404a.921.921 0 00-.921-.921h-8.292a.92.92 0 00-.921.921v30.404a.922.922 0 00.921.922zm.921-30.404h6.45v28.561h-6.45v-28.561zm448.689 55.28h-25.798a.924.924 0 00-.921.921v2.764a.919.919 0 00.921.921v31.326c0 1.924 1.37 2.661 2.371 3.198.974.524 1.315.764 1.315 1.408v1.843a.919.919 0 00.921.921h16.584a.919.919 0 00.921-.921v-1.843c0-.741.504-1.162 1.395-1.841 1.02-.778 2.291-1.746 2.291-3.687v-30.404a.92.92 0 00.921-.921v-2.764a.923.923 0 00-.921-.921zm-24.876 1.842h23.954v.922h-23.954v-.922zm23.033 33.168c0 .979-.595 1.482-1.565 2.222-.945.72-2.12 1.617-2.12 3.306v.922h-14.742v-.922c0-1.803-1.321-2.513-2.284-3.031-1.017-.546-1.401-.824-1.401-1.575v-31.326h22.112v30.404zm1.843-92.133h-25.798a.92.92 0 00-.921.921v30.404a.921.921 0 00.921.922h25.798a.92.92 0 00.921-.922v-30.404a.92.92 0 00-.921-.921zm-.922 30.404h-23.954v-28.561h23.954v28.561zM9.214 220.762c0 1.89.673 6.395.701 6.586a.92.92 0 00.912.785h6.91a.922.922 0 00.91-.785c.03-.191.702-4.697.702-6.586v-32.247a.92.92 0 00.921-.921v-2.764a.924.924 0 00-.921-.921H8.293a.924.924 0 00-.922.921v2.764a.92.92 0 00.922.921h.921v32.247zm8.292 0c0 1.306-.374 4.147-.568 5.528h-5.314c-.193-1.38-.567-4.221-.567-5.528v-32.247h6.45v32.247zm-8.292-35.011h9.213v.922H9.214v-.922zm180.581-26.718h8.292a.923.923 0 00.921-.922v-30.404a.924.924 0 00-.921-.921h-8.292a.919.919 0 00-.921.921v30.404a.921.921 0 00.921.922zm.921-30.404h6.45v28.561h-6.45v-28.561zm9.214 56.201c0-.51-.52-.921-1.029-.921h-11.056c-.51 0-.814.411-.814.921v2.764c0 .509.304.921.814.921h1.029v32.247c0 1.906.677 5.544.707 5.698a.921.921 0 00.905.751h6.91a.92.92 0 00.905-.751c.03-.154.707-3.791.707-5.698v-32.269c.456-.055.922-.428.922-.899v-2.764zm-11.056.921h9.213v.922h-9.213v-.922zm8.292 35.011c0 1.247-.346 3.452-.543 4.607h-5.364c-.197-1.154-.543-3.359-.543-4.607v-32.247h6.45v32.247zM69.101 188.515v32.247c0 1.906.678 5.544.706 5.698a.922.922 0 00.906.751h6.91a.921.921 0 00.905-.751c.03-.154.707-3.791.707-5.698v-32.247h.922a.92.92 0 00.921-.921v-2.764a.924.924 0 00-.921-.921H69.1a.924.924 0 00-.922.921v2.764a.92.92 0 00.922.921zm8.292 32.247c0 1.247-.346 3.452-.543 4.607h-5.364c-.197-1.154-.543-3.359-.543-4.607v-32.247h6.45v32.247zm-7.371-35.011h9.213v.922h-9.213v-.922zm179.66-26.718h8.292a.92.92 0 00.921-.922v-30.404a.92.92 0 00-.921-.921h-8.292a.921.921 0 00-.922.921v30.404a.921.921 0 00.922.922zm.921-30.404h6.449v28.561h-6.449v-28.561zm9.213 55.28H248.76a.924.924 0 00-.921.921v2.764a.919.919 0 00.921.921v32.247c0 1.906.677 5.544.708 5.698a.915.915 0 00.905.751h6.91a.918.918 0 00.904-.751c.031-.154.708-3.791.708-5.698v-32.247h.921a.921.921 0 00.922-.921v-2.764a.923.923 0 00-.922-.921zm-2.764 36.853c0 1.247-.345 3.452-.542 4.607h-5.364c-.198-1.154-.543-3.359-.543-4.607v-32.247h6.449v32.247zm1.843-34.089h-9.213v-.922h9.213v.922zm332.601-27.64h8.292a.92.92 0 00.921-.922v-30.404a.92.92 0 00-.921-.921h-8.292a.921.921 0 00-.922.921v30.404a.921.921 0 00.922.922zm.921-30.404h6.449v28.561h-6.449v-28.561zm-1.843 59.886v32.247c0 1.878.67 7.257.699 7.485a.919.919 0 00.914.807h6.909a.919.919 0 00.914-.807c.029-.228.699-5.607.699-7.485v-32.247h.921a.921.921 0 00.922-.921v-2.764a.924.924 0 00-.922-.921h-11.056a.922.922 0 00-.921.921v2.764a.919.919 0 00.921.921zm8.292 32.247c0 1.351-.397 4.857-.587 6.449h-5.276c-.19-1.592-.587-5.098-.587-6.449v-32.247h6.449v32.247h.001zm-7.37-35.011h9.213v.922h-9.213v-.922zm-12.899-1.842H552.8a.924.924 0 00-.922.921v2.764a.919.919 0 00.922.921v31.326c0 1.924 1.37 2.661 2.37 3.198.974.524 1.315.764 1.315 1.408v1.843a.919.919 0 00.921.921h16.584a.921.921 0 00.922-.921v-1.843c0-.741.504-1.162 1.394-1.841 1.02-.778 2.291-1.746 2.291-3.687v-30.404a.919.919 0 00.921-.921v-2.764a.923.923 0 00-.921-.921zm-24.876 1.842h23.955v.922h-23.955v-.922zm23.033 33.168c0 .979-.595 1.482-1.565 2.222-.944.72-2.12 1.617-2.12 3.306v.922h-14.741v-.922c0-1.803-1.322-2.513-2.285-3.031-1.017-.546-1.401-.824-1.401-1.575v-31.326h22.112v30.404zm1.843-92.133H552.8a.921.921 0 00-.922.921v30.404a.921.921 0 00.922.922h25.797a.919.919 0 00.921-.922v-30.404a.92.92 0 00-.921-.921zm-.921 30.404h-23.955v-28.561h23.955v28.561z" fill="#000"/><path d="M291.143 183.909h-22.112a.921.921 0 00-.922.921v2.764a.923.923 0 00.922.921v30.404c0 1.822 1.24 2.797 2.237 3.582.897.708 1.448 1.18 1.448 1.946v1.843a.919.919 0 00.921.921h12.899a.919.919 0 00.921-.921v-1.843c0-.855.691-1.555 1.492-2.365 1.028-1.041 2.194-2.221 2.194-4.084v-29.483a.924.924 0 00.921-.921v-2.764a.919.919 0 00-.921-.921zm-21.191 1.842h20.269v.922h-20.269v-.922zm19.348 32.247c0 1.106-.77 1.886-1.663 2.789-.947.961-2.022 2.049-2.022 3.66v.922h-11.056v-.922c0-1.7-1.193-2.638-2.152-3.394-.95-.748-1.534-1.252-1.534-2.134v-30.404H289.3v29.483zm29.483-33.168a.919.919 0 00-.922-.921h-22.112a.92.92 0 00-.921.921v2.764a.923.923 0 00.921.921v30.404c0 1.822 1.24 2.797 2.237 3.582.899.708 1.449 1.18 1.449 1.946v1.843a.919.919 0 00.921.921h12.899a.92.92 0 00.921-.921v-1.843c0-.855.691-1.555 1.492-2.365 1.028-1.041 2.193-2.221 2.193-4.084v-29.483a.924.924 0 00.922-.921v-2.764zm-22.112.921h20.269v.922h-20.269v-.922zm19.348 32.247c0 1.106-.771 1.886-1.663 2.789-.948.961-2.023 2.049-2.023 3.66v.922h-11.056v-.922c0-1.7-1.193-2.638-2.151-3.394-.951-.748-1.534-1.252-1.534-2.134v-30.404h18.427v29.483zm134.514-26.719h25.797a.924.924 0 00.922-.921v-66.336a.919.919 0 00-.922-.921h-25.797a.919.919 0 00-.921.921v66.336a.923.923 0 00.921.921zm.921-66.336h23.955v64.494h-23.955v-64.494zm1.843 165.84h8.292a.919.919 0 00.921-.921v-28.561a.921.921 0 00-.921-.922h-8.292a.919.919 0 00-.921.922v28.561a.919.919 0 00.921.921zm.921-20.269h6.45v18.426h-6.45v-18.426zm6.45-1.843h-6.45v-6.449h6.45v6.449zm4.606 22.112h8.292a.921.921 0 00.922-.921v-28.561a.921.921 0 00-.922-.922h-8.292a.92.92 0 00-.921.922v28.561a.919.919 0 00.921.921zm.922-20.269h6.449v18.426h-6.449v-18.426zm6.449-1.843h-6.449v-6.449h6.449v6.449zm4.607-23.033v-35.011a.92.92 0 00-.922-.921h-7.37v-1.843a.92.92 0 00-.922-.921h-10.134a.921.921 0 00-.922.921v1.843h-6.449a.919.919 0 00-.921.921v35.011a.919.919 0 00.921.921h25.797a.921.921 0 00.922-.921zm-1.843-.921h-23.955v-33.168h6.45a.92.92 0 00.921-.922v-1.842h8.292v1.842a.921.921 0 00.921.922h7.371v33.168z" fill="#000"/><path d="M461.588 213.392h-8.292a.924.924 0 00-.922.921v28.561a.925.925 0 00.922.922h8.292a.925.925 0 00.921-.922v-28.561a.923.923 0 00-.921-.921zm-.922 8.292h-6.449v-6.45h6.449v6.45zm-6.449 1.842h6.449v18.427h-6.449v-18.427zm10.135-9.213v28.561a.921.921 0 00.921.922h8.292a.924.924 0 00.921-.922v-28.561a.926.926 0 00-.269-.652.926.926 0 00-.652-.269h-8.292a.922.922 0 00-.921.921zm1.842 9.213h6.45v18.427h-6.45v-18.427zm6.45-1.842h-6.45v-6.45h6.45v6.45zm-180.28 76.433c-3.606-1.25-7.251-1.807-11.818-1.807-5.04 0-9.223.711-12.787 2.17a.929.929 0 00-.572.853v8.033a.921.921 0 00.921.922h.921v27.64a.925.925 0 00.922.921h4.606a.921.921 0 00.922-.921v-2.764h9.213v2.764a.92.92 0 00.921.921h4.607a.923.923 0 00.921-.921v-27.64h.922a.92.92 0 00.921-.922v-8.378a.923.923 0 00-.62-.871zm-1.223 8.329h-.921a.919.919 0 00-.921.921v27.64h-2.764v-2.764a.92.92 0 00-.922-.921h-11.056a.92.92 0 00-.921.921v2.764h-2.764v-27.64a.92.92 0 00-.921-.921h-.922v-6.484c3.216-1.215 6.992-1.808 11.517-1.808 4.089 0 7.389.464 10.595 1.498v6.794zm27.942-8.329c-3.606-1.25-7.251-1.807-11.818-1.807-5.041 0-9.224.711-12.787 2.17a.92.92 0 00-.573.853v8.033a.925.925 0 00.922.922h.921v27.64a.92.92 0 00.921.921h4.607a.923.923 0 00.921-.921v-2.764h9.214v2.764a.92.92 0 00.921.921h4.607a.92.92 0 00.921-.921v-27.64h.921a.921.921 0 00.922-.922v-8.378a.923.923 0 00-.62-.871zm-1.223 8.329h-.921a.921.921 0 00-.922.921v27.64h-2.764v-2.764a.924.924 0 00-.921-.921h-11.056a.919.919 0 00-.921.921v2.764h-2.764v-27.64a.92.92 0 00-.922-.921h-.921v-6.484c3.216-1.215 6.992-1.808 11.517-1.808 4.089 0 7.389.464 10.595 1.498v6.794z" fill="#000"/><path d="M608.079 56.765h-4.607V44.788a.924.924 0 00.921-.922V42.11a1.931 1.931 0 00-1.929-1.929h-7.197a1.933 1.933 0 00-1.93 1.93v1.755a.92.92 0 00.922.922v5.528h-8.292v-5.528a.921.921 0 00.921-.922V42.11a1.928 1.928 0 00-1.929-1.929h-7.198a1.933 1.933 0 00-1.929 1.93v1.755a.92.92 0 00.921.922v1.39l-34.66-14.22a.914.914 0 00-.35-.069h-380.51v-5.528a.91.91 0 00-.759-.889L134.22 1.159a.925.925 0 00-1.253 0l-26.332 24.328a.908.908 0 00-.682.873v5.528H13.82v-4.607a.921.921 0 00.921-.92v-2.765a.921.921 0 00-.921-.921H4.607a.921.921 0 00-.922.921v2.764a.921.921 0 00.922.922v13.19c-.55.34-.922.944-.922 1.637v1.756a.921.921 0 00.922.922v11.977H.92a.922.922 0 00-.921.921v2.767c0 .109.027.215.064.316.012.033.03.063.045.094.016.032.026.067.046.098l3.685 5.529c.171.256.459.41.767.41v46.066h-.922a.92.92 0 00-.921.922v2.764a.921.921 0 00.921.921h.307l.615 1.843v48.83h-.922a.92.92 0 00-.921.922v2.763a.908.908 0 00.1.4.904.904 0 00.143.213c.015.016.025.033.04.048.067.065.14.121.226.164l.825.412.51 1.527V282.49h-.922a.92.92 0 00-.921.922v2.764a.914.914 0 00.091.387c.004.007.002.018.006.024l1.746 3.491v67.961h440.396v-1.842H176.896v-5.528h268.107v-1.843H176.896v-40.538h2.764a.925.925 0 00.921-.922v-4.606a.921.921 0 00-.921-.922h-6.45c-.768 0-2.297-.592-3.78-1.166-2.901-1.123-6.512-2.519-10.961-2.519-4.449 0-8.06 1.397-10.967 2.521-1.477.572-3.006 1.164-3.774 1.164h-6.45a.92.92 0 00-.921.922v4.606a.921.921 0 00.921.922h2.764v40.538H6.449v-58.965a.923.923 0 00-.096-.412l-.256-.509h.209l21.334 6.827v10.678a.92.92 0 00.921.921h1.843v28.561a.922.922 0 00.921.922h3.686a.92.92 0 00.92-.922v-2.764h16.585v2.764a.922.922 0 00.921.922h3.686a.92.92 0 00.92-.922v-28.561h1.843a.92.92 0 00.922-.921v-10.384l22.254-7.121H184.08l.341.511.441-.294 23.359 6.921v10.368a.92.92 0 00.921.921h1.843v28.561a.921.921 0 00.921.922h3.686a.92.92 0 00.921-.922v-2.764h16.584v2.764a.921.921 0 00.921.922h3.685a.921.921 0 00.922-.922v-28.561h1.842a.921.921 0 00.922-.921v-10.135a.912.912 0 00.302-.051l21.043-7.32h61.238l20.606 7.105v8.557a.921.921 0 00.921.922h1.843v30.403a.921.921 0 00.921.922h3.686a.92.92 0 00.921-.922v-2.764h16.584v2.764a.921.921 0 00.921.922h3.686a.92.92 0 00.921-.922v-30.403h1.842a.925.925 0 00.922-.922v-8.292a.912.912 0 00.302-.051l21.043-7.319h50.519v4.606a.921.921 0 00.921.922h25.797a.925.925 0 00.922-.922v-4.606h48.696l1.085.321.126.19.159-.105 21.798 6.459v10.641a.92.92 0 00.922.921h.921v28.561a.921.921 0 00.921.922h4.607a.923.923 0 00.921-.922v-2.764h16.584v2.764a.921.921 0 00.922.922h4.606a.921.921 0 00.922-.922v-28.561h.921a.919.919 0 00.921-.921v-8.892l1.006-1.257c.074-.007.148-.013.218-.037l20.166-7.014-.101.205a.92.92 0 00-.097.412v58.965H481.856v1.843h121.616v5.528H481.856v1.842h123.459V290.08l.569-1.139h.352v-.703l.825-1.649c.003-.007.001-.018.005-.025a.892.892 0 00.092-.387v-2.764a.92.92 0 00-.921-.921h-.921V173.423l1.333-.666a.909.909 0 00.225-.164c.016-.015.026-.033.042-.05a.9.9 0 00.177-.292.911.911 0 00.064-.319v-2.764a.924.924 0 00-.921-.921h-.921v-50.673h.921a.923.923 0 00.921-.922v-2.764a.924.924 0 00-.921-.921h-.921V67.18l3.53-5.296a.922.922 0 00.155-.511v-4.607h-.921v-.001zM157.548 356.198h-9.214v-40.539h9.214v40.539zm11.056 0h-9.214v-40.539h9.214v40.539zm6.449 0h-4.607v-41.46a.921.921 0 00-.921-.922h-22.112a.923.923 0 00-.921.922v41.46h-4.607v-47.91h1.843c2.145 0 4.229-.807 6.435-1.661 2.452-.949 5.23-2.024 8.306-2.024 3.076 0 5.854 1.075 8.306 2.024 2.206.854 4.29 1.661 6.435 1.661h1.843v47.91zM138.2 306.446v-2.764h5.528c1.113 0 2.655-.597 4.444-1.29 2.759-1.067 6.192-2.396 10.297-2.396s7.538 1.328 10.301 2.398c1.785.691 3.327 1.288 4.44 1.288h5.528v2.764h-5.528c-1.8 0-3.728-.747-5.77-1.537-2.602-1.007-5.55-2.149-8.971-2.149-3.421 0-6.369 1.142-8.971 2.149-2.042.79-3.97 1.537-5.77 1.537H138.2zM6.45 350.67h133.592v5.528H6.449v-5.528zM577.674 42.11c0-.048.037-.086.086-.086h7.198c.049 0 .086.038.086.086v.835a.921.921 0 00-.921.921v7.371a.92.92 0 00.921.921h10.135a.924.924 0 00.921-.921v-7.37a.924.924 0 00-.921-.922v-.835c0-.048.038-.086.087-.086h7.197c.049 0 .087.038.087.086v.835a.922.922 0 00-.922.921v12.899h-23.033V43.866a.92.92 0 00-.921-.921v-.835zm0 16.498h11.977v.921h-47.909v-.921h35.932zm23.033 186.109h-1.843v-1.843a.926.926 0 00-.269-.652.926.926 0 00-.652-.269h-4.499c-.509 0-1.029.411-1.029.921v1.843h-1.843a.924.924 0 00-.921.921v7.371c0 .142.033.284.097.411l.824 1.649v27.422h-2.764v-104.11h15.663v104.11h-2.764v-27.422l.825-1.649a.932.932 0 00.096-.411v-7.371a.923.923 0 00-.921-.921zm-8.389 9.721l-.824-1.648v-6.232h1.95c.51 0 .814-.412.814-.921v-1.843h2.764v1.843a.922.922 0 00.921.921h1.843v6.232l-.825 1.648a.92.92 0 00-.097.412v27.64h-6.449v-27.64a.924.924 0 00-.097-.412zM442.239 66.9h42.381v46.066h-42.381V66.9zm42.381 48.83h-42.381v-.921h42.381v.921zm-43.424-50.673l-2.456-3.685h49.379l-2.456 3.685h-44.467zm-40.417 103.189h-.921v-48.83h40.538v48.83h-39.617zm39.617 2.764H401.7v-.921h38.696v.921zm-175.974-2.764h-.921v-48.83h59.886v48.83h-58.965zm57.123 2.764h-56.202v-.921h56.202v.921zm-62.651 73.707h-1.843v-1.843a.926.926 0 00-.269-.652.926.926 0 00-.652-.269h-4.499c-.509 0-1.029.411-1.029.921v1.843h-1.843a.924.924 0 00-.921.921v7.371c0 .142.033.284.097.411l.824 1.649v27.422h-2.764V174.695h15.663v107.796h-2.764v-27.422l.825-1.649a.932.932 0 00.096-.411v-7.371a.926.926 0 00-.269-.652.926.926 0 00-.652-.269zm-8.389 9.721l-.824-1.648v-6.232h1.95c.51 0 .814-.412.814-.921v-1.843h2.764v1.843a.919.919 0 00.921.921h1.843v6.232l-.825 1.648a.934.934 0 00-.097.412v27.64h-6.449v-27.64a.924.924 0 00-.097-.412zm-51.605-9.721h-1.735v-1.843c0-.51-.52-.921-1.029-.921h-4.499a.926.926 0 00-.652.269.926.926 0 00-.269.652v1.843h-1.951c-.509 0-.813.411-.813.921v7.371c0 .142.033.284.096.411l.825 1.649v27.422h-2.764V174.695h15.663v107.796h-2.764v-27.422l.824-1.649a.92.92 0 00.097-.411v-7.371c0-.51-.52-.921-1.029-.921zm-8.281 9.721l-.825-1.648v-6.232h1.843a.919.919 0 00.921-.921v-1.843h2.764v1.843c0 .509.304.921.814.921h1.95v6.232l-.824 1.648a.92.92 0 00-.097.412v27.64h-6.449v-27.64a.937.937 0 00-.097-.412zM84.763 168.246h-.922v-48.83h100.425v48.83H84.763zm97.661 2.764h-96.74v-.921h96.74v.921zm-103.19 73.707h-1.842v-1.843a.924.924 0 00-.921-.921h-4.5c-.509 0-1.029.411-1.029.921v1.843H69.1a.924.924 0 00-.921.921v7.371c0 .142.033.284.096.411l.825 1.649v27.422h-2.764V174.695h15.663v107.796h-2.764v-27.422l.824-1.649a.926.926 0 00.097-.411v-7.371a.924.924 0 00-.922-.921zm-8.388 9.721l-.825-1.648v-6.232h1.95c.51 0 .814-.412.814-.921v-1.843h2.764v1.843a.92.92 0 00.921.921h1.843v6.232l-.824 1.648a.927.927 0 00-.097.412v27.64h-6.45v-27.64a.93.93 0 00-.096-.412zm-51.498-9.721h-1.843v-1.843a.924.924 0 00-.921-.921h-4.498c-.508 0-1.03.411-1.03.921v1.843H9.213a.924.924 0 00-.921.921v7.371c0 .142.033.284.097.411l.824 1.649v27.422H6.45V174.695h15.663v107.796h-2.764v-27.422l.825-1.649a.925.925 0 00.096-.411v-7.371a.924.924 0 00-.921-.921zm-8.389 9.721l-.824-1.648v-6.232h1.951c.509 0 .813-.412.813-.921v-1.843h2.764v1.843a.92.92 0 00.921.921h1.843v6.232l-.825 1.648a.927.927 0 00-.097.412v27.64h-6.449v-27.64a.93.93 0 00-.097-.412zm49.849-202.28h10.134a.921.921 0 00.922-.921v-7.37a.921.921 0 00-.922-.922v-.835c0-.048.038-.086.087-.086h7.198c.048 0 .086.038.086.086v.835a.921.921 0 00-.921.921v12.899H54.359V43.866a.921.921 0 00-.922-.921v-.835c0-.048.039-.086.087-.086h7.197c.048 0 .087.038.087.086v.835a.921.921 0 00-.922.921v7.371a.921.921 0 00.922.921zm119.773 9.214c0 .181.054.36.155.511l2.116 3.174H85.255l2.117-3.174c.1-.151.154-.33.154-.511h93.055zm-93.054-2.764h93.054v.921H87.527v-.921zm106.874-6.45h10.135a.921.921 0 00.921-.921v-7.37a.92.92 0 00-.921-.922v-.835c0-.048.037-.086.086-.086h7.198c.048 0 .086.038.086.086v.835a.921.921 0 00-.921.921v12.899h-23.033V43.866a.92.92 0 00-.922-.921v-.835c0-.048.038-.086.087-.086h7.197c.049 0 .087.038.087.086v.835a.924.924 0 00-.921.921v7.371a.924.924 0 00.921.921zm47.909 0h10.135a.921.921 0 00.921-.921v-7.37a.92.92 0 00-.921-.922v-.835c0-.048.038-.086.086-.086h7.198c.049 0 .086.038.086.086v.835a.921.921 0 00-.921.921v12.899h-23.033V43.866a.92.92 0 00-.922-.921v-.835c0-.048.038-.086.087-.086h7.198c.048 0 .086.038.086.086v.835a.92.92 0 00-.921.921v7.371a.92.92 0 00.921.921zm77.392 9.214c0 .181.054.36.155.511l2.116 3.174h-57.058l2.116-3.174a.922.922 0 00.155-.511h52.516zm-52.516-2.764h52.516v.921h-52.516v-.921zm65.415-6.45h10.134a.922.922 0 00.922-.921v-7.37a.925.925 0 00-.922-.922v-.835c0-.048.038-.086.087-.086h7.197c.049 0 .087.038.087.086v.835a.924.924 0 00-.921.921v12.899h-23.034V43.866a.92.92 0 00-.921-.921v-.835c0-.048.038-.086.087-.086h7.197c.049 0 .087.038.087.086v.835a.922.922 0 00-.922.921v7.371a.92.92 0 00.922.921zm47.909 0h10.134a.922.922 0 00.922-.921v-7.37a.92.92 0 00-.922-.922v-.835c0-.048.038-.086.087-.086h7.198c.048 0 .086.038.086.086v.835a.92.92 0 00-.921.921v12.899h-23.033V43.866a.925.925 0 00-.922-.921v-.835c0-.048.038-.086.087-.086h7.197c.049 0 .087.038.087.086v.835a.922.922 0 00-.921.921v7.371a.924.924 0 00.921.921zm56.201 9.214c0 .181.054.36.155.511l2.116 3.174h-37.71l2.116-3.174a.922.922 0 00.155-.511h33.168zm-33.168-2.764h33.168v.921h-33.168v-.921zm119.773 2.764c0 .181.055.36.155.511l2.116 3.174h-37.71l2.116-3.174a.922.922 0 00.155-.511h33.168zm-33.168-2.764h33.168v.921h-33.168v-.921zm46.067-6.45h10.134a.922.922 0 00.922-.921v-7.37a.92.92 0 00-.922-.922v-.835c0-.048.038-.086.087-.086h7.197c.049 0 .087.038.087.086v.835a.92.92 0 00-.921.921v12.899h-23.033V43.866a.925.925 0 00-.922-.921v-.835c0-.048.038-.086.087-.086h7.197c.049 0 .087.038.087.086v.835a.922.922 0 00-.922.921v7.371a.925.925 0 00.922.921zm50.673 62.651h.921v.921h-44.224v-.921h43.303zm-41.46-47.91h40.539v46.067h-40.539V66.9zm40.539 101.347h-40.539v-48.83h40.539v48.83zm-42.382-55.28h-14.741V66.9h14.555l.186.279v45.787zm-.921 55.28h-13.82v-48.83h14.741v48.83h-.921zm.921 5.176v2.195h-14.741v-2.764h13.603l1.138.569zm-57.122-60.456V67.179l.186-.28h40.166l.187.28v45.787h-40.539zm38.696 2.764h-38.696v-.921h38.696v.921zm1.843-.921h14.741v.921h-14.741v-.921zm.799-49.752l-2.456-3.685H539.9c0 .181.055.36.155.511l2.116 3.174h-14.37zm12.099-6.45v.922h-14.741v-.921H539.9zm-51.594.922h-49.752v-.921h49.752v.921zM339.971 115.73h-.921v-.921h44.224v.921h-43.303zm41.46 52.516h-40.538v-48.83h40.538v48.83zm-117.009-55.28h-.921V67.179l.186-.28h59.514l.186.28v45.787h-58.965zm57.123 2.764h-56.202v-.921h56.202v.921zm-118.852 0h-.921v-.921h44.223v.921h-43.302zm41.46 52.516h-40.539v-48.83h40.539v48.83zm-159.39-55.28h-.922V67.179l.186-.28H184.08l.186.28v45.787H84.763zm97.661 2.764h-96.74v-.921h96.74v.921zm-159.39 0h-.922v-.921h44.224v.921H23.033zm41.46 52.516h-40.54v-48.83h40.54v48.83zM23.953 66.9h40.54v46.066h-40.54V66.9zm42.382 52.516h15.663v48.83H66.336v-48.83zm0-6.45V67.179l.186-.28h15.477v46.067H66.336zm1.414-47.909l2.116-3.174a.93.93 0 00.155-.511h15.477l-2.457 3.685H67.75zm134.821 0l-2.456-3.685h47.537l-2.456 3.685H202.57zm41.582 47.909h-40.539V66.9h40.539v46.066zm-43.796-47.909h-15.291l-2.456-3.685h15.476c0 .181.055.36.155.511l2.116 3.174zm-16.091 49.752h15.663v.921h-15.663v-.921zm1.843 4.607h15.663v48.83h-15.663v-48.83zm14.741-6.45h-14.741V66.9h15.476l.187.279v45.787h-.922zm45.145 6.45h15.663v48.83h-15.663v-48.83zm0-6.45V67.179l.187-.28h15.476v46.067h-15.663zm1.415-47.909l2.116-3.174a.93.93 0 00.155-.511h15.476l-2.456 3.685h-15.29zm92.44 0l-2.457-3.685h47.537l-2.456 3.685H339.85zm41.581 47.909h-40.538V66.9h40.538v46.066zm-43.795-47.909h-13.449l-2.456-3.685h13.634c0 .181.054.36.154.511l2.117 3.174zm-14.249 49.752h13.82v.921h-13.82v-.921zm1.843 4.607h13.82v48.83h-13.82v-48.83zm12.899-6.45H325.23V66.9h13.634l.186.279v45.787h-.921zm45.145 6.45h14.741v48.83h-14.741v-48.83zm0-6.45V67.179l.186-.28h14.555v46.067h-14.741zm1.414-47.909l2.116-3.174a.922.922 0 00.155-.511h14.555l-2.456 3.685h-14.37zm17.012-5.528h-14.741v-.921H401.7v.921zm-16.584-.921v.921h-47.909v-.921h47.909zm-49.751 0v.921h-13.82v-.921h13.82zm-70.022.921H249.68v-.921h15.662v.921zm-17.505-.921v.921h-47.909v-.921h47.909zm-49.752 0v.921h-15.662v-.921h15.662zm-112.402.921H70.02v-.921h15.663v.921zm-17.505-.921v.921h-47.91v-.921h47.91zm-.187 2.764l-2.456 3.685H22.912l-2.457-3.685h47.537zm-45.88 5.807v45.787H6.449V66.9h15.477l.186.279zm0 52.237v48.83H6.449v-48.83h15.663zm0 164.918h44.224v.921H22.112v-.921zm35.01-39.617h-5.527v-1.843a.924.924 0 00-.922-.921H37.775a.924.924 0 00-.922.921v1.843h-5.528a.924.924 0 00-.921.921v5.528c0 .143.033.285.097.412l.824 1.648v29.265h-7.37V174.695h40.538v107.796h-7.37v-29.265l.824-1.648a.926.926 0 00.097-.412v-5.528a.924.924 0 00-.921-.921zm-24.05 7.879l-.825-1.648v-4.39h5.528a.92.92 0 00.92-.921v-1.843h11.057v1.843a.92.92 0 00.921.921H56.2v4.39l-.824 1.648a.926.926 0 00-.097.412v29.482H33.168v-29.482a.927.927 0 00-.097-.412zm-10.96-81.586v-.921h44.224v.921H22.112zm46.067 0v-.921H83.84v.921H68.18zm14.74-55.28H68.18v-.921h15.66v.921h-.921zm101.347 54.359h15.663v.921h-15.663v-.921zm17.506 114.245h44.223v.921h-44.223v-.921zm35.01-39.617h-5.528v-1.843a.923.923 0 00-.921-.921h-12.899a.924.924 0 00-.921.921v1.843h-5.528a.926.926 0 00-.652.269.926.926 0 00-.269.652v5.528a.93.93 0 00.096.412l.825 1.648v29.265h-7.371V174.695h40.539v107.796h-7.371v-29.265l.825-1.648a.933.933 0 00.096-.412v-5.528a.926.926 0 00-.269-.652.926.926 0 00-.652-.269zm-24.051 7.879l-.825-1.648v-4.39h5.528a.921.921 0 00.922-.921v-1.843h11.055v1.843a.923.923 0 00.922.921h5.528v4.39l-.825 1.648a.948.948 0 00-.097.412v29.482h-22.111v-29.482a.934.934 0 00-.097-.412zm-10.959-81.586v-.921h44.223v.921h-44.223zm46.066 0v-.921H263.5v.921h-15.663zm14.741-55.28h-14.741v-.921H263.5v.921h-.922zm60.808 54.359h13.82v.921h-13.82v-.921zm1.843 4.606h13.82v107.796h-13.82V174.695zm13.82 109.639h44.224v.921H339.05v-.921zm35.011-39.617h-5.528v-1.843a.924.924 0 00-.922-.921h-12.898a.924.924 0 00-.922.921v1.843h-5.528a.924.924 0 00-.921.921v5.528c0 .143.033.285.097.412l.824 1.648v29.265h-7.37V174.695h40.538v107.796h-7.37v-29.265l.824-1.648a.92.92 0 00.097-.412v-5.528a.923.923 0 00-.921-.921zm-24.052 7.879l-.824-1.648v-4.39h5.528a.92.92 0 00.921-.921v-1.843h11.056v1.843a.919.919 0 00.921.921h5.528v4.39l-.824 1.648a.92.92 0 00-.097.412v29.482h-22.112v-29.482a.92.92 0 00-.097-.412zM339.05 171.01v-.921h44.224v.921H339.05zm44.224 3.685h14.741v107.796h-14.741V174.695zm1.842-3.685v-.921h14.742v.921h-14.742zm13.82-55.28h-13.82v-.921h14.742v.921h-.922zm2.764-.921h38.696v.921H401.7v-.921zm-.921-1.843h-.921V67.179l.186-.28h40.166l.186.28v45.787h-39.617zm85.684 57.123h38.696v.921h-38.696v-.921zm0 2.764h39.4l1.139.569v2.195h-40.539v-2.764zm39.617-4.607h-39.617v-48.83h40.539v48.83h-.922zm.922 1.843h14.741v.921h-14.741v-.921zm1.842 8.292h14.741v104.11h-14.741v-104.11zm14.741 105.953h44.224v.921h-44.224v-.921zm42.382-105.953v104.11h-7.371v-29.265l.825-1.648a.933.933 0 00.096-.412v-5.528a.926.926 0 00-.269-.652.926.926 0 00-.652-.269h-5.528v-1.843a.923.923 0 00-.921-.921h-12.899a.922.922 0 00-.921.921v1.843h-5.528a.924.924 0 00-.922.921v5.528c0 .143.034.285.097.412l.825 1.648v29.265h-7.371v-104.11h40.539zm-40.539-5.528h40.539v2.764h-40.539v-2.764zm9.117 79.743l-.825-1.648v-4.39h5.528a.923.923 0 00.921-.921v-1.843h11.056v1.843a.923.923 0 00.922.921h5.528v4.39l-.825 1.648a.92.92 0 00-.097.412v29.482h-22.112v-29.482a.933.933 0 00-.096-.412zm-10.96-81.586v-.921h44.224v.921h-44.224zm44.224 4.607v-2.195l1.139-.569h14.524v2.764h-15.663zm.922-7.371h-.922v-48.83h15.663v48.83h-14.741zm-.922-55.28V67.179l.186-.28h15.477v46.067h-15.663zm-.799-47.909h-42.625l-2.456-3.685h47.537l-2.456 3.685zM134.514 3.275l9.821 9.265h-9.821V3.275zm0 11.109h11.775l11.719 11.056h-23.494V14.384zm-1.842-11.119v9.276h-9.944l9.944-9.276zm-11.056 10.313v.805h11.056v11.056h-23.771l12.715-11.861zm-13.82 13.704h51.594v4.607h-51.594v-4.607zm-93.976 6.45h527.741l35.192 14.437v8.596h-22.112V44.788a.922.922 0 00.922-.922V42.11a1.932 1.932 0 00-1.93-1.929h-7.197a1.93 1.93 0 00-1.929 1.93v1.755a.92.92 0 00.921.922v5.528h-8.292v-5.528a.924.924 0 00.921-.922V42.11a1.927 1.927 0 00-1.929-1.929h-7.197a1.933 1.933 0 00-1.929 1.93v1.755a.924.924 0 00.921.922v11.977H398.936V44.788a.922.922 0 00.922-.922V42.11a1.932 1.932 0 00-1.929-1.929h-7.198a1.93 1.93 0 00-1.929 1.93v1.755a.92.92 0 00.921.922v5.528h-8.292v-5.528a.922.922 0 00.921-.922V42.11a1.927 1.927 0 00-1.929-1.929h-7.197a1.933 1.933 0 00-1.929 1.93v1.755a.924.924 0 00.921.922v11.977h-21.191V44.788a.922.922 0 00.922-.922V42.11a1.932 1.932 0 00-1.93-1.929h-7.197a1.933 1.933 0 00-1.929 1.93v1.755a.924.924 0 00.921.922v5.528h-8.292v-5.528a.92.92 0 00.921-.922V42.11a1.931 1.931 0 00-1.929-1.929h-7.197a1.933 1.933 0 00-1.93 1.93v1.755a.92.92 0 00.922.922v11.977h-63.572V44.788a.921.921 0 00.921-.922V42.11a1.928 1.928 0 00-1.929-1.929h-7.198a1.929 1.929 0 00-1.929 1.93v1.755a.92.92 0 00.921.922v5.528h-8.292v-5.528a.922.922 0 00.922-.922V42.11a1.932 1.932 0 00-1.929-1.929h-7.198a1.933 1.933 0 00-1.929 1.93v1.755a.92.92 0 00.921.922v11.977h-21.19V44.788a.921.921 0 00.921-.922V42.11a1.932 1.932 0 00-1.929-1.929h-7.198a1.933 1.933 0 00-1.929 1.93v1.755a.92.92 0 00.921.922v5.528h-8.292v-5.528a.922.922 0 00.922-.922V42.11a1.932 1.932 0 00-1.93-1.929h-7.197a1.931 1.931 0 00-1.929 1.93v1.755a.924.924 0 00.921.922v11.977H79.234V44.788a.921.921 0 00.922-.922V42.11a1.931 1.931 0 00-1.93-1.929H71.03a1.93 1.93 0 00-1.93 1.93v1.755a.921.921 0 00.922.922v5.528H61.73v-5.528a.921.921 0 00.922-.922V42.11a1.931 1.931 0 00-1.93-1.929h-7.197a1.931 1.931 0 00-1.93 1.93v1.755a.921.921 0 00.922.922v11.977h-21.19V44.788a.921.921 0 00.92-.922V42.11a1.931 1.931 0 00-1.929-1.929H23.12a1.93 1.93 0 00-1.93 1.93v1.755a.921.921 0 00.922.922v5.528H13.82v-5.528a.921.921 0 00.921-.922V42.11a1.931 1.931 0 00-1.929-1.929h1.008v-6.45zm-8.292-9.214h7.37v.922a.921.921 0 00-.92.921v13.82h-5.53v-13.82a.921.921 0 00-.921-.921v-.922zm0 17.592c0-.048.039-.086.087-.086h7.197c.048 0 .087.038.087.086v.835a.921.921 0 00-.922.921v7.371a.921.921 0 00.922.921h10.134a.921.921 0 00.922-.921v-7.37a.921.921 0 00-.922-.922v-.835c0-.048.039-.086.087-.086h7.197c.048 0 .087.038.087.086v.835a.921.921 0 00-.921.921v12.899H6.449V43.866a.921.921 0 00-.921-.921v-.835zM1.843 58.608h16.584v.921H1.843v-.921zm.8 2.764h15.784c0 .181.054.36.154.511l2.117 3.174H5.1l-2.457-3.685zm1.964 53.437h15.662v.921H4.607v-.921zm0 55.28h15.662v.921H4.607v-.921zm0 115.166v-.921h15.662v.921H4.607zm6.449 3.685h10.319l4.937 4.489-15.256-4.489zm47.91 16.584h-1.843a.925.925 0 00-.922.922v28.561h-1.843v-2.764a.92.92 0 00-.92-.921H35.01a.92.92 0 00-.922.921v2.764h-1.842v-28.561a.922.922 0 00-.922-.922h-1.842v-9.213h29.482v9.213zm.878-11.056H29.833l-6.22-5.528h41.502l-5.27 5.528zm2.023-.336l4.72-5.192h11.659l-16.38 5.192zm21.974-8.877H68.18v-.921h15.66v.921zm98.583 0h-96.74v-.921h96.74v.921zm-65.415-38.696h5.528v4.389l-.825 1.649a.933.933 0 00-.096.412v29.482H99.504v-29.482a.923.923 0 00-.097-.412l-.825-1.649v-4.39h5.528a.921.921 0 00.922-.921v-1.843h11.056v1.843a.911.911 0 00.269.652.913.913 0 00.652.27zm47.909 0h5.528v4.389l-.824 1.649a.92.92 0 00-.097.412v29.482h-22.112v-29.482a.918.918 0 00-.097-.412l-.824-1.649v-4.39h5.528a.92.92 0 00.921-.921v-1.843h11.056v1.843a.93.93 0 00.269.652.924.924 0 00.652.27zm18.427 35.932h-11.977v-29.265l.824-1.648a.92.92 0 00.097-.412v-5.528a.923.923 0 00-.921-.921h-5.528v-1.843a.923.923 0 00-.922-.921H152.02a.924.924 0 00-.922.921v1.843h-5.528a.924.924 0 00-.921.921v5.528c0 .143.033.285.097.412l.824 1.648v29.265h-22.112v-29.265l.825-1.648a.92.92 0 00.097-.412v-5.528a.923.923 0 00-.922-.921h-5.528v-1.843a.926.926 0 00-.269-.652.926.926 0 00-.652-.269H104.11a.924.924 0 00-.921.921v1.843h-5.528a.924.924 0 00-.921.921v5.528c0 .143.033.285.097.412l.824 1.648v29.265h-13.82V174.695h100.425v107.796h-.921zm.921 2.764v-.921h15.663v.921h-15.663zm5.86 3.685H200.5l4.99 4.436-15.364-4.436zm49.42 16.584h-1.843a.925.925 0 00-.921.922v28.561h-1.843v-2.764a.922.922 0 00-.921-.921h-18.426a.921.921 0 00-.922.921v2.764h-1.842v-28.561a.925.925 0 00-.922-.922h-1.842v-9.213h29.482v9.213zm1.382-11.056h-31.651l-.332-.095-5.976-5.433h42.105l-4.146 5.528zm2.959-.875l3.49-4.653h10.637l-14.127 4.653zm19.614-8.338h-15.663v-.921h15.663v.921zm58.044 0h-56.202v-.921h56.202v.921zm-35.011-43.302h3.685v5.31l-.824 1.648a.92.92 0 00-.097.412v33.168h-18.427v-33.168a.933.933 0 00-.096-.412l-.825-1.649v-5.31h3.685a.921.921 0 00.922-.922v-1.842h11.056v1.842a.911.911 0 00.269.652.913.913 0 00.652.271zm26.719 0h3.685v5.31l-.825 1.648a.933.933 0 00-.096.412v33.168H297.59v-33.168a.92.92 0 00-.097-.412l-.824-1.649v-5.31h3.685a.919.919 0 00.921-.922v-1.842h11.056v1.842a.93.93 0 00.27.652.912.912 0 00.652.271zm4.606 40.538v-32.95l.825-1.649a.933.933 0 00.097-.411v-6.45a.92.92 0 00-.922-.921h-3.685v-1.843a.92.92 0 00-.921-.921h-12.899a.919.919 0 00-.921.921v1.843h-3.686a.92.92 0 00-.921.921v6.45c0 .142.033.284.097.411l.824 1.649v32.95h-4.606v-32.95l.824-1.649a.92.92 0 00.097-.411v-6.45a.92.92 0 00-.921-.921h-3.686v-1.843a.92.92 0 00-.921-.921h-12.899a.92.92 0 00-.921.921v1.843h-3.685a.921.921 0 00-.922.921v6.45a.93.93 0 00.097.411l.825 1.649v32.95h-5.528V174.695h59.886v107.796h-5.528zm5.528 2.764v-.921h13.82v.921h-13.82zm6.254 3.685h7.473l4.844 4.258-12.317-4.258zm46.262 14.742h-1.842a.921.921 0 00-.922.921v30.404h-1.842v-2.764a.923.923 0 00-.922-.921h-18.426a.921.921 0 00-.922.921v2.764h-1.842v-30.404a.923.923 0 00-.922-.921h-1.842v-7.371h29.482v7.371zm1.382-9.214h-31.651l-.366-.126-5.942-5.402h42.105l-4.146 5.528zm2.959-.875l3.49-4.653h10.637l-14.127 4.653zm19.614-8.338h-14.742v-.921h14.742v.921zm38.696 0H401.7v-.921h36.854v.921zm-11.978-38.696h5.528v4.389l-.824 1.649a.92.92 0 00-.097.412v29.482h-22.112v-29.482a.918.918 0 00-.097-.412l-.824-1.649v-4.39h5.528a.92.92 0 00.921-.921v-1.843h11.056v1.843a.93.93 0 00.27.652.921.921 0 00.651.27zm6.45 35.932v-29.265l.824-1.648a.92.92 0 00.097-.412v-5.528a.923.923 0 00-.921-.921h-5.528v-1.843a.923.923 0 00-.922-.921h-12.898a.924.924 0 00-.922.921v1.843h-5.528a.924.924 0 00-.921.921v5.528c0 .143.033.285.097.412l.824 1.648v29.265h-7.37V174.695h40.538v107.796h-7.37zm16.584 2.764h-9.214v-.921h9.214v.921zm25.797 7.371h-23.955v-34.089h23.955v34.089zm.921-35.932h-25.797a.919.919 0 00-.921.921v24.876h-7.371V117.573h42.381v164.918h-7.37v-24.876a.92.92 0 00-.922-.921zm10.135 28.561h-9.213v-.921h9.213v.921zm38.696 0h-36.853v-.921h36.853v.921zm-11.977-38.696h5.528v4.389l-.825 1.649a.92.92 0 00-.097.412v29.482h-22.112v-29.482a.918.918 0 00-.097-.412l-.824-1.649v-4.39h5.528a.919.919 0 00.921-.921v-1.843h11.056v1.843a.93.93 0 00.27.652.926.926 0 00.652.27zm6.449 35.932v-29.265l.824-1.648a.92.92 0 00.097-.412v-5.528a.923.923 0 00-.921-.921h-5.528v-1.843a.923.923 0 00-.921-.921h-12.899a.926.926 0 00-.652.269.926.926 0 00-.269.652v1.843h-5.528a.924.924 0 00-.922.921v5.528c0 .143.033.285.097.412l.825 1.648v29.265h-7.371v-104.11h40.539v104.11h-7.371zm7.371 2.764v-.921h14.741v.921h-14.741zm4.938 3.685h10.374l4.99 4.436-15.364-4.436zm48.499 16.584h-.922a.925.925 0 00-.921.922v28.561h-2.764v-2.764a.919.919 0 00-.921-.921h-18.427a.919.919 0 00-.921.921v2.764h-2.764v-28.561a.921.921 0 00-.922-.922h-.921v-9.213h29.483v9.213zm2.322-11.056h-31.67l-.35-.1-6.031-5.428h42.474l-4.423 5.528zm2.598-.762l3.813-4.766h10.656l-14.469 4.766zm19.956-8.451h-15.663v-.921h15.663v.921zm0-114.245h-15.663v-.921h15.663v.921zm0-55.28h-15.663v-.921h15.663v.921zM603.9 65.057h-14.676l2.116-3.174a.93.93 0 00.155-.511h14.863l-2.458 3.685zm3.257-5.528h-15.662v-.921h15.662v.921z" fill="#000"/></svg>