<svg width="20" height="20" fill="none" xmlns="http://www.w3.org/2000/svg"><path d="M3.6 16.4a8.991 8.991 0 006.4 2.65 8.99 8.99 0 006.4-2.65 8.99 8.99 0 002.65-6.4c0-2.417-.941-4.69-2.65-6.4A8.991 8.991 0 0010 .95c-2.417 0-4.69.941-6.4 2.65A8.991 8.991 0 00.95 10c0 2.417.941 4.69 2.65 6.4zM1.77 10c0-4.538 3.692-8.23 8.23-8.23s8.23 3.692 8.23 8.23-3.692 8.23-8.23 8.23S1.77 14.538 1.77 10z" fill="#000" stroke="#000" stroke-width=".1"/><path d="M12.593 13.17h0a.41.41 0 00.58 0h0a.41.41 0 000-.58l-2.76-2.76V4.24a.41.41 0 00-.82 0V10a.41.41 0 00.12.29h0l2.88 2.88z" fill="#000" stroke="#000" stroke-width=".1"/></svg>