<svg width="50" height="50" fill="none" xmlns="http://www.w3.org/2000/svg"><circle cx="25" cy="25" r="24.5" stroke="#ED4242"/><path d="M38.481 21.538v12.618H13.345V21.538a.472.472 0 10-.945 0v13.09c0 .26.211.472.472.472h26.082c.26 0 .472-.211.472-.472v-13.09 0a.473.473 0 00-.945 0z" fill="#ED4242" stroke="#ED4242" stroke-width=".2"/><path d="M26.414 27.943V14.429a.33.33 0 00-.153-.268.57.57 0 00-.324-.094.57.57 0 00-.324.095.33.33 0 00-.153.267v13.514l-1.94-1.896h0a.52.52 0 00-.302-.135.61.61 0 00-.337.055h0a.369.369 0 00-.206.236c-.025.105.01.21.092.291l2.793 2.73a.542.542 0 00.377.14.544.544 0 00.377-.14h0l2.794-2.73a.302.302 0 00.091-.29.369.369 0 00-.205-.237.607.607 0 00-.337-.055.519.519 0 00-.303.135l-1.94 1.896zm0 0l1.94-1.896-1.94 1.896z" fill="#ED4242" stroke="#ED4242" stroke-width=".2"/></svg>