<svg width="50" height="51" fill="none" xmlns="http://www.w3.org/2000/svg"><path d="M36.142 50.053a.535.535 0 01-.531-.531l-.001-4.376c0-.293.238-.531.53-.531l4.576-.001L25 28.897 9.285 44.614h4.577c.292 0 .53.239.53.532v4.376a.531.531 0 01-.531.531L.53 50.051a.531.531 0 01-.53-.532l.002-13.326a.532.532 0 01.531-.531h4.376c.293 0 .531.239.531.532v4.576l15.716-15.718L5.439 9.337v4.576a.53.53 0 01-.53.53H.532a.53.53 0 01-.53-.53V.585a.53.53 0 01.53-.53h13.329a.53.53 0 01.53.53V4.96a.53.53 0 01-.53.53H9.283L25 21.209 40.733 5.473l-4.58.019a.532.532 0 01-.533-.528L35.602.588a.53.53 0 01.529-.533L49.292 0c.29 0 .53.233.534.524L50 13.878a.529.529 0 01-.523.537l-4.376.058a.533.533 0 01-.538-.524l-.06-4.557-15.658 15.66L44.56 40.77l.003-4.576c0-.293.238-.531.53-.531h.001l4.376.002a.532.532 0 01.53.53l-.005 13.323a.53.53 0 01-.53.53l-13.323.006zM1.061 48.99l12.27.002v-3.316l-5.327-.001a.53.53 0 01-.375-.906l16.995-16.997a.532.532 0 01.75 0l16.997 16.996a.53.53 0 01-.375.907H36.67l.001 3.316 12.262-.004.005-12.262-3.315-.001-.003 5.325a.531.531 0 01-.905.376L27.72 25.428a.531.531 0 010-.751L44.642 7.753a.533.533 0 01.907.368l.068 5.284 3.315-.043-.16-12.298-12.107.05.014 3.315 5.338-.022h.002a.53.53 0 01.377.905l-17.02 17.021a.53.53 0 01-.75 0L7.629 5.336a.53.53 0 01.375-.905h5.327V1.115H1.063v12.268h3.315V8.055a.532.532 0 01.906-.375l16.998 16.997a.533.533 0 010 .751L5.283 42.427a.533.533 0 01-.906-.376l.001-5.327H1.063L1.06 48.99z" fill="#fff"/></svg>