<svg width="18" height="18" fill="none" xmlns="http://www.w3.org/2000/svg"><path d="M8.9 3.928c-2.644 0-4.795 2.058-4.795 4.587 0 2.53 2.151 4.586 4.795 4.586s4.795-2.057 4.795-4.586c0-2.529-2.15-4.587-4.795-4.587zm0 7.866c-1.89 0-3.428-1.472-3.428-3.279 0-1.808 1.538-3.279 3.428-3.279s3.428 1.47 3.428 3.28c0 1.806-1.538 3.278-3.428 3.278zm5.319-7.423a.62.62 0 00.632-.605.62.62 0 00-.632-.605.62.62 0 00-.633.605.62.62 0 00.633.605z" fill="#fff"/><path d="M13.676 0H4.124C1.846 0 0 1.767 0 3.946v9.136c0 2.18 1.847 3.946 4.124 3.946h9.552c2.278 0 4.125-1.767 4.125-3.946V3.947c0-2.18-1.847-3.947-4.125-3.947zm2.758 13.082c0 1.454-1.238 2.638-2.758 2.638H4.124c-1.52 0-2.756-1.184-2.756-2.638V3.947c0-1.454 1.236-2.638 2.756-2.638h9.552c1.52 0 2.758 1.183 2.758 2.638v9.135z" fill="#fff"/></svg>