<svg width="21" height="19" fill="none" xmlns="http://www.w3.org/2000/svg"><path d="M10.93 4.382c-2.95 0-5.352 2.297-5.352 5.119 0 2.821 2.401 5.117 5.351 5.117s5.35-2.296 5.35-5.117c0-2.822-2.4-5.119-5.35-5.119zm0 8.777c-2.11 0-3.826-1.642-3.826-3.658 0-2.018 1.716-3.66 3.825-3.66s3.825 1.642 3.825 3.66c0 2.016-1.716 3.658-3.825 3.658zm5.933-8.282c.39 0 .705-.302.705-.675 0-.372-.316-.675-.705-.675-.39 0-.706.303-.706.675 0 .373.316.675.706.675z" fill="#000"/><path d="M16.257 0H5.6C3.058 0 .998 1.972.998 4.403v10.194C.998 17.028 3.06 19 5.6 19h10.657c2.542 0 4.603-1.972 4.603-4.403V4.404C20.86 1.972 18.8 0 16.258 0zm3.078 14.597c0 1.623-1.381 2.943-3.078 2.943H5.6c-1.696 0-3.076-1.32-3.076-2.943V4.404c0-1.622 1.38-2.943 3.076-2.943h10.657c1.697 0 3.078 1.32 3.078 2.943v10.193z" fill="#000"/></svg>