<svg width="18" height="18" fill="none" xmlns="http://www.w3.org/2000/svg"><path d="M4.228 18.001a4.327 4.327 0 002.99-1.34l3.408-3.409c.07-.07.138-.14.202-.213a4.884 4.884 0 01-2.25-.244l-2.613 2.612a2.538 2.538 0 01-1.756.822 2.342 2.342 0 01-1.686-.752 2.342 2.342 0 01-.751-1.686c.03-.67.326-1.303.821-1.756l3.408-3.408a2.538 2.538 0 011.757-.822 2.342 2.342 0 011.685.752c.135.134.257.281.363.44.133.06.277.092.423.092.38-.036.732-.213.985-.498l.26-.259a4.552 4.552 0 00-.777-1.029 4.127 4.127 0 00-2.958-1.27 4.327 4.327 0 00-2.991 1.34L1.34 10.782a4.327 4.327 0 00-1.341 2.991 4.128 4.128 0 001.27 2.958 4.127 4.127 0 002.959 1.271z" fill="#000"/><path d="M18 4.229a4.129 4.129 0 00-1.27-2.958A4.128 4.128 0 0013.77 0a4.327 4.327 0 00-2.99 1.34L7.372 4.75a5.01 5.01 0 00-.202.214 4.892 4.892 0 012.25.243l2.613-2.612a2.538 2.538 0 011.756-.822 2.343 2.343 0 011.686.752 2.342 2.342 0 01.752 1.686 2.538 2.538 0 01-.822 1.756l-3.408 3.408a2.539 2.539 0 01-1.756.822 2.342 2.342 0 01-1.686-.752 2.913 2.913 0 01-.363-.44 1 1 0 00-.423-.092c-.38.036-.731.213-.985.498l-.259.259c.209.378.47.724.777 1.029a4.127 4.127 0 002.958 1.27 4.327 4.327 0 002.99-1.34l3.41-3.409A4.327 4.327 0 0018 4.229z" fill="#000"/></svg>