<svg width="27" height="26" fill="none" xmlns="http://www.w3.org/2000/svg"><path d="M25.514 13.735c-.154 0-.3.076-.404.181a.587.587 0 00-.181.404v9.609H2.07V1.557h9.73c.154 0 .3-.076.404-.181a.586.586 0 00.181-.405c0-.154-.076-.3-.18-.404A.586.586 0 0011.8.386H1.485a.59.59 0 00-.404.18A.587.587 0 00.9.972v23.543c0 .154.076.3.181.405.105.105.25.18.404.18h24.03a.586.586 0 00.404-.18.587.587 0 00.18-.405V14.32a.585.585 0 00-.18-.404.587.587 0 00-.405-.181z" fill="#ED4242" stroke="#ED4242" stroke-width=".2"/><path d="M25.514.144h-8.252c-.154 0-.3.076-.405.181a.587.587 0 00-.18.405c0 .153.075.299.18.404.105.105.25.181.405.181h6.677L10.152 15.222s0 0 0 0c-.132.132-.211.277-.211.434 0 .158.08.303.211.435.151.15.309.15.43.15h.01c.123 0 .28 0 .43-.15L24.93 2.185V8.86c0 .154.076.3.18.405.106.105.251.18.405.18.154 0 .3-.075.405-.18a.586.586 0 00.18-.405V.73c0-.207-.07-.358-.187-.456a.616.616 0 00-.398-.13z" fill="#ED4242" stroke="#ED4242" stroke-width=".2"/></svg>