<svg viewBox="0 0 320 28" fill="none" xmlns="http://www.w3.org/2000/svg"><path fill="#ED4242" d="M234.17 0h28.368v5.072H234.17zm-93.414 10.954h28.368v5.072h-28.368zM180.343.039h21.094v5.072h-21.094z"/><path fill="#fff" d="M185.436 7.285v19.564h-5.092V7.285zm64.736-.039V26.81h-5.092V7.246zM209.44.04v27.533h-5.093V.04zM269.084 0v27.534h-5.092V0zm-37.096 0v27.534h-5.092V0zm59.645 0v27.534h-5.092V0z"/><path d="M225.441.04l-9.456 27.533h-5.091L220.35.04h5.091zM285.087 0l-9.456 27.534h-5.091L279.996 0h5.091zm29.032 1.991a12.766 12.766 0 00-12.81-.514 12.708 12.708 0 00-4.852 4.515 12.647 12.647 0 00-1.91 6.335l4.795.133a7.872 7.872 0 011.19-3.948 7.919 7.919 0 013.024-2.814 7.955 7.955 0 017.982.321l2.581-4.028z" fill="#ED4242"/><path d="M314.119 25.543a12.767 12.767 0 01-13.06.379 12.706 12.706 0 01-4.822-4.745 12.642 12.642 0 01-1.693-6.537l4.841.081a7.823 7.823 0 001.049 4.051 7.87 7.87 0 002.988 2.94 7.908 7.908 0 008.092-.235l2.605 4.066z" fill="#fff"/><path fill="#ED4242" d="M0 0h28.368v5.072H0zm81.466 0h28.368v5.072H81.466z"/><path fill="#fff" d="M117.108 0v26.809h-5.092V0z"/><path fill="#ED4242" d="M38.552 0h15.275v5.072H38.552zm0 10.869h15.275v5.072H38.552zm0 11.593h15.275v5.072H38.552z"/><path fill="#fff" d="M16.002 7.245V26.81H10.91V7.245zm82.194 0V26.81h-5.092V7.245zM36.37 0v27.534h-5.093V0zm34.913 0l-9.456 27.534h-5.092L66.191 0h5.092z"/><path d="M119.653 0c1.385 0 2.757.244 4.037.717a10.71 10.71 0 013.421 2.042 9.419 9.419 0 012.287 3.056 8.553 8.553 0 01.802 3.605h-3.638c0-.81-.179-1.613-.526-2.362a6.177 6.177 0 00-1.497-2.001 7.026 7.026 0 00-2.242-1.338 7.63 7.63 0 00-2.644-.47V0zm0 20.288a11.66 11.66 0 004.037-.717 10.71 10.71 0 003.421-2.042 9.419 9.419 0 002.287-3.056 8.553 8.553 0 00.802-3.605h-3.638c0 .81-.179 1.613-.526 2.362a6.178 6.178 0 01-1.497 2.002 7.027 7.027 0 01-2.242 1.337c-.838.31-1.736.47-2.644.47v3.25zM69.828 9.781l6.062 17.753h4.849L72.253 2.898 69.828 9.78z" fill="#ED4242"/><path d="M69.828 10.144l5.657 17.39h4.526l-7.92-23.911-2.263 6.52zm-3.636 5.796h5.092v2.898h-5.092z" fill="#ED4242"/></svg>