<svg viewBox="0 0 315 28" fill="none" xmlns="http://www.w3.org/2000/svg"><path fill="#ED4242" d="M229.868 0h27.847v4.998h-27.847zM138.17 10.795h27.847v4.998H138.17zM177.031.039h20.706v4.998h-20.706z"/><path fill="#000" d="M182.029 7.179v19.278h-4.998V7.179zm63.547-.039v19.278h-4.998V7.14zM205.592.039v27.133h-4.998V.039zM264.141 0v27.133h-4.998V0zm-36.415 0v27.133h-4.998V0zm58.549 0v27.133h-4.998V0z"/><path d="M221.3.039l-9.282 27.132h-4.999L216.302.04h4.998zM279.849 0l-9.282 27.133h-4.998L274.851 0h4.998zm28.499 1.962a12.49 12.49 0 00-12.574-.507 12.496 12.496 0 00-6.638 10.692l4.707.131a7.78 7.78 0 014.136-6.663 7.789 7.789 0 017.836.316l2.533-3.969z" fill="#ED4242"/><path d="M308.348 25.17a12.493 12.493 0 01-17.553-4.302 12.498 12.498 0 01-1.662-6.442l4.752.08a7.737 7.737 0 003.963 6.89 7.742 7.742 0 007.944-.232l2.556 4.006z" fill="#000"/><path fill="#ED4242" d="M0 0h27.847v4.998H0zm79.97 0h27.847v4.998H79.97z"/><path fill="#000" d="M114.956 0v26.419h-4.998V0z"/><path fill="#ED4242" d="M37.843 0h14.994v4.998H37.843zm0 10.71h14.994v4.998H37.843zm0 11.424h14.994v4.998H37.843z"/><path fill="#000" d="M15.709 7.14v19.28H10.71V7.14zm80.683 0v19.278h-4.998V7.14zM35.7 0v27.133h-4.997V0zm34.273 0l-9.282 27.133h-4.998L64.975 0h4.998z"/><path d="M117.456 0a11.4 11.4 0 013.962.707 10.514 10.514 0 013.359 2.012 9.286 9.286 0 012.244 3.011 8.46 8.46 0 01.788 3.552h-3.572a5.54 5.54 0 00-.516-2.327 6.081 6.081 0 00-1.47-1.972 6.881 6.881 0 00-2.2-1.318 7.468 7.468 0 00-2.595-.463V0zm0 19.992c1.359 0 2.706-.24 3.962-.706a10.513 10.513 0 003.359-2.012 9.286 9.286 0 002.244-3.012 8.46 8.46 0 00.788-3.552h-3.572c0 .799-.175 1.59-.516 2.327a6.08 6.08 0 01-1.47 1.972 6.882 6.882 0 01-2.2 1.319 7.47 7.47 0 01-2.595.462v3.202zM68.545 9.64l5.95 17.492h4.76l-8.33-24.276-2.38 6.783z" fill="#ED4242"/><path d="M68.545 9.996L74.1 27.132h4.443L70.767 3.57l-2.222 6.426zm-3.569 5.712h4.998v2.856h-4.998z" fill="#ED4242"/></svg>