<svg width="27" height="27" fill="none" xmlns="http://www.w3.org/2000/svg"><path d="M12.395 1C6.106 1 1 6.106 1 12.395c0 6.29 5.106 11.395 11.395 11.395a11.35 11.35 0 007.8-3.078l5.169 5.18a.378.378 0 00.528 0 .364.364 0 000-.517L20.7 20.183a11.357 11.357 0 003.09-7.788C23.79 6.106 18.684 1 12.395 1zm0 .735c5.892 0 10.66 4.768 10.66 10.66s-4.768 10.66-10.66 10.66a10.654 10.654 0 01-10.66-10.66c0-5.892 4.768-10.66 10.66-10.66z" fill="#fff" stroke="#fff" stroke-width=".5"/><path stroke="#fff" d="M12.56 7v11M7 12.44h11"/></svg>