<svg width="16" height="23" fill="none" xmlns="http://www.w3.org/2000/svg"><path d="M7.63 21l-.413.282.413.605.413-.605L7.63 21zm0 0l.413.282h0l.001-.002.004-.006.014-.021.057-.083.212-.317a90.545 90.545 0 003.047-4.915c.833-1.45 1.672-3.026 2.304-4.474.623-1.428 1.078-2.806 1.078-3.834a7.13 7.13 0 00-14.26 0c0 1.028.455 2.406 1.078 3.834.632 1.448 1.47 3.023 2.303 4.473a90.532 90.532 0 003.26 5.233l.056.083.015.021.003.006.001.001h0L7.63 21zm0-10.476A3.099 3.099 0 014.535 7.43 3.099 3.099 0 017.63 4.335a3.099 3.099 0 013.095 3.095 3.1 3.1 0 01-3.095 3.095z" stroke="#000"/></svg>