<svg width="50" height="50" fill="none" xmlns="http://www.w3.org/2000/svg"><circle cx="25" cy="25" r="24.5" stroke="#ED4242"/><path d="M35.429 25.902a.449.449 0 00-.315.147.48.48 0 00-.14.324v8.368H15.86V15.27h8.142a.45.45 0 00.314-.148.48.48 0 00.14-.324.48.48 0 00-.14-.324.449.449 0 00-.314-.147h-8.596a.449.449 0 00-.314.147.48.48 0 00-.14.324v20.413c0 .12.057.237.14.323a.449.449 0 00.314.147H35.43c.118 0 .231-.06.314-.147a.48.48 0 00.14-.323v-8.839a.48.48 0 00-.14-.324.449.449 0 00-.314-.147z" fill="#ED4242" stroke="#ED4242" stroke-width=".1"/><path d="M35.43 14.117h-6.877a.449.449 0 00-.314.147.48.48 0 00-.14.324c0 .12.057.238.14.324a.449.449 0 00.314.146h5.648L22.651 27.18s0 0 0 0c-.106.111-.165.228-.165.35 0 .123.059.24.165.35a.36.36 0 00.176.106.629.629 0 00.161.015h.005c.05 0 .106 0 .162-.015a.366.366 0 00.175-.105l11.646-12.116v5.873c0 .121.057.238.14.324a.449.449 0 00.314.147c.118 0 .232-.06.314-.147a.48.48 0 00.14-.324v-7.05c0-.169-.054-.289-.143-.366a.469.469 0 00-.31-.104z" fill="#ED4242" stroke="#ED4242" stroke-width=".1"/></svg>