<svg width="11" height="18" fill="none" xmlns="http://www.w3.org/2000/svg"><path fill-rule="evenodd" clip-rule="evenodd" d="M10.43 9.456c-.25-.505-.947-.926-1.873-.196-1.252.986-3.262.986-3.262.986s-2.01 0-3.262-.986C1.107 8.531.41 8.951.158 9.456c-.438.881.058 1.307 1.175 2.024.956.612 2.268.842 3.115.928l-.708.708-2.624 2.625a1.02 1.02 0 000 1.444l.12.121c.198.199.458.299.721.299h.003c.261 0 .521-.101.721-.299l2.626-2.626 2.624 2.626a1.024 1.024 0 001.445 0l.121-.121a1.022 1.022 0 000-1.444l-2.626-2.626-.709-.709c.848-.088 2.146-.317 3.093-.926 1.12-.717 1.613-1.143 1.175-2.024zM5.295 2.265a2.192 2.192 0 110 4.384 2.192 2.192 0 010-4.384zm0 6.646A4.453 4.453 0 009.75 4.456a4.455 4.455 0 10-4.454 4.455z" fill="#000"/></svg>