<svg width="70" height="80" fill="none" xmlns="http://www.w3.org/2000/svg"><path d="M17.5 32H17v.5h.5V32zm3.5 0v.5h.5V32H21zm0-4.42v-.5h-.5v.5h.5zm-3.5-9.88v-.5H17v.5h.5zm3.5 6.88h-.5v.5h.5v-.5zm0-3.88v-.5h-.5v.5h.5zm-3.5 11.8H21v-1h-3.5v1zm4-.5v-4.42h-1V32h1zm-.5-3.92h2.44v-1H21v1zm2.44 0c1.521 0 2.821-.572 3.739-1.56.914-.984 1.421-2.35 1.421-3.9h-1c0 1.33-.433 2.444-1.154 3.22-.717.772-1.747 1.24-3.006 1.24v1zm5.16-5.46c0-1.55-.507-2.907-1.423-3.882-.919-.978-2.219-1.538-3.737-1.538v1c1.262 0 2.292.46 3.008 1.222.719.765 1.152 1.867 1.152 3.198h1zm-5.16-5.42H17.5v1h5.94v-1zm-6.44.5V32h1V17.7h-1zm4.5 6.88V20.7h-1v3.88h1zM21 21.2h1.78v-1H21v1zm1.78 0c.461 0 .754.15.938.362.194.22.322.57.322 1.058h1c0-.652-.172-1.263-.569-1.717-.405-.463-.992-.703-1.691-.703v1zm1.26 1.42c0 .488-.128.848-.33 1.08-.192.22-.5.38-.99.38v1c.73 0 1.332-.25 1.745-.724.403-.464.575-1.084.575-1.736h-1zm-1.32 1.46H21v1h1.72v-1zM30.078 32h-.5v.5h.5V32zm0-14.3v-.5h-.5v.5h.5zm3.5 11.3h-.5v.5h.5V29zm0-8.3v-.5h-.5v.5h.5zm-3.5 11.8h5.08v-1h-5.08v1zm5.08 0c2.349 0 4.328-.7 5.724-2.042 1.398-1.344 2.156-3.278 2.156-5.638h-1c0 2.14-.682 3.796-1.849 4.917-1.17 1.124-2.88 1.763-5.03 1.763v1zm7.88-7.68c0-2.36-.758-4.281-2.158-5.61-1.397-1.326-3.376-2.01-5.722-2.01v1c2.155 0 3.865.626 5.033 1.735 1.165 1.106 1.847 2.745 1.847 4.885h1zm-7.88-7.62h-5.08v1h5.08v-1zm-5.58.5V32h1V17.7h-1zm4.5 11.3v-8.3h-1V29h1zm-.5-7.8h1.44v-1h-1.44v1zm1.44 0c1.082 0 1.915.319 2.479.891.564.572.921 1.462.921 2.729h1c0-1.453-.413-2.623-1.209-3.431-.796-.808-1.913-1.189-3.19-1.189v1zm3.4 3.62c0 1.283-.345 2.189-.904 2.772-.555.58-1.385.908-2.496.908v1c1.31 0 2.43-.392 3.219-1.217.787-.822 1.181-2.006 1.181-3.463h-1zm-3.4 3.68h-1.44v1h1.44v-1zm9.806 3.5h-.5v.5h.5V32zm3.5 0v.5h.5V32h-.5zm0-5.3v-.5h-.5v.5h.5zm4.36 0v.5h.5v-.5h-.5zm0-3h.5v-.5h-.5v.5zm-4.36 0h-.5v.5h.5v-.5zm0-3v-.5h-.5v.5h.5zm5.26 0v.5h.5v-.5h-.5zm0-3h.5v-.5h-.5v.5zm-8.76 0v-.5h-.5v.5h.5zm0 14.8h3.5v-1h-3.5v1zm4-.5v-5.3h-1V32h1zm-.5-4.8h4.36v-1h-4.36v1zm4.86-.5v-3h-1v3h1zm-.5-3.5h-4.36v1h4.36v-1zm-3.86.5v-3h-1v3h1zm-.5-2.5h5.26v-1h-5.26v1zm5.76-.5v-3h-1v3h1zm-.5-3.5h-8.76v1h8.76v-1zm-9.26.5V32h1V17.7h-1z" fill="#000"/><path d="M0 80h70V0H0v80zM1.094 1.25h67.812v77.5H1.094V1.25z" fill="#000"/><path d="M52.227 60.855H17.773v1.25h34.454v-1.25zm0-14.32H17.773v1.25h34.454v-1.25z" fill="#000"/></svg>