<svg width="18" height="18" fill="none" xmlns="http://www.w3.org/2000/svg"><path clip-rule="evenodd" d="M5.039 7.958c-.206-1.03.962-1.58 1.718-2.061.412-.275.48-.687.343-1.1C6.688 3.63 5.932 2.6 5.451 1.432c-.068-.206-.275-.343-.48-.412C2.978.814 1.535 2.325 1.123 4.18c-1.237 5.497 7.145 13.879 12.71 12.71 1.855-.411 3.367-1.854 3.16-3.847-.068-.206-.205-.412-.412-.48-1.167-.482-2.198-1.237-3.366-1.65-.412-.137-.825-.068-1.1.344-.48.756-1.03 1.924-2.06 1.718-1.787-.344-4.741-3.298-5.016-5.016z" stroke="#000"/></svg>