<svg width="29" height="44" fill="none" xmlns="http://www.w3.org/2000/svg"><path d="M14.391 10.543a3.419 3.419 0 00-3.414 3.414 3.418 3.418 0 003.414 3.414 3.417 3.417 0 003.413-3.414 3.418 3.418 0 00-3.413-3.414z" fill="#ED4242"/><path d="M14.391 0C6.443 0 0 6.443 0 14.392c0 7.948 14.391 29.022 14.391 29.022S28.783 22.34 28.783 14.392C28.783 6.443 22.34 0 14.391 0zm.001 21.76c-4.303 0-7.803-3.501-7.803-7.803 0-4.303 3.5-7.803 7.803-7.803s7.803 3.5 7.803 7.803c0 4.302-3.5 7.803-7.803 7.803z" fill="#ED4242"/></svg>