<svg width="16" height="20" fill="none" xmlns="http://www.w3.org/2000/svg"><path d="M12.896 2.208C9.95-.736 5.158-.736 2.214 2.208A7.58 7.58 0 00.039 6.786a7.576 7.576 0 001.208 4.922l.012.022 5.877 8.06a.52.52 0 00.833 0l5.877-8.06.012-.022a7.562 7.562 0 00-.963-9.5zm.111 8.924l-5.454 7.475-5.455-7.475a6.534 6.534 0 01-1.036-4.238 6.528 6.528 0 0111.103-3.95 6.567 6.567 0 011.878 3.95 6.566 6.566 0 01-1.036 4.238z" fill="#000"/><path d="M7.553 3.88a3.142 3.142 0 00-3.138 3.138 3.144 3.144 0 003.138 3.138 3.144 3.144 0 003.138-3.138A3.142 3.142 0 007.553 3.88zm0 5.245a2.11 2.11 0 01-2.106-2.107 2.11 2.11 0 012.106-2.106 2.11 2.11 0 012.106 2.106 2.11 2.11 0 01-2.106 2.107z" fill="#000"/></svg>