<svg width="100" height="89" fill="none" xmlns="http://www.w3.org/2000/svg"><path d="M66.665 0C48.254 0 33.332 15.018 33.332 33.543c0 16.582 11.968 30.346 27.683 33.046h.144v.029c.006 0 .01.005.01.005v.006c-.004.014-.006.034-.01.046V88.89C78.871 79.697 99.443 60.559 100 35.75l-.087.07c.048-.752.087-1.512.087-2.275C99.999 15.018 85.074 0 66.665 0z" fill="#ED4242"/><path d="M66.009 36.918l.12-.097c-1.097 23.678-20.587 42.08-37.802 51.24V66.747l.01-.028v-.302l-.01-.01v-.318h-.6C12.268 63.413.5 49.865.5 33.543.5 15.291 15.2.5 33.333.5c18.13 0 32.834 14.791 32.834 33.045 0 .747-.039 1.494-.086 2.243l-.072 1.13z" stroke="#ED4242"/></svg>