<svg width="260" height="260" fill="none" xmlns="http://www.w3.org/2000/svg"><circle cx="195" cy="195" r="65" fill="#ED4242"/><circle cx="65" cy="195" r="65" transform="rotate(90 65 195)" fill="#fff"/><mask id="a" maskUnits="userSpaceOnUse" x="0" y="130" width="131" height="130"><circle cx="65" cy="195" r="65" transform="rotate(90 65 195)" fill="#fff"/></mask><g mask="url(#a)"><path fill="#000" d="M140 195v65H-12v-65z"/></g><mask id="b" maskUnits="userSpaceOnUse" x="0" y="0" width="130" height="130"><circle cx="65" cy="65" r="65" fill="#fff"/></mask><g mask="url(#b)" stroke="#ED4242"><path d="M0 80.5h130m-130 5h130M0 70.5h130m-130 5h130M0 90.5h130m-130 5h130m-130 5h130m-130 5h130m-130 5h130m-130 5h130m-130 5h130m-130 5h130M0 10.5h130m-130 5h130M0 .5h130M0 5.5h130M0 20.5h130m-130 5h130m-130 5h130m-130 5h130m-130 5h130m-130 5h130m-130 5h130m-130 5h130m-130 5h130m-130 5h130"/></g></svg>