<svg width="181" height="180" fill="none" xmlns="http://www.w3.org/2000/svg"><circle r="45" transform="matrix(0 -1 -1 0 135.691 45)" fill="#ED4242"/><circle r="45" transform="matrix(0 1 1 0 135.691 135)" fill="#fff"/><mask id="a" maskUnits="userSpaceOnUse" x="90" y="90" width="91" height="90"><circle r="45" transform="matrix(0 1 1 0 135.691 135)" fill="#fff"/></mask><g mask="url(#a)"><path fill="#000" d="M83.769 135v45h105.23v-45z"/></g><mask id="b" maskUnits="userSpaceOnUse" x="-1" y="90" width="91" height="90"><circle r="45" transform="matrix(0 -1 -1 0 45 135)" fill="#fff"/></mask><g mask="url(#b)" stroke="#ED4242"><path d="M34.422 180V90m-3.462 90V90m10.385 90V90m-3.461 90V90M27.5 180V90m-3.462 90V90m-3.462 90V90m-3.461 90V90m-3.462 90V90m-3.461 90V90M6.73 180V90m-3.462 90V90m-3.461 90V90m83.077 90V90m-3.462 90V90m10.385 90V90m-3.462 90V90M75.96 180V90m-3.46 90V90m-3.462 90V90m-3.462 90V90m-3.462 90V90m-3.461 90V90m-3.462 90V90m-3.461 90V90m-3.462 90V90m-3.461 90V90"/></g></svg>