<svg width="34" height="23" fill="none" xmlns="http://www.w3.org/2000/svg"><path d="M33.261 15.661l-.383-.096c-1.817-.334-3.156-1.96-3.156-3.826 0-1.865 1.339-3.491 3.156-3.826l.383-.095V.739H.739v6.696h.43c2.153.239 3.683 2.2 3.444 4.352a3.869 3.869 0 01-3.443 3.444H.74v7.508h32.52v-7.078zM1.696 21.783v-5.644a4.87 4.87 0 003.97-4.782 4.744 4.744 0 00-3.97-4.783V1.696h20.087v20.087H1.696zm21.043 0V1.696h9.565v5.356a4.911 4.911 0 00-3.347 6.026 4.907 4.907 0 003.347 3.348v5.357H22.74z" fill="#fff"/><path d="M15.087 8.87v5.739c0 .287.19.478.478.478.287 0 .478-.191.478-.478v-5.74c0-.286-.191-.477-.478-.477s-.478.19-.478.478zm-4.782-1.435v8.13c0 .287.191.479.478.479s.478-.192.478-.479v-8.13c0-.287-.191-.478-.478-.478s-.478.19-.478.478z" fill="#fff"/></svg>