<svg width="20" height="17" fill="none" xmlns="http://www.w3.org/2000/svg"><path d="M19.82 1.906a8.057 8.057 0 01-2.337.641 4.082 4.082 0 001.792-2.25 8.195 8.195 0 01-2.587.987A4.038 4.038 0 0013.722 0a4.066 4.066 0 00-3.96 4.993A11.538 11.538 0 011.381.743c-.352.602-.55 1.3-.55 2.046A4.07 4.07 0 002.64 6.175a4.068 4.068 0 01-1.842-.51c-.004.017-.004.036-.004.052a4.068 4.068 0 003.264 3.986 4.043 4.043 0 01-1.072.146c-.261 0-.516-.026-.764-.076a4.07 4.07 0 003.797 2.825A8.168 8.168 0 010 14.28a11.502 11.502 0 006.233 1.828c7.476 0 11.57-6.198 11.57-11.571 0-.175 0-.353-.013-.525a8.23 8.23 0 002.03-2.106z" fill="#000"/></svg>