<svg width="24" height="15" fill="none" xmlns="http://www.w3.org/2000/svg"><path d="M24 7.5c0-.228-.128-.405-.23-.608C21.118 2.508 16.833 0 12.064 0 7.447 0 2.984 2.736.204 7.019.102 7.17 0 7.323 0 7.5s.077.33.204.481C2.984 12.29 7.473 15 12.064 15c4.387 0 8.875-2.61 11.681-6.867.153-.202.255-.405.255-.633zm-11.936 6.056c-4.107 0-8.06-2.331-10.61-6.056 2.55-3.851 6.631-6.182 10.61-6.182 4.234 0 7.957 2.23 10.482 6.182-2.55 3.725-6.503 6.056-10.482 6.056zm0-10.389c-2.372 0-4.362 1.977-4.362 4.333 0 2.508 1.99 4.333 4.362 4.333s4.361-1.85 4.361-4.333c0-2.356-1.99-4.333-4.361-4.333zm0 7.373c-1.735 0-3.035-1.444-3.035-3.015 0-1.57 1.326-3.015 3.035-3.015 1.581 0 3.035 1.318 3.035 3.015 0 1.698-1.3 3.015-3.035 3.015z" fill="#000"/></svg>