<svg width="19" height="11" fill="none" xmlns="http://www.w3.org/2000/svg"><path d="M18.407 9.535a.97.97 0 00-.063-.12c-.322-.577-.935-1.287-1.84-2.128l-.02-.021-.01-.009-.01-.01h-.008c-.412-.392-.672-.655-.781-.79-.2-.256-.246-.518-.136-.78.077-.2.367-.62.868-1.263.264-.34.473-.613.627-.819 1.11-1.477 1.593-2.422 1.444-2.833l-.056-.096c-.039-.057-.139-.11-.3-.159-.16-.048-.365-.056-.615-.024l-2.776.02a.36.36 0 00-.191.004l-.126.03-.049.024-.038.03a.416.416 0 00-.106.1.647.647 0 00-.095.168c-.303.778-.647 1.5-1.032 2.167-.239.4-.457.745-.656 1.036a4.96 4.96 0 01-.502.646c-.133.138-.256.25-.365.332-.11.084-.193.119-.25.107a6.185 6.185 0 01-.163-.04.636.636 0 01-.217-.235 1.042 1.042 0 01-.11-.376 4.042 4.042 0 01-.035-.39 9.014 9.014 0 01.006-.463c.005-.2.01-.334.01-.404 0-.244.004-.51.014-.795l.024-.679c.005-.167.01-.343.01-.53 0-.185-.012-.331-.034-.438a1.509 1.509 0 00-.102-.308.524.524 0 00-.2-.231 1.113 1.113 0 00-.32-.131C9.861.049 9.428.007 8.902 0 7.707-.012 6.94.067 6.599.233a1.335 1.335 0 00-.366.29c-.114.141-.13.219-.048.23.386.058.659.197.82.415l.058.115c.044.083.09.231.134.443.046.212.074.447.087.704.032.469.032.87 0 1.205a13.3 13.3 0 01-.092.78 1.547 1.547 0 01-.13.453 2.163 2.163 0 01-.115.212.192.192 0 01-.048.048.712.712 0 01-.26.048c-.09 0-.199-.045-.327-.135a2.31 2.31 0 01-.4-.37 4.842 4.842 0 01-.468-.661 11.155 11.155 0 01-.54-1.002l-.154-.28c-.096-.18-.228-.44-.395-.785A15.272 15.272 0 013.91.945a.625.625 0 00-.23-.307l-.048-.03a1.001 1.001 0 00-.377-.144L.617.485c-.27 0-.453.06-.55.181l-.039.06A.325.325 0 000 .878c0 .07.02.158.058.26.386.906.804 1.78 1.257 2.621.453.842.846 1.52 1.18 2.033.334.515.674.999 1.02 1.454.348.456.577.75.69.878.113.13.201.224.265.29l.24.23c.155.156.382.34.68.555.3.214.63.427.993.635.363.208.785.38 1.267.511.482.132.952.186 1.408.159h1.108c.226-.018.395-.09.511-.21l.037-.048a.672.672 0 00.072-.179.992.992 0 00.034-.266 3.124 3.124 0 01.063-.745c.049-.221.103-.388.163-.502.062-.112.13-.207.208-.284a.91.91 0 01.163-.14.648.648 0 01.076-.033c.155-.052.336-.002.545.15.208.151.403.337.588.56.183.22.403.47.658.746.258.277.482.48.675.617l.193.114c.128.077.295.147.501.213.205.064.386.078.539.047l2.466-.038c.246 0 .434-.04.57-.121.135-.081.213-.168.24-.264a.765.765 0 00.005-.328 1.166 1.166 0 00-.066-.259z" fill="#fff"/></svg>