<svg width="21" height="12" fill="none" xmlns="http://www.w3.org/2000/svg"><path d="M20.539 10.64a1.094 1.094 0 00-.07-.134c-.36-.645-1.045-1.437-2.054-2.376l-.022-.023-.01-.01-.012-.01h-.01c-.46-.438-.75-.732-.872-.882-.222-.286-.273-.578-.15-.871.085-.223.408-.691.968-1.409.294-.38.528-.683.7-.913 1.238-1.648 1.776-2.703 1.61-3.161l-.063-.107c-.042-.065-.154-.125-.333-.178-.179-.054-.409-.063-.687-.027l-3.097.022a.4.4 0 00-.214.005l-.14.033-.054.027-.043.032a.465.465 0 00-.118.112.722.722 0 00-.107.189 17.566 17.566 0 01-1.15 2.418c-.267.445-.51.83-.733 1.155a5.54 5.54 0 01-.56.722 3.718 3.718 0 01-.407.37c-.123.093-.215.132-.28.119a6.66 6.66 0 01-.18-.044.71.71 0 01-.243-.263 1.162 1.162 0 01-.124-.42 4.51 4.51 0 01-.038-.435 10.19 10.19 0 01.006-.516c.007-.222.011-.373.011-.451 0-.272.005-.568.016-.887l.027-.757c.006-.187.01-.384.01-.592 0-.206-.012-.37-.037-.489a1.68 1.68 0 00-.113-.344.585.585 0 00-.223-.258 1.24 1.24 0 00-.358-.146C11.004.055 10.52.01 9.934.001 8.599-.012 7.743.076 7.364.26a1.49 1.49 0 00-.41.324c-.127.158-.145.244-.053.258.43.064.735.219.915.462l.064.129a2 2 0 01.15.494c.051.237.083.498.097.786.036.523.036.97 0 1.344a14.66 14.66 0 01-.102.87c-.031.207-.08.376-.145.505a2.41 2.41 0 01-.128.237.215.215 0 01-.054.054.794.794 0 01-.29.053c-.1 0-.222-.05-.366-.15a2.577 2.577 0 01-.446-.414 5.402 5.402 0 01-.522-.737 12.445 12.445 0 01-.602-1.118L5.3 3.045c-.107-.2-.254-.493-.44-.877a17.044 17.044 0 01-.495-1.113.698.698 0 00-.258-.343L4.054.679a1.117 1.117 0 00-.42-.16L.687.538C.387.54.182.607.075.742L.032.808A.363.363 0 000 .981c0 .079.022.176.064.29a35.842 35.842 0 001.403 2.924c.506.94.944 1.696 1.316 2.269a26.52 26.52 0 001.14 1.622c.388.509.643.836.768.98.127.144.225.25.297.323l.268.257c.172.174.425.38.759.619.333.24.703.477 1.107.709.405.232.876.423 1.414.57a4.837 4.837 0 001.57.177h1.237c.252-.02.44-.1.57-.235l.042-.052a.75.75 0 00.08-.2c.025-.09.038-.187.038-.297a3.482 3.482 0 01.07-.832 2.29 2.29 0 01.182-.559c.07-.125.145-.231.232-.317a.972.972 0 01.181-.157c.036-.017.065-.028.086-.037.172-.057.374-.001.608.168.232.169.45.376.655.624.205.247.45.525.735.833.288.309.538.537.753.688l.215.128c.144.085.33.164.56.237.228.072.43.088.6.053l2.753-.043c.274 0 .484-.045.635-.135.15-.09.238-.187.269-.294a.855.855 0 00.005-.366 1.297 1.297 0 00-.073-.289z" fill="#000"/></svg>