<svg width="23" height="18" fill="none" xmlns="http://www.w3.org/2000/svg"><path d="M21.915 3.611C21.735 2.006 20.59.78 18.974.673c-6.977-.457-8.623-.457-15.602 0C1.76.779.615 2.004.436 3.61c-.542 4.89-.542 5.712 0 10.601.178 1.607 1.324 2.832 2.938 2.939 6.978.456 8.624.456 15.603 0 1.613-.105 2.76-1.332 2.939-2.939.54-4.889.54-5.71-.002-10.6zm-6.067 5.724l-6.036 3.638a.558.558 0 01-.535.006c-.158-.09-.287-.246-.287-.43V5.276c0-.183.129-.339.287-.43a.52.52 0 01.516.006l6.044 3.638a.488.488 0 01.244.423c0 .178-.082.33-.233.422z" fill="#000"/></svg>