<svg width="23" height="18" fill="none" xmlns="http://www.w3.org/2000/svg"><path d="M21.885 3.28c-.18-1.604-1.324-2.83-2.938-2.937-6.978-.456-8.624-.456-15.603 0C1.73.45.586 1.674.406 3.281c-.541 4.889-.541 5.712 0 10.6.178 1.608 1.325 2.833 2.939 2.94 6.977.456 8.624.456 15.603 0 1.613-.106 2.76-1.332 2.939-2.94.54-4.888.54-5.71-.002-10.6zM15.82 9.005l-6.037 3.639a.558.558 0 01-.535.005c-.158-.09-.287-.246-.287-.43V4.947c0-.184.13-.34.287-.43.16-.09.36-.087.517.005l6.044 3.639a.488.488 0 01.243.423c0 .178-.08.33-.232.421z" fill="#fff"/></svg>