<svg width="100" height="100" fill="none" xmlns="http://www.w3.org/2000/svg"><path fill="#F5F5F5" d="M100 100H0V0h100z"/><path d="M33.856 40.93v16.854c0 4.062 3.304 7.366 7.365 7.366 4.062 0 7.366-3.304 7.366-7.366 0-.74-.112-1.453-.316-2.127a4.067 4.067 0 014.465-.003 7.33 7.33 0 00-.316 2.13c0 4.062 3.303 7.366 7.365 7.366 4.061 0 7.365-3.304 7.365-7.366V40.987h0c-.02-2.564-1.602-4.827-4.022-5.824 0 0 0 0 0 0l-.664-.274s0 0 0 0a.486.486 0 10-.372.899h0l.057-.139-.057.14-28.236 5.143zm0 0c.02-2.509 1.602-4.772 4.023-5.768l.663-.274s0 0 0 0a.486.486 0 01.637.264h0a.486.486 0 01-.265.635s0 0 0 0l-.665.274c-2.063.85-3.402 2.766-3.42 4.926v13.157a7.361 7.361 0 016.392-3.724 7.374 7.374 0 016.702 4.313 5.032 5.032 0 015.162-.003 7.374 7.374 0 016.7-4.31 7.36 7.36 0 016.392 3.724V40.938c-.018-2.11-1.356-4.026-3.42-4.877m-28.9 4.87l28.9-4.87m0 0l.057-.139-.057.14h0zM41.222 51.393a6.4 6.4 0 00-6.393 6.392 6.4 6.4 0 006.392 6.392 6.4 6.4 0 006.392-6.393 6.4 6.4 0 00-6.392-6.39zm18.563 0a6.4 6.4 0 00-6.392 6.392 6.4 6.4 0 006.392 6.392 6.4 6.4 0 006.392-6.393 6.4 6.4 0 00-6.392-6.39z" fill="#000" stroke="#000" stroke-width=".3"/></svg>